<svg xmlns="http://www.w3.org/2000/svg" viewBox="0 0 40.94 31.47"><defs><style>.cls-1{fill:#d7d3c7;}.cls-2{fill:#fff;}.cls-3{fill:#111112;}.cls-4{fill:#fdd55b;}.cls-5{fill:#e4e5ed;}.cls-6{fill:#f06b5a;}</style></defs><title>grants</title><g id="Layer_2" data-name="Layer 2"><g id="Layer_1-2" data-name="Layer 1"><rect class="cls-1" x="11.16" width="27.4" height="28.19"/><path class="cls-2" d="M25.18,28.45l0-23.06H5.48V28.45a2.82,2.82,0,0,0,2.82,2.82H28A2.82,2.82,0,0,1,25.18,28.45Z"/><rect class="cls-3" x="8.31" y="31.08" width="19.39" height="0.4"/><path class="cls-2" d="M25.08,17h8.57l-3.35,6.6v5a2.61,2.61,0,0,1-2.61,2.61,2.31,2.31,0,0,1-2.18-1.38C24.85,28.4,25.08,17,25.08,17Z"/><path class="cls-3" d="M27.69,31.47v-.4a2.42,2.42,0,0,0,2.41-2.41V22.8h.4v5.86A2.81,2.81,0,0,1,27.69,31.47Z"/><rect class="cls-3" x="25.08" y="16.84" width="7.74" height="0.4"/><path class="cls-3" d="M28,31.47c-2.22,0-3-2-3-3.66V24.62c0-6,0-13.51,0-19.19L5.68,5.4V28.45a2.63,2.63,0,0,0,2.62,2.62v.4a3,3,0,0,1-3-3V5l20,0v.2c0,5.7,0,13.29,0,19.38v3.19c0,1.58.7,3.27,2.62,3.27Z"/><path class="cls-2" d="M35.44,20.5c0-1.73-.8-3.46-2.82-3.46h.3a2.61,2.61,0,0,0-2.61,2.61v3.67h5.23Z"/><path class="cls-3" d="M35.75,23.52H30.12V19.65a2.81,2.81,0,0,1,2.51-2.79v0h.3c2,.18,2.71,2,2.72,3.65Zm-5.23-.4h4.82l-.09-2.61c0-1.53-.66-3.18-2.47-3.27a2.41,2.41,0,0,0-2.26,2.41Z"/><rect class="cls-3" x="8.7" y="10.57" width="12.7" height="0.4"/><rect class="cls-3" x="8.7" y="12.02" width="12.7" height="0.4"/><rect class="cls-3" x="8.7" y="13.48" width="12.7" height="0.4"/><rect class="cls-3" x="8.7" y="14.93" width="12.7" height="0.4"/><rect class="cls-3" x="8.7" y="16.38" width="12.7" height="0.4"/><rect class="cls-3" x="8.7" y="17.84" width="12.7" height="0.4"/><rect class="cls-3" x="8.7" y="19.29" width="12.7" height="0.4"/><rect class="cls-3" x="4.84" y="1.69" width="4.8" height="0.4"/><circle class="cls-2" cx="29.79" cy="6.68" r="2.01"/><path class="cls-3" d="M27.93,14.47a.92.92,0,1,1,.92-.92A.92.92,0,0,1,27.93,14.47Zm0-1.45a.53.53,0,1,0,.53.53A.53.53,0,0,0,27.93,13Z"/><circle class="cls-2" cx="28.14" cy="18.75" r="0.61"/><circle class="cls-4" cx="34.71" cy="14.51" r="1.41"/><path class="cls-3" d="M34.45,3.14A1.14,1.14,0,1,1,35.59,2,1.14,1.14,0,0,1,34.45,3.14Zm0-1.88a.74.74,0,1,0,.74.74A.74.74,0,0,0,34.45,1.26Z"/><rect class="cls-2" x="27.96" y="9.76" width="6.07" height="0.4"/><rect class="cls-2" x="33.19" y="8.5" width="3.77" height="0.4"/><rect class="cls-2" x="18.33" y="1.28" width="5.97" height="0.4"/><rect class="cls-2" x="13.83" y="2.74" width="7.74" height="0.4"/><rect class="cls-2" x="33.19" y="25.56" width="3.04" height="0.4"/><rect class="cls-2" x="37.91" y="23.93" width="0.4" height="5.65" transform="translate(10.66 64.36) rotate(-88.94)"/><rect class="cls-5" x="0.44" y="7.4" width="1.99" height="1.68"/><polygon class="cls-6" points="2.92 26.11 1.52 29.2 0.02 26.11 0 8.08 2.9 8.08 2.92 26.11"/><polygon class="cls-5" points="1.52 29.2 2.91 26.14 0.03 26.14 1.52 29.2"/><rect class="cls-2" x="1.27" y="8.08" width="0.4" height="18.03"/><polygon class="cls-3" points="1.52 29.2 2.12 27.88 0.88 27.88 1.52 29.2"/><rect class="cls-3" x="1.44" y="3.3" width="6" height="0.4"/></g></g></svg>