<?xml version="1.0" encoding="utf-8"?>
<!-- Generator: Adobe Illustrator 21.0.2, SVG Export Plug-In . SVG Version: 6.00 Build 0)  -->
<svg version="1.1" id="Layer_1" xmlns="http://www.w3.org/2000/svg" xmlns:xlink="http://www.w3.org/1999/xlink" x="0px" y="0px"
	 viewBox="0 0 67 67.7" style="enable-background:new 0 0 67 67.7;" xml:space="preserve">
<style type="text/css">
	.st0{fill:url(#SVGID_1_);}
	.st1{enable-background:new    ;}
	.st2{fill:#FFFFFF;}
</style>
<title>Asset 1</title>
<g id="Layer_2">
	<g id="Layer_1-2">
		
			<linearGradient id="SVGID_1_" gradientUnits="userSpaceOnUse" x1="0" y1="35.8" x2="67" y2="35.8" gradientTransform="matrix(1 0 0 -1 0 70)">
			<stop  offset="0" style="stop-color:#3FB2DC"/>
			<stop  offset="1" style="stop-color:#049E74"/>
		</linearGradient>
		<circle class="st0" cx="33.5" cy="34.2" r="33.5"/>
		<g class="st1">
			<path class="st2" d="M34.3,53.2c0-0.4-0.2-0.8-0.8-1c-3.1-1.4-4.5-2-4.1-1.8c-4-1.6-7.1-3.5-9.4-5.8c-3.3-3.2-5.4-6.8-6.2-10.7
				c-0.5-2.4-0.3-4.6,0.6-6.4c1.4-2.9,4-4.6,7.7-5.2c5.4-0.8,9.5,1.2,12.1,5.8c0,0.1,0.2,0.5,0.6,1.1c0.2,0,0.5-0.2,0.6-0.7
				c1.3-3.1,3.5-5.4,6.5-7c4.6-2.4,8.3-1.3,11.1,3.1c1.9,3.1,2.2,6.5,0.9,10.3c-1,2.7-3,5.7-6.1,8.9c-2.5,2.6-5.4,5.2-8.8,7.8
				c-0.7,0.5-1,1-1,1.4c0,0.5-0.2,0.7-0.6,0.6l-2.4,0.3l-0.4-0.1C34.3,53.6,34.3,53.4,34.3,53.2z M34.7,35.5
				c-0.4,0.4-0.8,0.5-1.2,0.3c-0.6-0.3-0.8-0.7-0.6-1.2c0.2-0.6,0.2-1.6-0.2-2.8c-0.7-2.3-2-4.1-3.9-5.3c-2.1-1.3-4.3-1.7-6.9-1.1
				c-2.6,0.5-4.2,1.9-4.9,4.1c-0.4,1.7-0.3,3.6,0.4,5.7c1.7,4.7,5,8.3,9.8,10.9c0.7,0.4,1.9,1,3.7,1.8c1.5,0.7,2.7,1.3,3.6,1.9
				c0.7,0.4,1.3,0.3,1.9-0.3c1-1.1,2.4-2.4,4.1-4c2.8-2.4,5.1-4.8,6.9-7c1.7-2.1,2.7-4.1,3.1-6c0.5-2.5,0.1-4.7-1.2-6.7
				C48,23.6,46,23,43.5,24.1c-1,0.4-1.9,1-2.8,1.8c-1.7,1.5-2.8,3.6-3.4,6.1c-0.2,0.9,0,1.6,0.5,2c0.4,0.3,0.5,0.6,0.4,0.9
				c-0.1,0.2-0.5,0.4-1,0.5c0.1,0-0.5-0.2-1.9-0.5C34.9,35.3,34.7,35.5,34.7,35.5z"/>
		</g>
	</g>
</g>
</svg>
