<svg xmlns="http://www.w3.org/2000/svg" viewBox="0 0 337.3 52"><defs><style>.cls-1{fill:#033a23;}</style></defs><title>Asset 3</title><g id="Layer_2" data-name="Layer 2"><g id="Layer_1-2" data-name="Layer 1"><path class="cls-1" d="M34.7,50.3c.1.2.1.4-.2.8a1.17,1.17,0,0,1-1.1.5h-.6a1.43,1.43,0,0,1-1.3-.7c-.4-.4-.4-1.3-.3-2.5,0-.2.1-.4.1-.6v-.4l-.1-.1a.35.35,0,0,1-.1-.2v-.6a3.3,3.3,0,0,1,0-1.4c0-.9-.1-2.3-.2-4.2s-.3-4.5-.5-7.9c0-.4-.1-1-.1-1.8s-.1-2.1-.2-4c0-.5-.1-1.2-.2-2.1s-.2-1.7-.3-2.4a21.13,21.13,0,0,1-.2-3c0-1.3-.1-2.5-.1-3.6V12.8l-.7.9c-.3.4-.6.9-.9,1.4s-.6.9-.8,1.2a7.05,7.05,0,0,1-.9,1.5l-1.5,2.4c-.5.9-1.1,1.7-1.6,2.5a15,15,0,0,0-1,1.6c-.2.3-.5.8-.8,1.3a13,13,0,0,0-.8,1.7,10.74,10.74,0,0,1-.7,1.5,4.18,4.18,0,0,0-.3.9c0,.8-.4,1.3-1.1,1.3a1.45,1.45,0,0,1-.7-.2,1.42,1.42,0,0,0-.6-.2.76.76,0,0,1-.5-.2h-.1a1.63,1.63,0,0,1-.6-.3,13,13,0,0,1-.7-1.2l-.3-.4a3.58,3.58,0,0,0-.6-1.1c-.2-.3-.3-.4-.3-.5a2.19,2.19,0,0,1-.3-.5,2.19,2.19,0,0,0-.3-.5,3.05,3.05,0,0,0-.5-.9,2.19,2.19,0,0,1-.3-.5,3.33,3.33,0,0,0-.3-.6c-.1-.3-.4-.7-.7-1.3s-.7-1.2-1-1.8a8.76,8.76,0,0,1-.7-1.2,3.55,3.55,0,0,1-.4-.9,3.93,3.93,0,0,1-.2-.6V18a.22.22,0,0,1-.2-.2c0-.1-.2-.2-.4-.4s-.3-.4-.4-.6a2.65,2.65,0,0,0-.5-.6c-.3-.5-.6-.9-.8-1.3s-.4-.6-.5-.6a1.73,1.73,0,0,0-.3-.4,3,3,0,0,0-.5-.7l-.7-1.1a17.09,17.09,0,0,0-1.1-1.7V33.8c0,.9.1,1.6.1,2.1s.1,1,.1,1.7v7.5l-.2,6c0,.1-.1.2-.3.2L2,51.4H1.5a2,2,0,0,1-.9-.1c-.2-.1-.3-.3-.4-.7a5.38,5.38,0,0,1-.1-.8V43.6c0-1.6.1-2.9.1-3.9V36.8c0-.9-.1-1.8-.1-2.7s-.1-2-.1-3.3V23.7c0-1.1.1-2.1.1-3.1s.1-2,.1-3A20.92,20.92,0,0,1,.3,15V12.1c0-.3-.1-.9-.1-1.8v-3C.2,6.3.1,5.5.1,5A3.11,3.11,0,0,1,.2,3.9a1.54,1.54,0,0,1,.3-.7A.59.59,0,0,1,1,3c.1,0,.2-.1.3-.1h.9c.2,0,.4.1.6.1a2.32,2.32,0,0,1,1,.4,3.49,3.49,0,0,1,.6.9l.7,1.4c.3.6.7,1.1,1,1.8s.7,1.2,1.1,1.8a14.68,14.68,0,0,1,.9,1.5c.7,1,1.5,2.1,2.2,3.3s1.5,2.4,2.2,3.5c.3.5.6,1,.8,1.4a6.72,6.72,0,0,1,.6,1.2,2.68,2.68,0,0,1,.5,1.1,1.7,1.7,0,0,1,.6.6,4.35,4.35,0,0,1,.4.7,2.51,2.51,0,0,1,.4.7,3.58,3.58,0,0,0,.6,1.1,5.92,5.92,0,0,0,.4.6,1.07,1.07,0,0,0,.3-.5c.1-.2.3-.5.4-.7.2-.4.5-.8.8-1.4s.7-1.1,1-1.6a47.89,47.89,0,0,0,3-5.1,19.41,19.41,0,0,1,1-1.7,7.46,7.46,0,0,0,.7-1.2,4.05,4.05,0,0,0,.5-.9c.2-.2.3-.5.6-.8s.5-.8.9-1.4.8-1.3,1.2-2a15.05,15.05,0,0,0,1.1-2.2,15.87,15.87,0,0,0,.9-2,2.3,2.3,0,0,1,1-1.4,2,2,0,0,1,.8-.3,1.14,1.14,0,0,1,.8.3c.4.3.6.4.7.4s.3.3.3.8c0,.2.1.5.1.8V7.9c0,1.1,0,2.3-.1,3.6v7.2a18.08,18.08,0,0,0,.3,3.8,16.86,16.86,0,0,1,.2,2.5c.1,1,.1,1.9.2,2.6v2c0,.6.1,1.2.1,1.8s.1,1.2.1,1.8a15,15,0,0,0,.2,2c.2,2.2.3,4.3.4,6.4a48.3,48.3,0,0,1,0,5.4C34.6,49,34.6,50,34.7,50.3Z"/><path class="cls-1" d="M38.4,37.4c0-.6-.1-1.2-.1-1.7s-.1-.8-.1-1-.1-.9-.1-2V25.1c0-1.3.1-2.4.1-3.2a23.2,23.2,0,0,1,.2-2.4c.1-.9.2-1.7.3-2.6l.3-2.4c.1-.7.2-1.3.3-1.7a2,2,0,0,0,.2-.9c0-.4.1-.8.1-1.1l.3-1.2a4.65,4.65,0,0,1,.3-.9,2.82,2.82,0,0,0,.4-1.1,4.88,4.88,0,0,1,.6-1.3c.3-.5.7-.9,1-1.4a5,5,0,0,1,1.1-1,1.86,1.86,0,0,1,1.1-.4h.1l.1-.1c.1-.2.2-.3.4-.3a.35.35,0,0,1,.2-.1.76.76,0,0,1,.4.1v.1a3.71,3.71,0,0,1,1.5-.5,15,15,0,0,1,2-.2c.9,0,1.5.1,1.7.4h.1a.32.32,0,0,1,.3-.3,5.2,5.2,0,0,1,.5.3c0,.1.2.1.3.1h.1c.2-.1.4-.1.5.1v.2h.1a1.42,1.42,0,0,1,.6.2,2.09,2.09,0,0,1,.6.4c.1.1.2.2.3.2a.25.25,0,0,0,.4,0,1.24,1.24,0,0,0,.3.2c.1.1.4.5.9,1.1.2.3.4.6.7,1s.4.7.5.9a5,5,0,0,1,.3,1.2,17.66,17.66,0,0,0,.4,2c.1.8.3,1.6.4,2.6s.2,1.9.3,2.8c0,.4.1.9.1,1.7s.1,1.6.1,2.5.1,1.8.1,2.6.1,1.5.1,2v2.9c0,1.5-.1,3.1-.1,4.9,0,1.4-.1,2.6-.1,3.5s-.1,1.6-.1,2.2-.1,1.1-.2,1.5-.2.8-.3,1.3c-.2.7-.5,1.4-.8,2.2s-.6,1.5-.9,2.2a8.25,8.25,0,0,1-1,2c-.2.2-.3.3-.4.3l-.1.1a.37.37,0,0,0-.1.3l-.3.6c-.1.2-.2.3-.4.3a.1.1,0,0,0-.1.1c0,.2-.1.4-.4.7a9.23,9.23,0,0,1-.8.5,4.38,4.38,0,0,1-1.9.7c-.4,0-.7,0-.7.1a1.23,1.23,0,0,1-.8.5,3.22,3.22,0,0,1-.8.1H48a7.92,7.92,0,0,1-2.9-.6,6.64,6.64,0,0,1-2.5-1.5,11.45,11.45,0,0,1-2.9-4.8A29,29,0,0,1,38.4,37.4Zm11.9-32a.1.1,0,0,1-.1.1.76.76,0,0,1-.4-.1c-.2,0-.3-.1-.4-.1a.9.9,0,0,0-.5-.1,4.12,4.12,0,0,0-1.5.4,6.11,6.11,0,0,0-1.4.7,2.36,2.36,0,0,0-.9.8,3.88,3.88,0,0,0-.6,1.1A6,6,0,0,0,44,9.8a54.09,54.09,0,0,0-1.2,5.5,50.28,50.28,0,0,0-.7,5.9c-.2,2.1-.2,4.4-.2,6.9s.1,5.3.3,8.4a21.93,21.93,0,0,0,.2,2.9c.1.8.2,1.4.3,2a7.49,7.49,0,0,0,.4,1.6,10.09,10.09,0,0,0,.7,1.5c1,2.3,2.1,3.5,3.2,3.6a1.85,1.85,0,0,1,.7.2c.2.1.4.1.5.2a.1.1,0,0,0,.1.1H49a4.87,4.87,0,0,0,1.2-.1c.4-.1.7-.1.7-.2s.3-.4.6-.8a8.72,8.72,0,0,0,.9-1.7c.3-.7.6-1.4.9-2.2s.5-1.5.8-2.2.3-1.3.5-1.9.3-1.3.4-1.9a10.4,10.4,0,0,0,.2-1.5v-.8a.44.44,0,0,1-.1-.3V26.9A27.15,27.15,0,0,0,55,24c0-.9-.1-1.9-.1-2.9s-.1-2.1-.2-3.5a58.89,58.89,0,0,0-.8-7.3A8.16,8.16,0,0,0,52.7,7c0-.1-.2-.2-.4-.4a4.23,4.23,0,0,0-.7-.5,5.74,5.74,0,0,0-.7-.4A1.63,1.63,0,0,1,50.3,5.4Z"/><path class="cls-1" d="M74.5,3.6a8.63,8.63,0,0,1,3.6,4.1,15.28,15.28,0,0,1,1.2,4.2,51.1,51.1,0,0,1,.6,5.9,37.8,37.8,0,0,1-.1,5.9,16.41,16.41,0,0,1-.8,4.1,12.87,12.87,0,0,1-1.8,3.3,13.11,13.11,0,0,1-2.7,2.5l-.8.6,2,4.3c.5,1.2,1.1,2.4,1.7,3.7s1,2.2,1.2,2.8.5,1.1.7,1.7.4,1,.5,1.2a.76.76,0,0,1,.2.5v.5a1.38,1.38,0,0,1,.3.4,1.38,1.38,0,0,0,.3.4,1.41,1.41,0,0,1,.1.9,1.14,1.14,0,0,1-.3.8.64.64,0,0,1-.7.5H78.6c-.9,0-1.7-.7-2.3-2.1-.1-.2-.2-.5-.4-1a6.12,6.12,0,0,1-.5-1.2,3.14,3.14,0,0,1-.4-1.2v-.3l-.1-.3a3.77,3.77,0,0,1-.5-.8,6.12,6.12,0,0,1-.5-1.2c-.2-.4-.4-.9-.6-1.4a9.75,9.75,0,0,0-.6-1.4c-.1-.3-.3-.7-.4-1.1a1.83,1.83,0,0,1-.2-.9v-.3c-.2,0-.4-.2-.5-.6a2.81,2.81,0,0,1-.5-1.1,9.29,9.29,0,0,0-.5-1,1.63,1.63,0,0,0-.3-.6h-.9a.9.9,0,0,0-.5.1l-1.1.1v7.8c0,1.1.1,1.8.1,2,.2,1.3.3,2.3.4,3a4.22,4.22,0,0,1,0,1.6q-.15.75-.6.9c-.3.1-.6.2-1,.3-.2,0-.4.1-.6.1a1.38,1.38,0,0,1-1.1-.6c-.1-.2-.3-.5-.4-.7a2.07,2.07,0,0,1-.2-.6V48.3q-.15-2-.3-4.8a50.41,50.41,0,0,1,0-5.5c0-1.2.1-2.3.1-3.4v-4c0-.7-.1-1.4-.1-2s0-1.6-.1-2.9-.2-2.5-.3-3.7c-.1-1.6-.2-2.8-.3-3.7a25,25,0,0,1-.2-2.5c0-.8-.1-1.6-.1-2.5V9.8c0-1.4-.1-2.7-.1-3.9s-.1-1.9-.1-2.1a1,1,0,0,1,.2-.9,1.33,1.33,0,0,1,1-.4,14.89,14.89,0,0,1,2.4-.1h2.3A10.25,10.25,0,0,1,74.5,3.6Zm.8,23a11.84,11.84,0,0,0,.7-3.9,50.37,50.37,0,0,0,0-5.5,40.44,40.44,0,0,0-.6-5.4,14.72,14.72,0,0,0-1-3.6,2.36,2.36,0,0,0-.6-.9,9,9,0,0,0-.9-1c-.3-.3-.6-.5-.9-.8a6.82,6.82,0,0,1-.7-.5,11.27,11.27,0,0,0-2.4-.5h-.1c0,.2-.2.3-.5.3H66.4V7.5c0,.7,0,1.6.1,2.8s.1,2.5.2,3.7.1,2.4.2,3.5a18,18,0,0,0,.2,2.1c0,.6.1,1.4.2,2.3a26.42,26.42,0,0,1,.2,2.9c.1,1,.1,2,.2,2.9a21.82,21.82,0,0,1,.1,2.4l.1,2.7h.9a3.29,3.29,0,0,0,1.7-.4,1.38,1.38,0,0,1,.4-.3l.6-.3c.1,0,.2-.1.5-.3s.5-.4.8-.7a8,8,0,0,0,1.5-1.7A25.53,25.53,0,0,0,75.3,26.6Z"/><path class="cls-1" d="M84.5,20.4a2.22,2.22,0,0,0-.1-.9c-.1-.1-.1-.3-.2-.6V8.2a31.26,31.26,0,0,1,.1-3.4l.1-2.9a.27.27,0,0,1,.3-.3H86c.4,0,.9-.1,1.7-.2S89.2,1.1,90,1A38.28,38.28,0,0,1,94.2.2,22.38,22.38,0,0,1,97.7,0c2.4,0,3.7.5,3.8,1.4a1.78,1.78,0,0,1-.1,1.3A1.5,1.5,0,0,1,100,3h-.1a19.71,19.71,0,0,0-2.1.1l-3,.3c-1.1.1-2.1.3-3,.4a18.14,18.14,0,0,0-2.2.4,11.06,11.06,0,0,0-1.3.4q-.3.15-.3.3c0,1.2-.1,2.6,0,4.1s.1,3.1.1,4.7.1,3.1.2,4.6.2,2.7.3,3.7a16.35,16.35,0,0,0,.2,2.2c.1.7.1,1.5.2,2.3s.1,1.4.2,2,.1,1.1.1,1.5c.1,1.6.2,2.5.2,2.9a5.38,5.38,0,0,0,1.1-.1,11.14,11.14,0,0,0,1.7-.2,16.86,16.86,0,0,1,2.5-.2c.9,0,1.8-.1,2.6-.1h2.1c.4,0,.7.1.9.1a1.38,1.38,0,0,1,.4.3,2.19,2.19,0,0,1,.3.5,1.45,1.45,0,0,1,.2.7,2,2,0,0,1-.1.7c-.3.4-.8.5-1.7.5h-1c-.2,0-.5-.1-.7-.1H96.5a1.29,1.29,0,0,1-.8.2c-.4,0-.7.1-.9.1-.4,0-.9.1-1.4.1s-1,.1-1.3.1-.7.1-1.1.1H89.9a3.46,3.46,0,0,0,0,1.5,9.72,9.72,0,0,1,.1,1.8v1.8a3.28,3.28,0,0,0,0,1v.5a2.39,2.39,0,0,1,.3.7v.7c0,.2.1.5.1.8,0,.9.1,1.7.1,2.2a3.73,3.73,0,0,0,.2,1.2,1.2,1.2,0,0,0,.8.8,6.15,6.15,0,0,0,1.4.1c.3,0,.5,0,.6-.1.4,0,.6-.1.8-.1h.5a2,2,0,0,1,1.1.3.76.76,0,0,1,.5-.2,10.87,10.87,0,0,1,1.5-.2h.9a2.2,2.2,0,0,1,1.6.4,1.38,1.38,0,0,1,.5,1.3,1.08,1.08,0,0,1-.9.8c-.2,0-.5.1-.9.1H94.6v.1c0,.1-.2.1-.6.1s-.6,0-.7-.1H92a.52.52,0,0,1-.4.2.76.76,0,0,1-.4-.2h-.5a.37.37,0,0,0-.3.1h-.8a2.07,2.07,0,0,1-1.5-.5.31.31,0,0,1-.1-.2c-.1,0-.2.1-.3.1-.5,0-.8-.6-.9-1.7a4.1,4.1,0,0,0-.1-1.1c0-.4-.1-.6-.1-.9-.1-.6-.1-1.1.2-1.3l.1-.1a2.39,2.39,0,0,1-.3-.7,2.49,2.49,0,0,1-.1-.8c0-.4-.1-.8-.1-1.3s-.1-1-.1-1.4a2.52,2.52,0,0,1,.3-1.9,1.63,1.63,0,0,1-.3-.6,2,2,0,0,0-.1-.5c-.2-1.5-.3-2.9-.4-4.2s-.1-2.7-.2-4.1V28.1c0-.7-.1-1.2-.1-1.5a6.8,6.8,0,0,1-.2-1.5,11,11,0,0,0-.2-1.8c-.1-.6-.1-1.2-.2-1.8A1.5,1.5,0,0,1,84.5,20.4Z"/><path class="cls-1" d="M118,20.2V18.4a14.77,14.77,0,0,0-.1-2.1,12.75,12.75,0,0,0-.1-2c0-.7-.1-1.3-.1-1.8a50.36,50.36,0,0,1-.2-6.5,16.36,16.36,0,0,1,.3-2.6,1.63,1.63,0,0,1,.3-.6,6,6,0,0,1,1.9-.4c1-.1,1.9-.2,2.7-.2,1.1-.1,2.3-.2,3.4-.2s2.1-.1,2.7-.2c.3,0,.5-.1.8-.1h.8a3.81,3.81,0,0,1,2.7.7.91.91,0,0,1,.3.7,3,3,0,0,1-.2,1,2.65,2.65,0,0,1-1.1.6c-.6.1-1.4.2-2.5.3s-2.6.2-4.5.3c-.8,0-1.4.1-1.9.1s-.8.1-1.1.1l-.5.1-.1.1c0,.3-.1.8-.1,1.4v2a18.48,18.48,0,0,0,.1,2.3,15,15,0,0,0,.2,2.2c0,.4.1,1,.1,1.7a17,17,0,0,0,.1,2.2A21.75,21.75,0,0,0,122,20v2.4c0,1.7-.1,3.1,0,4.2v1.8a10.87,10.87,0,0,1,.1,1.3,25,25,0,0,0,.2,2.5l.2,3.2H127a11.48,11.48,0,0,0,1.9-.1h1.8a2.51,2.51,0,0,1,1,.1,1.33,1.33,0,0,1,.6.5,1.63,1.63,0,0,1,.4.9,1.27,1.27,0,0,1-.1.6c-.2.5-.8.7-1.7.7h-.1a1.61,1.61,0,0,1-1.1-.3c-.1.3-.4.5-.9.5h-1.5a4.1,4.1,0,0,0-1.1.1,4.33,4.33,0,0,0-.5.1h-.3a1,1,0,0,1-.7-.2v-.1c-.2,0-.4.1-.6.1s-.4.1-.6.1h-.8v6.5c0,1.6,0,3.5.1,5.9a1.22,1.22,0,0,1-.3.9,1.14,1.14,0,0,1-.8.3h-.5c-.2,0-.4-.1-.6-.1a6.6,6.6,0,0,1-1.1-.4c-.3-.1-.4-.4-.5-.7s-.1-.7-.1-1.7V41.6c0-1.5,0-3-.1-4.3s-.1-2.7-.2-3.8-.1-2.2-.2-3a22.94,22.94,0,0,1-.1-3.2C118.3,25.6,118.1,23.1,118,20.2Z"/><path class="cls-1" d="M137.1,37.4c0-.6-.1-1.2-.1-1.7s-.1-.8-.1-1-.1-.9-.1-2V25.1c0-1.3.1-2.4.1-3.2a23.2,23.2,0,0,1,.2-2.4c.1-.9.2-1.7.3-2.6l.3-2.4c.1-.7.2-1.3.3-1.7a2,2,0,0,0,.2-.9c0-.4.1-.8.1-1.1l.3-1.2a4.65,4.65,0,0,1,.3-.9,2.82,2.82,0,0,0,.4-1.1,4.88,4.88,0,0,1,.6-1.3c.3-.5.7-.9,1-1.4a5,5,0,0,1,1.1-1,1.86,1.86,0,0,1,1.1-.4h.1l.1-.1c.1-.2.2-.3.4-.3a.35.35,0,0,1,.2-.1.76.76,0,0,1,.4.1v.1a3.71,3.71,0,0,1,1.5-.5,15,15,0,0,1,2-.2c.9,0,1.5.1,1.7.4h.1a.32.32,0,0,1,.3-.3,5.2,5.2,0,0,1,.5.3c0,.1.2.1.3.1h.1c.2-.1.4-.1.5.1v.2h.1a1.42,1.42,0,0,1,.6.2,2.09,2.09,0,0,1,.6.4c.1.1.2.2.3.2a.25.25,0,0,0,.4,0,1.24,1.24,0,0,0,.3.2c.1.1.4.5.9,1.1.2.3.4.6.7,1s.4.7.5.9a5,5,0,0,1,.3,1.2,17.66,17.66,0,0,0,.4,2c.1.8.3,1.6.4,2.6s.2,1.9.3,2.8c0,.4.1.9.1,1.7s.1,1.6.1,2.5.1,1.8.1,2.6.1,1.5.1,2v2.9c0,1.5-.1,3.1-.1,4.9,0,1.4-.1,2.6-.1,3.5s-.1,1.6-.1,2.2-.1,1.1-.2,1.5-.2.8-.3,1.3c-.2.7-.5,1.4-.8,2.2s-.6,1.5-.9,2.2a8.25,8.25,0,0,1-1,2c-.2.2-.3.3-.4.3l-.1.1a.37.37,0,0,0-.1.3l-.3.6c-.1.2-.2.3-.4.3a.1.1,0,0,0-.1.1c0,.2-.1.4-.4.7a9.23,9.23,0,0,1-.8.5,4.38,4.38,0,0,1-1.9.7c-.4,0-.7,0-.7.1a1.23,1.23,0,0,1-.8.5,3.22,3.22,0,0,1-.8.1h-.5a7.92,7.92,0,0,1-2.9-.6,6.64,6.64,0,0,1-2.5-1.5,11.45,11.45,0,0,1-2.9-4.8A22.29,22.29,0,0,1,137.1,37.4ZM149,5.4a.1.1,0,0,1-.1.1.76.76,0,0,1-.4-.1c-.2,0-.3-.1-.4-.1a.9.9,0,0,0-.5-.1,4.12,4.12,0,0,0-1.5.4,6.11,6.11,0,0,0-1.4.7,2.36,2.36,0,0,0-.9.8,3.88,3.88,0,0,0-.6,1.1,6,6,0,0,0-.5,1.6,54.09,54.09,0,0,0-1.2,5.5,50.28,50.28,0,0,0-.7,5.9c-.2,2.1-.2,4.4-.2,6.9s.1,5.3.3,8.4a21.93,21.93,0,0,0,.2,2.9c.1.8.2,1.4.3,2a7.49,7.49,0,0,0,.4,1.6,10.09,10.09,0,0,0,.7,1.5c1,2.3,2.1,3.5,3.2,3.6a1.85,1.85,0,0,1,.7.2c.2.1.4.1.5.2a.1.1,0,0,0,.1.1h.7a4.87,4.87,0,0,0,1.2-.1c.4-.1.7-.1.7-.2s.3-.4.6-.8a8.72,8.72,0,0,0,.9-1.7c.3-.7.6-1.4.9-2.2s.5-1.5.8-2.2.3-1.3.5-1.9.3-1.3.4-1.9a10.4,10.4,0,0,0,.2-1.5v-.8a.44.44,0,0,1-.1-.3V26.9a27.15,27.15,0,0,0-.1-2.9c0-.9-.1-1.9-.1-2.9s-.1-2.1-.2-3.5a58.89,58.89,0,0,0-.8-7.3A8.16,8.16,0,0,0,151.4,7c0-.1-.2-.2-.4-.4a4.23,4.23,0,0,0-.7-.5,5.74,5.74,0,0,0-.7-.4A1.63,1.63,0,0,1,149,5.4Z"/><path class="cls-1" d="M173.1,3.6a8.63,8.63,0,0,1,3.6,4.1,15.28,15.28,0,0,1,1.2,4.2,51.1,51.1,0,0,1,.6,5.9,37.8,37.8,0,0,1-.1,5.9,16.41,16.41,0,0,1-.8,4.1,12.87,12.87,0,0,1-1.8,3.3,13.11,13.11,0,0,1-2.7,2.5l-.8.6,2,4.3c.5,1.2,1.1,2.4,1.7,3.7s1,2.2,1.2,2.8.5,1.1.7,1.7.4,1,.5,1.2a.76.76,0,0,1,.2.5v.5a1.38,1.38,0,0,1,.3.4,1.38,1.38,0,0,0,.3.4,1.41,1.41,0,0,1,.1.9,1.14,1.14,0,0,1-.3.8.64.64,0,0,1-.7.5h-1.1c-.9,0-1.7-.7-2.3-2.1-.1-.2-.2-.5-.4-1a6.12,6.12,0,0,1-.5-1.2,3.14,3.14,0,0,1-.4-1.2v-.3l-.1-.3a3.77,3.77,0,0,1-.5-.8,6.12,6.12,0,0,1-.5-1.2c-.2-.4-.4-.9-.6-1.4a9.75,9.75,0,0,0-.6-1.4c-.1-.3-.3-.7-.4-1.1a1.83,1.83,0,0,1-.2-.9v-.3c-.2,0-.4-.2-.5-.6a2.81,2.81,0,0,1-.5-1.1,9.29,9.29,0,0,0-.5-1,1.63,1.63,0,0,0-.3-.6H168a.9.9,0,0,0-.5.1l-1.1.1v7.8c0,1.1.1,1.8.1,2,.2,1.3.3,2.3.4,3a4.22,4.22,0,0,1,0,1.6q-.15.75-.6.9c-.3.1-.6.2-1,.3-.2,0-.4.1-.6.1a1.38,1.38,0,0,1-1.1-.6c-.1-.2-.3-.5-.4-.7a2.07,2.07,0,0,1-.2-.6V48.3q-.15-2-.3-4.8a50.41,50.41,0,0,1,0-5.5c0-1.2.1-2.3.1-3.4v-4c0-.7-.1-1.4-.1-2s0-1.6-.1-2.9-.2-2.5-.3-3.7c-.1-1.6-.2-2.8-.3-3.7a25,25,0,0,1-.2-2.5c0-.8-.1-1.6-.1-2.5V9.8c0-1.4-.1-2.7-.1-3.9s-.1-1.9-.1-2.1a1,1,0,0,1,.2-.9,1.33,1.33,0,0,1,1-.4,14.89,14.89,0,0,1,2.4-.1h2.3A10.05,10.05,0,0,1,173.1,3.6Zm.9,23a11.84,11.84,0,0,0,.7-3.9,50.37,50.37,0,0,0,0-5.5,40.44,40.44,0,0,0-.6-5.4,14.72,14.72,0,0,0-1-3.6,2.36,2.36,0,0,0-.6-.9,9,9,0,0,0-.9-1c-.3-.3-.6-.5-.9-.8A6.82,6.82,0,0,1,170,5a11.27,11.27,0,0,0-2.4-.5h-.1c0,.2-.2.3-.5.3h-1.9V7.5c0,.7,0,1.6.1,2.8s.1,2.5.2,3.7.1,2.4.2,3.5a18,18,0,0,0,.2,2.1c0,.6.1,1.4.2,2.3a26.42,26.42,0,0,1,.2,2.9c.1,1,.1,2,.2,2.9a21.82,21.82,0,0,1,.1,2.4l.1,2.7h.9a3.29,3.29,0,0,0,1.7-.4,1.38,1.38,0,0,1,.4-.3l.6-.3c.1,0,.2-.1.5-.3s.5-.4.8-.7a8,8,0,0,0,1.5-1.7C173.2,28.5,173.6,27.7,174,26.6Z"/><path class="cls-1" d="M195.7,32.1c-.1,0-.1-.1-.1-.2a8.37,8.37,0,0,1-.1-1.2V28.6c0-.8.1-1.5.1-2.1s.1-1,.1-1.2c0-.8.1-1.6.1-2.3a11.08,11.08,0,0,1,.2-1.9c0-.6.1-1.1.1-1.3a3.54,3.54,0,0,1,.1-.6c-.3,0-.4-.3-.4-.7a.91.91,0,0,1,.3-.7c-.3-.3-.3-.5-.1-.7a14.26,14.26,0,0,0,.3-2.4v-.4c0-.2.1-.5.1-.8a1.88,1.88,0,0,1,.2-.8c.1-.3.1-.5.2-.6l-.1-.1-.1-.1a1,1,0,0,1,.1-.4,2.3,2.3,0,0,1,.3-.9,11.61,11.61,0,0,1,.6-1.6,7.45,7.45,0,0,1,.9-1.8A16.46,16.46,0,0,1,200,5.5a17.38,17.38,0,0,1,1.5-1.3,4,4,0,0,1,1.2-.7,11.11,11.11,0,0,1,3.3-.3h.5a13.38,13.38,0,0,1,2.6.2,4.42,4.42,0,0,1,1.5.5,8.72,8.72,0,0,1,3.8,3.8,15.21,15.21,0,0,1,1.6,6.2c0,.6.1,1.1.1,1.7v1.2a4.33,4.33,0,0,0-.1.5c0,.2-.1.4-.1.6a2.77,2.77,0,0,1-.1.9c-.1.4-.3.5-.7.5a2.66,2.66,0,0,1-1.2-.3l-1.2-.5a.31.31,0,0,1-.1-.2l-.1-3.2a23.59,23.59,0,0,0-.4-4.4,7.06,7.06,0,0,0-1-2.6,5.29,5.29,0,0,0-1.6-1.7,3.83,3.83,0,0,0-1.9-.5,10,10,0,0,0-1.6.2,5.41,5.41,0,0,0-1.5.4,4.18,4.18,0,0,0-1.2.8A8.64,8.64,0,0,0,202,8.7a4.61,4.61,0,0,0-.9,1.7,11.62,11.62,0,0,0-.6,2.2,19.94,19.94,0,0,0-.4,3c0,.6-.1,1.5-.2,2.6s-.1,2.3-.2,3.7-.1,2.7-.2,4.1-.1,2.6-.1,3.8v3a4.57,4.57,0,0,0,.1,1.5c.1.2.1.5.2.8s.1.6.1.8c.4,3.3.8,5.9,1.1,7.7a22,22,0,0,0,.6,3.1,3.89,3.89,0,0,0,1.6,1.5,5.54,5.54,0,0,0,2.6.6,6.87,6.87,0,0,0,2.4-.5,5.5,5.5,0,0,0,2.6-2.4,11.2,11.2,0,0,0,1.1-4.7,7.72,7.72,0,0,0,.2-1.5,5.53,5.53,0,0,1,.1-.9l-.1-.4a3.93,3.93,0,0,0-.2-.6c-.1-.3-.1-.6-.2-1l-.1-.9h-2.6a12.14,12.14,0,0,1-2.3-.2,2.26,2.26,0,0,1-1.1-.5,1.38,1.38,0,0,1-.1-1.1.85.85,0,0,1,.7-.7,9.86,9.86,0,0,1,2.3-.2h2a19.06,19.06,0,0,1,3.2.2c.5.1.8.2.9.4a5.3,5.3,0,0,1,.3,1.1c.1.6.2,1.2.3,1.9a14.92,14.92,0,0,1,.2,2.1c0,.7.1,1.2.1,1.6a17.22,17.22,0,0,1-1,5.3,7.66,7.66,0,0,1-2.3,3.5,10,10,0,0,1-2.3,1.4,5.61,5.61,0,0,1-2.3.6,4.51,4.51,0,0,0-1.3.1h-1.6a1.33,1.33,0,0,1-1-.3h-.8c-.4-.1-.7-.1-.8-.2a.35.35,0,0,1-.2-.1l-.1-.1c-.1,0-.2-.1-.4-.2s-.3-.2-.5-.3l-.7-.4a5.8,5.8,0,0,1-2.2-2.2,7.53,7.53,0,0,1-.9-3.2,10.5,10.5,0,0,0-.2-1.3c-.1-.6-.1-1.2-.2-1.7s-.2-1.1-.3-1.7a10.5,10.5,0,0,1-.2-1.3,7.17,7.17,0,0,0-.1-1.3c-.1-.5-.1-1-.2-1.5a7.77,7.77,0,0,1-.2-1.6c0-.6-.1-1-.1-1.4A.32.32,0,0,0,195.7,32.1Z"/><path class="cls-1" d="M220,37.4c0-.6-.1-1.2-.1-1.7s-.1-.8-.1-1-.1-.9-.1-2V25.1c0-1.3.1-2.4.1-3.2a23.2,23.2,0,0,1,.2-2.4c.1-.9.2-1.7.3-2.6l.3-2.4c.1-.7.2-1.3.3-1.7a2,2,0,0,0,.2-.9c0-.4.1-.8.1-1.1l.3-1.2a4.65,4.65,0,0,1,.3-.9,2.82,2.82,0,0,0,.4-1.1,4.88,4.88,0,0,1,.6-1.3c.3-.5.7-.9,1-1.4a5,5,0,0,1,1.1-1,1.86,1.86,0,0,1,1.1-.4h.1l.1-.1c.1-.2.2-.3.4-.3a.35.35,0,0,1,.2-.1.76.76,0,0,1,.4.1v.1a3.71,3.71,0,0,1,1.5-.5,15,15,0,0,1,2-.2c.9,0,1.5.1,1.7.4h.1a.32.32,0,0,1,.3-.3,5.19,5.19,0,0,1,.5.3c0,.1.2.1.3.1h.1c.2-.1.4-.1.5.1v.2h.1a1.42,1.42,0,0,1,.6.2,2.09,2.09,0,0,1,.6.4c.1.1.2.2.3.2a.25.25,0,0,0,.4,0,1.24,1.24,0,0,0,.3.2c.1.1.4.5.9,1.1.2.3.4.6.7,1s.4.7.5.9a5,5,0,0,1,.3,1.2,17.66,17.66,0,0,0,.4,2c.1.8.3,1.6.4,2.6s.2,1.9.3,2.8c0,.4.1.9.1,1.7s.1,1.6.1,2.5.1,1.8.1,2.6.1,1.5.1,2v2.9c0,1.5-.1,3.1-.1,4.9,0,1.4-.1,2.6-.1,3.5s-.1,1.6-.1,2.2-.1,1.1-.2,1.5-.2.8-.3,1.3c-.2.7-.5,1.4-.8,2.2s-.6,1.5-.9,2.2a8.25,8.25,0,0,1-1,2c-.2.2-.3.3-.4.3l-.1.1a.37.37,0,0,0-.1.3l-.3.6c-.1.2-.2.3-.4.3a.1.1,0,0,0-.1.1c0,.2-.1.4-.4.7a9.23,9.23,0,0,1-.8.5,4.38,4.38,0,0,1-1.9.7c-.4,0-.7,0-.7.1a1.23,1.23,0,0,1-.8.5,3.22,3.22,0,0,1-.8.1h-.6a7.92,7.92,0,0,1-2.9-.6,6.64,6.64,0,0,1-2.5-1.5,11.45,11.45,0,0,1-2.9-4.8A25.42,25.42,0,0,1,220,37.4Zm11.8-32a.1.1,0,0,1-.1.1.76.76,0,0,1-.4-.1c-.2,0-.3-.1-.4-.1a.9.9,0,0,0-.5-.1,4.12,4.12,0,0,0-1.5.4,6.11,6.11,0,0,0-1.4.7,2.36,2.36,0,0,0-.9.8,3.88,3.88,0,0,0-.6,1.1,6,6,0,0,0-.5,1.6,54.1,54.1,0,0,0-1.2,5.5,50.28,50.28,0,0,0-.7,5.9c-.2,2.1-.2,4.4-.2,6.9s.1,5.3.3,8.4a21.93,21.93,0,0,0,.2,2.9c.1.8.2,1.4.3,2a7.49,7.49,0,0,0,.4,1.6,10.09,10.09,0,0,0,.7,1.5c1,2.3,2.1,3.5,3.2,3.6a1.85,1.85,0,0,1,.7.2c.2.1.4.1.5.2a.1.1,0,0,0,.1.1h.7a4.87,4.87,0,0,0,1.2-.1c.4-.1.7-.1.7-.2s.3-.4.6-.8a8.72,8.72,0,0,0,.9-1.7c.3-.7.6-1.4.9-2.2s.5-1.5.8-2.2.3-1.3.5-1.9.3-1.3.4-1.9a10.4,10.4,0,0,0,.2-1.5v-.8a.44.44,0,0,1-.1-.3V26.9a27.15,27.15,0,0,0-.1-2.9c0-.9-.1-1.9-.1-2.9s-.1-2.1-.2-3.5a58.89,58.89,0,0,0-.8-7.3A8.16,8.16,0,0,0,234.2,7c0-.1-.2-.2-.4-.4a4.23,4.23,0,0,0-.7-.5,5.73,5.73,0,0,0-.7-.4A3.33,3.33,0,0,1,231.8,5.4Z"/><path class="cls-1" d="M244.2,37.4c0-.6-.1-1.2-.1-1.7s-.1-.8-.1-1-.1-.9-.1-2V25.1c0-1.3.1-2.4.1-3.2a23.2,23.2,0,0,1,.2-2.4c.1-.9.2-1.7.3-2.6l.3-2.4c.1-.7.2-1.3.3-1.7a2,2,0,0,0,.2-.9c0-.4.1-.8.1-1.1l.3-1.2a4.65,4.65,0,0,1,.3-.9,2.82,2.82,0,0,0,.4-1.1,4.88,4.88,0,0,1,.6-1.3c.3-.5.7-.9,1-1.4a5,5,0,0,1,1.1-1,1.86,1.86,0,0,1,1.1-.4h.1l.1-.1c.1-.2.2-.3.4-.3A.35.35,0,0,1,251,3a.76.76,0,0,1,.4.1v.1a3.71,3.71,0,0,1,1.5-.5,15,15,0,0,1,2-.2c.9,0,1.5.1,1.7.4h.1a.32.32,0,0,1,.3-.3,5.19,5.19,0,0,1,.5.3c0,.1.2.1.3.1h.1c.2-.1.4-.1.5.1v.2h.1a1.42,1.42,0,0,1,.6.2,2.09,2.09,0,0,1,.6.4c.1.1.2.2.3.2a.25.25,0,0,0,.4,0,1.24,1.24,0,0,0,.3.2c.1.1.4.5.9,1.1.2.3.4.6.7,1s.4.7.5.9a5,5,0,0,1,.3,1.2,17.66,17.66,0,0,0,.4,2c.1.8.3,1.6.4,2.6s.2,1.9.3,2.8c0,.4.1.9.1,1.7s.1,1.6.1,2.5.1,1.8.1,2.6.1,1.5.1,2v2.9c0,1.5-.1,3.1-.1,4.9,0,1.4-.1,2.6-.1,3.5s-.1,1.6-.1,2.2-.1,1.1-.2,1.5-.2.8-.3,1.3c-.2.7-.5,1.4-.8,2.2s-.6,1.5-.9,2.2a8.25,8.25,0,0,1-1,2c-.2.2-.3.3-.4.3l-.1.1a.37.37,0,0,0-.1.3l-.3.6c-.1.2-.2.3-.4.3a.1.1,0,0,0-.1.1c0,.2-.1.4-.4.7a9.23,9.23,0,0,1-.8.5,4.38,4.38,0,0,1-1.9.7c-.4,0-.7,0-.7.1a1.23,1.23,0,0,1-.8.5,3.22,3.22,0,0,1-.8.1h-.5a7.92,7.92,0,0,1-2.9-.6,6.64,6.64,0,0,1-2.5-1.5,11.45,11.45,0,0,1-2.9-4.8A29,29,0,0,1,244.2,37.4Zm11.9-32a.1.1,0,0,1-.1.1.76.76,0,0,1-.4-.1c-.2,0-.3-.1-.4-.1a.9.9,0,0,0-.5-.1,4.12,4.12,0,0,0-1.5.4,6.11,6.11,0,0,0-1.4.7,2.36,2.36,0,0,0-.9.8,3.88,3.88,0,0,0-.6,1.1,6,6,0,0,0-.5,1.6,54.1,54.1,0,0,0-1.2,5.5,50.28,50.28,0,0,0-.7,5.9c-.2,2.1-.2,4.4-.2,6.9s.1,5.3.3,8.4a21.93,21.93,0,0,0,.2,2.9c.1.8.2,1.4.3,2a7.49,7.49,0,0,0,.4,1.6,10.09,10.09,0,0,0,.7,1.5c1,2.3,2.1,3.5,3.2,3.6a1.85,1.85,0,0,1,.7.2c.2.1.4.1.5.2a.1.1,0,0,0,.1.1h.7a4.87,4.87,0,0,0,1.2-.1c.4-.1.7-.1.7-.2s.3-.4.6-.8a8.72,8.72,0,0,0,.9-1.7c.3-.7.6-1.4.9-2.2s.5-1.5.8-2.2.3-1.3.5-1.9.3-1.3.4-1.9a10.4,10.4,0,0,0,.2-1.5v-.8a.44.44,0,0,1-.1-.3V26.9a27.15,27.15,0,0,0-.1-2.9c0-.9-.1-1.9-.1-2.9s-.1-2.1-.2-3.5a58.89,58.89,0,0,0-.8-7.3A8.16,8.16,0,0,0,258.5,7c0-.1-.2-.2-.4-.4a4.23,4.23,0,0,0-.7-.5,5.73,5.73,0,0,0-.7-.4A1.63,1.63,0,0,1,256.1,5.4Z"/><path class="cls-1" d="M268.3,8.7c0-.5-.1-1.1-.1-1.8v-2a9.72,9.72,0,0,1,.1-1.8,5.63,5.63,0,0,1,.2-1,1.63,1.63,0,0,1,.6-.3c.3-.1.7-.1,1.1-.2a4.87,4.87,0,0,0,1.2-.1h2.2c.4,0,.9.1,1.3.1,1,.1,1.8.3,2.5.4a10.55,10.55,0,0,1,1.9.5,4.58,4.58,0,0,1,1.4.7c.4.3.9.6,1.4,1a11.49,11.49,0,0,1,3.1,4.2,22.69,22.69,0,0,1,1.4,6.4c.1.4.1.8.2,1.2a5.85,5.85,0,0,0,.2,1.3l.1,1.2c0,.5.1,1.3.1,2.4s0,2.4-.1,3.8-.1,2.9-.2,4.5-.2,3.1-.3,4.6-.2,2.8-.3,4a15.49,15.49,0,0,1-.4,2.8,11.86,11.86,0,0,1-1.7,4.4,14.66,14.66,0,0,1-3.6,4,7.78,7.78,0,0,1-4.4,2,1.17,1.17,0,0,0-.7.2c-.2.1-.3.1-.3.2a.85.85,0,0,1-.6.2,1.48,1.48,0,0,1-.7-.1,4.33,4.33,0,0,0-.5-.1h-.3q0,.3-.6.3c-.2,0-.3,0-.3-.1a2.09,2.09,0,0,1-1.3-1.3,10.79,10.79,0,0,1-.6-3.3,18,18,0,0,1-.2-2.2c0-.7-.1-1.1-.1-1.4,0-.5-.1-1.1-.1-1.7s-.1-1.1-.1-1.7-.1-1-.1-1.4V37.4c0-.2-.1-.5-.1-.7,0-.4-.1-1-.1-1.9s-.1-1.9-.1-2.9-.1-2-.1-2.9V27.3c0-.2.1-.6.1-1.2a8.08,8.08,0,0,0-.1-1.6c0-.6-.1-1.5-.1-2.7V14.1c-.1-.1-.1-.4-.2-.8s-.1-.8-.1-1.1c0-.5-.1-1.1-.1-1.8A2.62,2.62,0,0,1,268.3,8.7Zm3.4-2.8V8.1c.1,1.1.2,2.2.3,3.2,0,.5.1,1.2.1,2s.1,1.7.1,2.7.1,1.9.1,2.9.1,1.9.1,2.8c0,2,0,4,.1,6.1s.1,4,.2,5.7.1,3.2.2,4.4.1,2,.2,2.4.1,1,.2,2l.3,3a17.63,17.63,0,0,1,.2,1.9c0,.5.1.9.1,1.2s.1.3.2.4h.2a2.24,2.24,0,0,0,1-.3c.4-.2.8-.3,1.2-.5a10.91,10.91,0,0,0,1.1-.6c.3-.2.5-.3.6-.5s.2-.3.4-.4.3-.2.5-.2.2,0,.2-.1a2.88,2.88,0,0,1,.9-1.3c.6-.6,1-1.2,1.3-1.5.1-.1.2-.2.2-.3s.1-.2.2-.2a1.09,1.09,0,0,1,.1-.5c.1-.2.1-.5.2-.7a11.85,11.85,0,0,0,.5-2.7c.1-1.2.3-2.9.5-5q.15-2.55.3-4.5c.1-1.3.2-2.4.2-3.4s.1-1.9.1-2.7a13.42,13.42,0,0,0-.1-2.1c0-.8-.1-1.5-.1-2.3s-.1-1.4-.1-1.8a30.57,30.57,0,0,0-.5-3.6,16.83,16.83,0,0,0-.7-3.3,9.2,9.2,0,0,0-1.4-2.8,6.28,6.28,0,0,0-2.1-1.9,4.05,4.05,0,0,0-1-.3c-.5-.1-1-.2-1.7-.3s-1.2-.2-1.9-.3a10.9,10.9,0,0,0-1.7-.1h-1Z"/><path class="cls-1" d="M318.2,51a1,1,0,0,0-.7-1c-3-1.4-4.2-2-3.8-1.8a28.45,28.45,0,0,1-8.9-5.7,21.3,21.3,0,0,1-5.9-10.6,10.13,10.13,0,0,1,.5-6.3c1.3-2.8,3.8-4.5,7.3-5.1,5.1-.8,8.9,1.2,11.4,5.7,0,.1.2.4.5,1.1.2,0,.4-.2.6-.7a13.31,13.31,0,0,1,6.1-6.9c4.4-2.4,7.8-1.3,10.4,3.1a11.49,11.49,0,0,1,.8,10.1,26,26,0,0,1-5.7,8.8,69.79,69.79,0,0,1-8.3,7.7,2.07,2.07,0,0,0-.9,1.4q0,.75-.6.6l-2.3.3-.3-.1A1.42,1.42,0,0,1,318.2,51Zm.4-17.5c-.4.4-.8.5-1.1.3q-.9-.45-.6-1.2a4.7,4.7,0,0,0-.2-2.8,10.1,10.1,0,0,0-3.6-5.3,7.77,7.77,0,0,0-6.5-1.1,5.47,5.47,0,0,0-4.6,4.1,9.94,9.94,0,0,0,.4,5.6,19.8,19.8,0,0,0,9.2,10.8,33.35,33.35,0,0,0,3.5,1.8,24.36,24.36,0,0,1,3.4,1.9,1.31,1.31,0,0,0,1.8-.3,44,44,0,0,1,3.8-3.9,57.72,57.72,0,0,0,6.5-6.9,14.38,14.38,0,0,0,3-5.9,9.14,9.14,0,0,0-1.1-6.7c-1.3-2.1-3.1-2.7-5.5-1.6a10.57,10.57,0,0,0-2.6,1.7,10.9,10.9,0,0,0-3.2,6.1,1.9,1.9,0,0,0,.5,2q.6.45.3.9a1.25,1.25,0,0,1-.9.5,9.14,9.14,0,0,0-1.8-.5C318.9,33.3,318.7,33.5,318.6,33.5Z"/></g></g></svg>