<svg xmlns="http://www.w3.org/2000/svg" viewBox="0 0 43.79 34.26"><defs><style>.cls-1{fill:#45bc95;}.cls-2{fill:#fff;}.cls-3{fill:#d7d3c7;}.cls-4{fill:#f06b5a;}.cls-5{fill:#111112;}.cls-6{fill:#fdd55b;}</style></defs><title>Matrketing</title><g id="Layer_2" data-name="Layer 2"><g id="Layer_1-2" data-name="Layer 1"><rect class="cls-1" x="10.16" width="33.03" height="34.26"/><polygon class="cls-2" points="11.37 14.02 24.73 8.01 24.73 29.57 11.37 23.56 11.37 14.02"/><path class="cls-3" d="M10.78,24,6,26.62a.91.91,0,0,1-1.26-.42L3.5,23.71Z"/><polygon class="cls-4" points="22.17 28.41 24.73 29.57 24.73 8.01 22.17 9.16 22.17 28.41"/><path class="cls-2" d="M24.72,14.51a4.28,4.28,0,0,1,0,8.56Z"/><path class="cls-4" d="M11.69,23.75H5a4.87,4.87,0,0,1-4.76-5h0a4.87,4.87,0,0,1,4.76-5h6.7Z"/><path class="cls-5" d="M11.92,24H5a5.1,5.1,0,0,1-5-5.2,5.1,5.1,0,0,1,5-5.2h6.93ZM5,14.05A4.64,4.64,0,0,0,.47,18.79,4.64,4.64,0,0,0,5,23.52h6.47V14.05Z"/><polygon class="cls-5" points="24.97 29.93 11.27 23.77 11.46 23.34 24.5 29.21 24.5 8.37 11.46 14.23 11.27 13.81 24.97 7.65 24.97 29.93"/><path class="cls-5" d="M24.72,23.3v-.47a4,4,0,0,0,0-8.09v-.47a4.51,4.51,0,0,1,0,9Z"/><path class="cls-3" d="M5.63,26.69A14.38,14.38,0,0,0,7,31a6.12,6.12,0,0,0,2.78,2.72A2.43,2.43,0,0,0,13,32.33a2.89,2.89,0,0,0,.18-1.83,3.63,3.63,0,0,0-.74-1.36A7.81,7.81,0,0,1,11.58,28a9,9,0,0,1-.69-4.22Z"/><path class="cls-5" d="M5.55,27a1.12,1.12,0,0,1-.35-.05,1.16,1.16,0,0,1-.69-.61L3.08,23.52l.41-.21,1.43,2.78a.71.71,0,0,0,.42.37.66.66,0,0,0,.52,0l4.81-2.63.22.41L6.09,26.82A1.13,1.13,0,0,1,5.55,27Z"/><path class="cls-5" d="M10.69,34.14a2.4,2.4,0,0,1-1.05-.24,6.33,6.33,0,0,1-2.88-2.82A14.44,14.44,0,0,1,5.4,26.72l.46-.06a14.25,14.25,0,0,0,1.3,4.19,5.9,5.9,0,0,0,2.68,2.63,2,2,0,0,0,1.55.07,2.45,2.45,0,0,0,1.37-1.31,2.65,2.65,0,0,0,.17-1.68,3.44,3.44,0,0,0-.7-1.27l-.14-.19a6.43,6.43,0,0,1-.7-1,9.3,9.3,0,0,1-.71-4.33l.47,0a8.84,8.84,0,0,0,.66,4.11,6,6,0,0,0,.65.94l.15.19a3.88,3.88,0,0,1,.79,1.45,3.12,3.12,0,0,1-.2,2A2.91,2.91,0,0,1,11.54,34,2.51,2.51,0,0,1,10.69,34.14Z"/><path class="cls-2" d="M34.89,1.86a4.87,4.87,0,0,0-3.8,7.91l-1.57,1.51a3.73,3.73,0,0,0,3.22-.18,4.87,4.87,0,1,0,2.16-9.23Z"/><path class="cls-2" d="M40.72,14.59a4.87,4.87,0,0,0-8.21,3.1H30.33a3.73,3.73,0,0,0,2.46,2.09,4.87,4.87,0,1,0,7.93-5.19Z"/><path class="cls-2" d="M37.73,29.94a4.87,4.87,0,0,0-7.17-5.06l-1.23-1.8A3.73,3.73,0,0,0,29,26.28a4.87,4.87,0,1,0,8.75,3.66Z"/><circle class="cls-3" cx="27.17" cy="3.54" r="1.8"/><circle class="cls-3" cx="41.88" cy="27.25" r="1.9"/><rect class="cls-5" x="4.96" y="16.45" width="3.8" height="0.47"/><rect class="cls-5" x="4.96" y="18.56" width="3.8" height="0.47"/><rect class="cls-5" x="4.96" y="20.66" width="3.8" height="0.47"/><rect class="cls-5" x="40.68" y="11.61" width="1.6" height="0.47"/><rect class="cls-5" x="39.38" y="1.8" width="2.4" height="0.47"/><rect class="cls-5" x="26" y="11.45" width="2.7" height="0.47"/><rect class="cls-5" x="30.24" y="21.05" width="1.8" height="0.47"/><circle class="cls-1" cx="6.86" cy="5.14" r="1.7"/><path class="cls-5" d="M13.51,10.67A1.08,1.08,0,1,1,14.6,9.59,1.08,1.08,0,0,1,13.51,10.67Zm0-1.7a.62.62,0,1,0,.62.62A.62.62,0,0,0,13.51,9Z"/><path class="cls-5" d="M15.86,29.69a1.23,1.23,0,1,1,1.23-1.23A1.23,1.23,0,0,1,15.86,29.69Zm0-2a.77.77,0,1,0,.77.77A.77.77,0,0,0,15.86,27.69Z"/><rect class="cls-5" x="32.31" y="5.84" width="5.59" height="0.47"/><rect class="cls-5" x="32.31" y="7.46" width="5.59" height="0.47"/><rect class="cls-5" x="34.66" y="17.19" width="5.6" height="0.47"/><rect class="cls-5" x="34.66" y="18.81" width="5.6" height="0.47"/><rect class="cls-5" x="30.45" y="28.3" width="5.59" height="0.47"/><rect class="cls-5" x="30.45" y="29.92" width="5.59" height="0.47"/><rect class="cls-2" x="14.88" y="3.74" width="3.85" height="0.47"/><rect class="cls-2" x="16.57" y="2.05" width="0.47" height="3.85"/><rect class="cls-2" x="38.84" y="31.72" width="2.88" height="0.47"/><rect class="cls-2" x="40.04" y="30.51" width="0.47" height="2.87"/><circle class="cls-6" cx="20.29" cy="31.88" r="1.52"/></g></g></svg>