<svg xmlns="http://www.w3.org/2000/svg" viewBox="0 0 41.79 35.47"><defs><style>.cls-1{fill:#fdd55b;}.cls-2{fill:#f06b5a;}.cls-3{fill:#111112;}.cls-4{fill:#fff;}.cls-5{fill:#468ecc;}.cls-6{fill:#e4e5ed;}</style></defs><title>Reports</title><g id="Layer_2" data-name="Layer 2"><g id="Layer_1-2" data-name="Layer 1"><rect class="cls-1" x="16.24" width="25.55" height="24.33"/><path class="cls-2" d="M21.43,20.68,12.34,28.9a12.25,12.25,0,0,0,21.27-9.5Z"/><path class="cls-3" d="M21.44,33.14h0A12.47,12.47,0,0,1,12.19,29l-.14-.15,9.29-8.4,12.45-1.32,0,.2A12.46,12.46,0,0,1,21.44,33.14Zm-8.81-4.22a12.07,12.07,0,0,0,8.81,3.82h0a12.05,12.05,0,0,0,12-13.11L21.51,20.88Z"/><path class="cls-4" d="M8.58,26.83a12.29,12.29,0,0,0,1.34,1.79l9.1-8.2L16,8.56A12.26,12.26,0,0,0,8.58,26.83Z"/><path class="cls-3" d="M9.9,28.91l-.14-.15a12.51,12.51,0,0,1-1.36-1.82A12.46,12.46,0,0,1,15.92,8.36l.2-.05,3.14,12.18-.09.08ZM15.82,8.81A12.06,12.06,0,0,0,9.94,28.34l8.86-8Z"/><path class="cls-5" d="M22.27,3.76a12.24,12.24,0,0,0-5.69.08l3,11.87Z"/><path class="cls-3" d="M19.62,16.6,16.33,3.7l.2-.05a12.51,12.51,0,0,1,5.78-.08l.2,0ZM16.83,4l2.76,10.85L22,3.92A12.1,12.1,0,0,0,16.83,4Z"/><path class="cls-4" d="M34.19,17.42A12.26,12.26,0,0,0,24.65,6.73L22,18.69Z"/><path class="cls-3" d="M21.75,18.92,24.49,6.48l.2,0a12.46,12.46,0,0,1,9.71,10.87l0,.2ZM24.8,7,22.27,18.46,34,17.23A12.06,12.06,0,0,0,24.8,7Z"/><path class="cls-3" d="M3.22,16.09H0V12.87H3.22ZM.41,15.69H2.82V13.28H.41Z"/><rect class="cls-2" x="35.07" y="28.07" width="2.82" height="2.82"/><path class="cls-3" d="M38.09,31.08H34.87V27.86h3.22Zm-2.82-.41h2.41V28.27H35.27Z"/><rect class="cls-4" x="36.15" y="9.85" width="2.82" height="2.82"/><path class="cls-3" d="M39.16,12.87H35.94V9.64h3.22Zm-2.82-.41h2.41V10H36.35Z"/><rect class="cls-5" x="8.65" y="3.47" width="2.82" height="2.82"/><path class="cls-3" d="M11.67,6.49H8.45V3.27h3.22ZM8.85,6.08h2.41V3.67H8.85Z"/><rect class="cls-3" x="2.94" y="14.61" width="10.02" height="0.41"/><rect class="cls-3" x="11.63" y="4.51" width="7.04" height="0.41"/><rect class="cls-3" x="27.45" y="11.05" width="8.61" height="0.41"/><rect class="cls-3" x="22.73" y="29.1" width="12.5" height="0.41"/><rect class="cls-3" x="29.44" y="4.83" width="3.91" height="0.41"/><rect class="cls-3" x="31.19" y="3.08" width="0.41" height="3.91"/><rect class="cls-3" x="16.6" y="35.07" width="11.43" height="0.41"/><circle class="cls-6" cx="25.81" cy="2.25" r="1.1"/><circle class="cls-6" cx="38.42" cy="20.82" r="2.11"/><path class="cls-1" d="M3.25,33.83l2-1.94a6.28,6.28,0,1,1,2.11,1.7A4.79,4.79,0,0,1,3.25,33.83Z"/><rect class="cls-4" x="11.74" y="23.64" width="1.32" height="6.94" transform="translate(24.8 54.22) rotate(180)"/><rect class="cls-4" x="9.31" y="26.9" width="1.32" height="3.68" transform="translate(19.95 57.48) rotate(180)"/><rect class="cls-4" x="6.89" y="27.84" width="1.32" height="2.74" transform="translate(15.09 58.42) rotate(180)"/><rect class="cls-4" x="5.79" y="30.35" width="8.38" height="0.41"/><rect class="cls-3" x="1.92" y="22.45" width="2.75" height="0.41"/><rect class="cls-3" x="3.09" y="21.28" width="0.41" height="2.75"/><rect class="cls-3" x="25.77" y="33.53" width="6.41" height="0.41"/><rect class="cls-3" x="14.12" y="1.21" width="4.8" height="0.41"/></g></g></svg>