<svg xmlns="http://www.w3.org/2000/svg" viewBox="0 0 73.9 90.96"><defs><style>.cls-1{fill:#ccc;}.cls-2{fill:#19bae0;}.cls-3{fill:#fff;}.cls-4{fill:#e85a48;}.cls-5{fill:#a46c8a;}.cls-6{fill:#fbb03b;}.cls-7{fill:#18aa9d;}.cls-8{fill:#31343d;}.cls-9{fill:#074e70;}</style></defs><title>report</title><g id="Layer_2" data-name="Layer 2"><g id="Слой_1" data-name="Слой 1"><rect class="cls-1" x="0.84" y="24.48" width="63.94" height="48.73" transform="translate(-18 78.52) rotate(-86.4)"/><rect class="cls-2" x="2.53" y="24.58" width="63.94" height="48.73" transform="translate(-16.52 80.3) rotate(-86.4)"/><path class="cls-3" d="M13.42,17.19a.62.62,0,0,1-.65.58l-1.93-.12a.62.62,0,0,1-.58-.65h0a.62.62,0,0,1,.65-.58l1.93.12a.61.61,0,0,1,.58.65Z"/><path class="cls-3" d="M13.26,19.71a.62.62,0,0,1-.65.58l-1.93-.12a.62.62,0,0,1-.58-.65h0a.62.62,0,0,1,.65-.58l1.93.12a.61.61,0,0,1,.58.65Z"/><path class="cls-3" d="M13.1,22.22a.62.62,0,0,1-.65.58l-1.93-.12A.62.62,0,0,1,9.94,22h0a.61.61,0,0,1,.65-.58l1.93.12a.62.62,0,0,1,.58.65Z"/><path class="cls-3" d="M12.95,24.73a.61.61,0,0,1-.65.58l-1.93-.12a.62.62,0,0,1-.58-.65h0a.61.61,0,0,1,.65-.58l1.93.12a.62.62,0,0,1,.58.65Z"/><path class="cls-3" d="M12.79,27.25a.62.62,0,0,1-.65.58L10.2,27.7A.61.61,0,0,1,9.62,27h0a.62.62,0,0,1,.65-.58l1.93.12a.62.62,0,0,1,.58.65Z"/><path class="cls-3" d="M12.63,29.76a.61.61,0,0,1-.65.58L10,30.21a.62.62,0,0,1-.58-.65h0a.61.61,0,0,1,.65-.58l1.93.12a.62.62,0,0,1,.58.65Z"/><path class="cls-3" d="M12.47,32.27a.62.62,0,0,1-.65.58l-1.93-.12a.62.62,0,0,1-.58-.65h0A.62.62,0,0,1,10,31.5l1.93.12a.62.62,0,0,1,.58.65Z"/><path class="cls-3" d="M12.31,34.78a.61.61,0,0,1-.65.58l-1.93-.12a.61.61,0,0,1-.58-.65h0A.62.62,0,0,1,9.8,34l1.93.12a.62.62,0,0,1,.58.65Z"/><path class="cls-3" d="M12.15,37.3a.61.61,0,0,1-.65.58l-1.93-.12A.62.62,0,0,1,9,37.1H9a.62.62,0,0,1,.65-.58l1.93.12a.61.61,0,0,1,.58.65Z"/><path class="cls-3" d="M12,39.81a.61.61,0,0,1-.65.58l-1.93-.12a.62.62,0,0,1-.58-.65h0A.62.62,0,0,1,9.49,39l1.93.12a.61.61,0,0,1,.58.65Z"/><path class="cls-3" d="M11.84,42.32a.62.62,0,0,1-.65.58l-1.93-.12a.62.62,0,0,1-.58-.65h0a.62.62,0,0,1,.65-.58l1.93.12a.62.62,0,0,1,.58.65Z"/><path class="cls-3" d="M11.68,44.83a.62.62,0,0,1-.65.58l-1.93-.12a.62.62,0,0,1-.58-.65h0a.62.62,0,0,1,.65-.58l1.93.12a.62.62,0,0,1,.58.65Z"/><path class="cls-3" d="M11.52,47.35a.62.62,0,0,1-.65.58L8.94,47.8a.61.61,0,0,1-.58-.65h0A.62.62,0,0,1,9,46.57l1.93.12a.62.62,0,0,1,.58.65Z"/><path class="cls-3" d="M11.37,49.86a.62.62,0,0,1-.65.58l-1.93-.12a.62.62,0,0,1-.58-.65h0a.62.62,0,0,1,.65-.58l1.93.12a.62.62,0,0,1,.58.65Z"/><path class="cls-3" d="M11.21,52.37a.62.62,0,0,1-.65.58l-1.93-.12A.61.61,0,0,1,8,52.17H8a.61.61,0,0,1,.65-.58l1.93.12a.62.62,0,0,1,.58.65Z"/><path class="cls-3" d="M11,54.88a.62.62,0,0,1-.65.58l-1.93-.12a.62.62,0,0,1-.58-.65h0a.62.62,0,0,1,.65-.58l1.93.12a.62.62,0,0,1,.58.65Z"/><path class="cls-3" d="M10.89,57.4a.62.62,0,0,1-.65.58L8.3,57.85a.62.62,0,0,1-.58-.65h0a.61.61,0,0,1,.65-.58l1.93.12a.62.62,0,0,1,.58.65Z"/><path class="cls-3" d="M10.73,59.91a.62.62,0,0,1-.65.58l-1.93-.12a.61.61,0,0,1-.58-.65h0a.61.61,0,0,1,.65-.58l1.93.12a.61.61,0,0,1,.58.65Z"/><path class="cls-3" d="M10.57,62.42a.62.62,0,0,1-.65.58L8,62.88a.61.61,0,0,1-.58-.65h0a.61.61,0,0,1,.65-.58l1.93.12a.62.62,0,0,1,.58.65Z"/><path class="cls-3" d="M10.42,64.94a.62.62,0,0,1-.65.58l-1.93-.12a.62.62,0,0,1-.58-.65h0a.62.62,0,0,1,.65-.57l1.93.12a.62.62,0,0,1,.58.65Z"/><path class="cls-3" d="M10.26,67.45A.62.62,0,0,1,9.6,68L7.67,67.9a.62.62,0,0,1-.58-.65h0a.61.61,0,0,1,.65-.58l1.93.12a.62.62,0,0,1,.58.65Z"/><path class="cls-3" d="M10.1,70a.62.62,0,0,1-.65.58l-1.93-.12a.62.62,0,0,1-.58-.65h0a.61.61,0,0,1,.65-.58l1.93.12a.62.62,0,0,1,.58.65Z"/><path class="cls-3" d="M9.94,72.47a.61.61,0,0,1-.65.58l-1.93-.12a.62.62,0,0,1-.58-.65h0a.62.62,0,0,1,.65-.58l1.93.12a.62.62,0,0,1,.58.65Z"/><path class="cls-3" d="M9.78,75a.61.61,0,0,1-.65.58L7.2,75.44a.62.62,0,0,1-.58-.65h0a.62.62,0,0,1,.65-.58l1.93.12a.62.62,0,0,1,.58.65Z"/><path class="cls-3" d="M9.62,77.5a.61.61,0,0,1-.65.58L7,78a.62.62,0,0,1-.58-.65h0a.62.62,0,0,1,.65-.58L9,76.85a.62.62,0,0,1,.58.65Z"/><rect class="cls-3" x="36.3" y="1.11" width="1.23" height="40.17" transform="matrix(0.06, -1, 1, 0.06, 13.45, 56.71)"/><rect class="cls-3" x="32.86" y="55.78" width="1.23" height="40.17" transform="translate(-44.33 104.51) rotate(-86.4)"/><rect class="cls-3" x="36.11" y="14.75" width="1.23" height="19.15" transform="matrix(0.06, -1, 1, 0.06, 10.14, 59.45)"/><path class="cls-4" d="M35.27,36.67A13.2,13.2,0,0,0,25.68,40l8.76,9.93,9.93-8.76A13.19,13.19,0,0,0,35.27,36.67Z"/><path class="cls-2" d="M44.37,41.13l-9.93,8.76,8.76,9.93a13.24,13.24,0,0,0,1.17-18.69Z"/><path class="cls-5" d="M33.6,63.1a13.2,13.2,0,0,0,9.59-3.28l-8.76-9.93Z"/><path class="cls-6" d="M24.5,58.65a13.2,13.2,0,0,0,9.1,4.46l.83-13.22Z"/><path class="cls-7" d="M25.68,40A13.24,13.24,0,0,0,24.5,58.65l9.93-8.76Z"/><rect class="cls-1" x="11.15" y="11.06" width="63.94" height="48.73" transform="translate(1.32 72.39) rotate(-80.9)"/><rect class="cls-8" x="12.82" y="11.32" width="63.94" height="48.73" transform="translate(2.47 74.26) rotate(-80.9)"/><path class="cls-3" d="M26.85,2.06a.62.62,0,0,1-.71.51l-1.91-.31a.62.62,0,0,1-.51-.71h0A.61.61,0,0,1,24.42,1l1.91.31a.61.61,0,0,1,.51.7Z"/><path class="cls-3" d="M26.45,4.54a.61.61,0,0,1-.71.51l-1.91-.31A.62.62,0,0,1,23.32,4h0A.62.62,0,0,1,24,3.53l1.91.31a.61.61,0,0,1,.51.71Z"/><path class="cls-3" d="M26.05,7a.61.61,0,0,1-.71.51l-1.91-.31a.62.62,0,0,1-.51-.71h0A.62.62,0,0,1,23.63,6l1.91.31a.62.62,0,0,1,.51.71Z"/><path class="cls-3" d="M25.65,9.52a.61.61,0,0,1-.7.51L23,9.72A.61.61,0,0,1,22.53,9h0a.61.61,0,0,1,.71-.51l1.91.31a.61.61,0,0,1,.51.71Z"/><path class="cls-3" d="M25.26,12a.62.62,0,0,1-.71.51l-1.91-.31a.62.62,0,0,1-.51-.71h0a.62.62,0,0,1,.71-.51l1.91.31a.62.62,0,0,1,.51.71Z"/><path class="cls-3" d="M24.86,14.49a.62.62,0,0,1-.71.51l-1.91-.31a.62.62,0,0,1-.51-.71h0a.61.61,0,0,1,.71-.51l1.91.31a.62.62,0,0,1,.51.7Z"/><path class="cls-3" d="M24.46,17a.61.61,0,0,1-.71.51l-1.91-.31a.61.61,0,0,1-.51-.71h0A.61.61,0,0,1,22,16l1.91.31a.61.61,0,0,1,.51.7Z"/><path class="cls-3" d="M24.06,19.46a.62.62,0,0,1-.71.51l-1.91-.31a.61.61,0,0,1-.51-.71h0a.62.62,0,0,1,.71-.51l1.91.31a.62.62,0,0,1,.51.7Z"/><path class="cls-3" d="M23.66,21.95a.61.61,0,0,1-.71.51L21,22.15a.62.62,0,0,1-.51-.71h0a.62.62,0,0,1,.71-.51l1.91.31a.61.61,0,0,1,.51.71Z"/><path class="cls-3" d="M23.27,24.43a.62.62,0,0,1-.71.51l-1.91-.31a.62.62,0,0,1-.51-.71h0a.61.61,0,0,1,.71-.51l1.91.31a.62.62,0,0,1,.51.7Z"/><path class="cls-3" d="M22.87,26.92a.62.62,0,0,1-.71.51l-1.91-.31a.61.61,0,0,1-.51-.71h0a.61.61,0,0,1,.71-.51l1.91.31a.62.62,0,0,1,.51.71Z"/><path class="cls-3" d="M22.47,29.4a.61.61,0,0,1-.7.51l-1.91-.31a.61.61,0,0,1-.51-.71h0a.61.61,0,0,1,.71-.51L22,28.7a.61.61,0,0,1,.51.7Z"/><path class="cls-3" d="M22.07,31.89a.61.61,0,0,1-.71.51l-1.91-.31a.62.62,0,0,1-.51-.71h0a.62.62,0,0,1,.71-.51l1.91.31a.62.62,0,0,1,.51.71Z"/><path class="cls-3" d="M21.67,34.38a.62.62,0,0,1-.71.51l-1.91-.31a.62.62,0,0,1-.51-.71h0a.62.62,0,0,1,.7-.51l1.91.31a.62.62,0,0,1,.51.71Z"/><path class="cls-3" d="M21.28,36.86a.62.62,0,0,1-.71.51l-1.91-.31a.61.61,0,0,1-.51-.71h0a.61.61,0,0,1,.71-.51l1.91.31a.62.62,0,0,1,.51.7Z"/><path class="cls-3" d="M20.88,39.35a.62.62,0,0,1-.71.51l-1.91-.31a.62.62,0,0,1-.51-.71h0a.62.62,0,0,1,.71-.51l1.91.31a.62.62,0,0,1,.51.71Z"/><path class="cls-3" d="M20.48,41.83a.61.61,0,0,1-.71.51L17.86,42a.61.61,0,0,1-.51-.7h0a.62.62,0,0,1,.71-.51l1.91.31a.62.62,0,0,1,.51.71Z"/><path class="cls-3" d="M20.08,44.32a.61.61,0,0,1-.71.51l-1.91-.31a.61.61,0,0,1-.51-.71h0a.61.61,0,0,1,.7-.51l1.91.31a.62.62,0,0,1,.51.71Z"/><path class="cls-3" d="M19.68,46.81a.62.62,0,0,1-.7.51L17.06,47a.62.62,0,0,1-.51-.71h0a.62.62,0,0,1,.71-.51l1.91.31a.61.61,0,0,1,.51.71Z"/><path class="cls-3" d="M19.29,49.29a.62.62,0,0,1-.71.51l-1.91-.31a.61.61,0,0,1-.51-.71h0a.61.61,0,0,1,.71-.51l1.91.31a.62.62,0,0,1,.51.7Z"/><path class="cls-3" d="M18.89,51.78a.62.62,0,0,1-.71.51L16.27,52a.62.62,0,0,1-.51-.71h0a.62.62,0,0,1,.71-.51l1.91.31a.62.62,0,0,1,.51.71Z"/><path class="cls-3" d="M18.49,54.26a.62.62,0,0,1-.71.51l-1.91-.31a.62.62,0,0,1-.51-.71h0a.61.61,0,0,1,.7-.51l1.91.3a.62.62,0,0,1,.51.71Z"/><path class="cls-3" d="M18.09,56.75a.61.61,0,0,1-.7.51L15.47,57a.62.62,0,0,1-.51-.71h0a.62.62,0,0,1,.71-.51l1.91.31a.61.61,0,0,1,.51.71Z"/><path class="cls-3" d="M17.69,59.24a.62.62,0,0,1-.71.51l-1.91-.31a.62.62,0,0,1-.51-.71h0a.62.62,0,0,1,.71-.51l1.91.31a.62.62,0,0,1,.51.71Z"/><path class="cls-3" d="M17.29,61.72a.61.61,0,0,1-.71.51l-1.91-.31a.62.62,0,0,1-.51-.7h0a.62.62,0,0,1,.71-.51l1.91.31a.61.61,0,0,1,.51.7Z"/><rect class="cls-3" x="49.24" y="-11.79" width="1.23" height="40.17" transform="translate(33.78 56.21) rotate(-80.9)"/><rect class="cls-3" x="40.58" y="42.29" width="1.23" height="40.17" transform="translate(-26.91 93.19) rotate(-80.9)"/><rect class="cls-3" x="48.74" y="1.81" width="1.23" height="19.15" transform="translate(30.31 58.33) rotate(-80.9)"/><path class="cls-4" d="M46.73,23.54a13.2,13.2,0,0,0-9.86,2.35l7.77,10.73,10.72-7.77A13.19,13.19,0,0,0,46.73,23.54Z"/><path class="cls-2" d="M55.36,28.85,44.63,36.62,52.4,47.34a13.24,13.24,0,0,0,3-18.49Z"/><path class="cls-5" d="M42.54,49.69a13.2,13.2,0,0,0,9.86-2.35L44.63,36.62Z"/><path class="cls-6" d="M33.91,44.38a13.19,13.19,0,0,0,8.63,5.31l2.09-13.07Z"/><path class="cls-7" d="M36.87,25.89a13.24,13.24,0,0,0-3,18.49l10.72-7.77Z"/><rect class="cls-1" x="11.37" y="19.66" width="48.73" height="63.94" transform="translate(-18.7 20.34) rotate(-25.42)"/><rect class="cls-9" x="12.89" y="18.93" width="48.73" height="63.94" transform="translate(-18.24 20.92) rotate(-25.42)"/><path class="cls-3" d="M3.42,33.36a.61.61,0,0,1-.29.82L1.38,35a.62.62,0,0,1-.82-.29h0a.62.62,0,0,1,.29-.82l1.75-.83a.61.61,0,0,1,.82.29Z"/><path class="cls-3" d="M4.5,35.63a.62.62,0,0,1-.29.82l-1.75.83A.62.62,0,0,1,1.64,37h0a.62.62,0,0,1,.29-.82l1.75-.83a.62.62,0,0,1,.82.29Z"/><path class="cls-3" d="M5.58,37.91a.61.61,0,0,1-.29.82l-1.75.83a.62.62,0,0,1-.82-.29h0A.62.62,0,0,1,3,38.45l1.75-.83a.62.62,0,0,1,.82.29Z"/><path class="cls-3" d="M6.66,40.18a.62.62,0,0,1-.29.82l-1.75.83a.62.62,0,0,1-.82-.29h0a.62.62,0,0,1,.29-.82l1.75-.83a.62.62,0,0,1,.82.29Z"/><path class="cls-3" d="M7.74,42.45a.62.62,0,0,1-.29.82l-1.75.83a.62.62,0,0,1-.82-.29h0A.62.62,0,0,1,5.17,43l1.75-.83a.61.61,0,0,1,.82.29Z"/><path class="cls-3" d="M8.83,44.73a.62.62,0,0,1-.29.82l-1.75.83A.62.62,0,0,1,6,46.09H6a.62.62,0,0,1,.29-.82L8,44.44a.62.62,0,0,1,.82.29Z"/><path class="cls-3" d="M9.91,47a.62.62,0,0,1-.29.82l-1.75.83A.61.61,0,0,1,7,48.36H7a.61.61,0,0,1,.29-.82l1.75-.83a.62.62,0,0,1,.82.29Z"/><path class="cls-3" d="M11,49.28a.62.62,0,0,1-.29.82l-1.75.83a.62.62,0,0,1-.82-.29h0a.62.62,0,0,1,.29-.82L10.17,49a.61.61,0,0,1,.82.29Z"/><path class="cls-3" d="M12.07,51.55a.61.61,0,0,1-.29.82L10,53.2a.62.62,0,0,1-.82-.29h0a.62.62,0,0,1,.29-.82l1.75-.83a.62.62,0,0,1,.82.29Z"/><path class="cls-3" d="M13.15,53.82a.62.62,0,0,1-.29.82l-1.75.83a.61.61,0,0,1-.82-.29h0a.62.62,0,0,1,.29-.82l1.75-.83a.62.62,0,0,1,.82.29Z"/><path class="cls-3" d="M14.23,56.1a.62.62,0,0,1-.29.82l-1.75.83a.62.62,0,0,1-.82-.29h0a.61.61,0,0,1,.29-.82l1.75-.83a.62.62,0,0,1,.82.29Z"/><path class="cls-3" d="M15.31,58.37a.62.62,0,0,1-.29.82L13.27,60a.62.62,0,0,1-.82-.29h0a.62.62,0,0,1,.29-.82l1.75-.83a.62.62,0,0,1,.82.29Z"/><path class="cls-3" d="M16.39,60.64a.62.62,0,0,1-.29.82l-1.75.83a.61.61,0,0,1-.82-.29h0a.62.62,0,0,1,.29-.82l1.75-.83a.62.62,0,0,1,.82.29Z"/><path class="cls-3" d="M17.47,62.92a.62.62,0,0,1-.29.82l-1.75.83a.62.62,0,0,1-.82-.29h0a.61.61,0,0,1,.29-.82l1.75-.83a.62.62,0,0,1,.82.29Z"/><path class="cls-3" d="M18.55,65.19a.62.62,0,0,1-.29.82l-1.75.83a.61.61,0,0,1-.82-.29h0a.62.62,0,0,1,.29-.82l1.75-.83a.62.62,0,0,1,.82.29Z"/><path class="cls-3" d="M19.63,67.47a.62.62,0,0,1-.29.82l-1.75.83a.62.62,0,0,1-.82-.29h0a.61.61,0,0,1,.29-.82l1.75-.83a.61.61,0,0,1,.82.29Z"/><path class="cls-3" d="M20.71,69.74a.62.62,0,0,1-.29.82l-1.75.83a.62.62,0,0,1-.82-.29h0a.62.62,0,0,1,.29-.82l1.75-.83a.62.62,0,0,1,.82.29Z"/><path class="cls-3" d="M21.79,72a.62.62,0,0,1-.29.82l-1.75.83a.61.61,0,0,1-.82-.29h0a.62.62,0,0,1,.29-.82L21,71.72a.62.62,0,0,1,.82.29Z"/><path class="cls-3" d="M22.87,74.29a.61.61,0,0,1-.29.82l-1.75.83a.61.61,0,0,1-.82-.29h0a.61.61,0,0,1,.29-.82L22.05,74a.61.61,0,0,1,.82.29Z"/><path class="cls-3" d="M24,76.56a.61.61,0,0,1-.29.82l-1.75.83a.62.62,0,0,1-.82-.29h0a.62.62,0,0,1,.29-.82l1.75-.83a.62.62,0,0,1,.82.29Z"/><path class="cls-3" d="M25,78.84a.62.62,0,0,1-.29.82L23,80.49a.61.61,0,0,1-.82-.29h0a.62.62,0,0,1,.29-.82l1.75-.83a.62.62,0,0,1,.82.29Z"/><path class="cls-3" d="M26.12,81.11a.62.62,0,0,1-.29.82l-1.75.83a.62.62,0,0,1-.82-.29h0a.61.61,0,0,1,.29-.82l1.75-.83a.61.61,0,0,1,.82.29Z"/><path class="cls-3" d="M27.2,83.38a.61.61,0,0,1-.29.82L25.16,85a.62.62,0,0,1-.82-.29h0a.62.62,0,0,1,.29-.82l1.75-.83a.61.61,0,0,1,.82.29Z"/><path class="cls-3" d="M28.28,85.66a.62.62,0,0,1-.29.82l-1.75.83a.62.62,0,0,1-.82-.29h0a.61.61,0,0,1,.29-.82l1.75-.83a.61.61,0,0,1,.82.29Z"/><path class="cls-3" d="M29.36,87.93a.62.62,0,0,1-.29.82l-1.75.83a.62.62,0,0,1-.82-.29h0a.61.61,0,0,1,.29-.82l1.75-.83a.62.62,0,0,1,.82.29Z"/><rect class="cls-3" x="5.83" y="24.84" width="40.17" height="1.23" transform="translate(-8.42 13.59) rotate(-25.42)"/><rect class="cls-3" x="29.34" y="74.31" width="40.17" height="1.23" transform="translate(-27.38 28.47) rotate(-25.42)"/><rect class="cls-3" x="17.68" y="27.67" width="19.15" height="1.23" transform="translate(-9.5 14.44) rotate(-25.42)"/><path class="cls-4" d="M32,39.79a13.2,13.2,0,0,0-6.79,7.52l12.48,4.44L42.1,39.28A13.19,13.19,0,0,0,32,39.79Z"/><path class="cls-2" d="M42.1,39.28,37.66,51.75l12.48,4.44a13.24,13.24,0,0,0-8-16.91Z"/><path class="cls-5" d="M43.35,63.71a13.21,13.21,0,0,0,6.79-7.52L37.66,51.75Z"/><path class="cls-6" d="M33.22,64.23a13.21,13.21,0,0,0,10.12-.52l-5.69-12Z"/><path class="cls-7" d="M25.18,47.32a13.24,13.24,0,0,0,8,16.91l4.44-12.48Z"/></g></g></svg>