<svg xmlns="http://www.w3.org/2000/svg" xmlns:xlink="http://www.w3.org/1999/xlink" viewBox="0 0 144.53 128.85"><defs><style>.cls-1{isolation:isolate;}.cls-2{fill:#31343d;}.cls-3{fill:gray;}.cls-4{fill:#fff;}.cls-5{mix-blend-mode:screen;fill:url(#linear-gradient);}.cls-6{fill:#19bae0;}.cls-7{fill:#fbb03b;}.cls-8{fill:#ea222c;}.cls-9{fill:#a46c8a;}.cls-10,.cls-12{fill:#b3b3b3;}.cls-10{mix-blend-mode:multiply;}.cls-11{fill:#e85a48;}</style><linearGradient id="linear-gradient" x1="-2.86" y1="57.98" x2="102.47" y2="7.31" gradientUnits="userSpaceOnUse"><stop offset="0" stop-color="#1a1a1a"/><stop offset="1" stop-color="#4d4d4d"/></linearGradient></defs><title>Asset 1</title><g class="cls-1"><g id="Layer_2" data-name="Layer 2"><g id="Слой_1" data-name="Слой 1"><path class="cls-2" d="M34,2.81A4.87,4.87,0,0,1,40.45.46L141.72,47.68a4.87,4.87,0,0,1,2.35,6.46L110.54,126a4.87,4.87,0,0,1-6.46,2.35L2.81,81.17A4.87,4.87,0,0,1,.45,74.7Z"/><path class="cls-2" d="M3.06,80.62A4.27,4.27,0,0,1,1,75L34.52,3.06A4.28,4.28,0,0,1,40.19,1L141.47,48.22a4.28,4.28,0,0,1,2.06,5.67L110,125.79a4.27,4.27,0,0,1-5.67,2.06Z"/><rect class="cls-2" x="36.86" y="12.82" width="70.8" height="103.21" transform="translate(-16.66 102.69) rotate(-65)"/><path class="cls-2" d="M40.19,1a4.28,4.28,0,0,0-5.67,2.06L1,75a4.27,4.27,0,0,0,2.06,5.67l12.44,5.8L118.6,37.56Z"/><path class="cls-3" d="M34,2.81A4.87,4.87,0,0,1,40.45.46L141.72,47.68a4.87,4.87,0,0,1,2.35,6.46L110.54,126a4.87,4.87,0,0,1-6.46,2.35L2.81,81.17A4.87,4.87,0,0,1,.45,74.7Z"/><path class="cls-2" d="M3.06,80.62A4.27,4.27,0,0,1,1,75L34.52,3.06A4.28,4.28,0,0,1,40.19,1L141.47,48.22a4.28,4.28,0,0,1,2.06,5.67L110,125.79a4.27,4.27,0,0,1-5.67,2.06Z"/><rect class="cls-4" x="36.86" y="12.82" width="70.8" height="103.21" transform="translate(-16.66 102.69) rotate(-65)"/><path class="cls-5" d="M40.19,1a4.28,4.28,0,0,0-5.67,2.06L1,75a4.27,4.27,0,0,0,2.06,5.67l12.44,5.8L118.6,37.56Z"/><path class="cls-2" d="M55.12,88.43,21.66,72.82,37,39.92a.44.44,0,0,0-.08-.5l0,0h0l0,0-.08-.05-.08,0-2.07-1a.24.24,0,0,0-.2.43l1.74.81-.63,1.36-.78-.36a.15.15,0,1,0-.12.27l.78.36-.55,1.18-1.74-.81a.24.24,0,0,0-.31.11.24.24,0,0,0,.11.31l1.74.81L34.12,44l-.78-.36a.15.15,0,0,0-.2.07.15.15,0,0,0,.07.2l.78.36-.61,1.31-1.74-.81a.24.24,0,0,0-.2.43l1.74.81-.63,1.36L31.77,47a.15.15,0,0,0-.2.08.15.15,0,0,0,.07.19l.78.36-.55,1.18L30.13,48a.24.24,0,0,0-.2.43l1.74.81L31,50.62l-.78-.36a.15.15,0,1,0-.12.27l.78.36-.55,1.18-1.74-.81a.24.24,0,0,0-.2.43l1.74.81-.66,1.41-.78-.36a.15.15,0,0,0-.2.07.15.15,0,0,0,.07.2l.78.36-.6,1.29L27,54.66a.24.24,0,0,0-.31.12.23.23,0,0,0,.11.31l1.74.81-.68,1.47L27.12,57a.15.15,0,1,0-.12.27l.77.36L27.11,59l-1.74-.81a.24.24,0,0,0-.2.43l1.74.81-.76,1.63-.78-.36a.15.15,0,1,0-.12.27l.78.36L25.4,62.7l-1.74-.81a.24.24,0,0,0-.2.43l1.74.81-.78,1.68-.78-.36a.15.15,0,1,0-.12.27l.78.36-.59,1.26L22,65.53a.24.24,0,0,0-.2.43l1.74.81-.69,1.47L22,67.87a.15.15,0,1,0-.12.27l.78.36-.54,1.15-1.74-.81a.24.24,0,0,0-.31.11.23.23,0,0,0,.11.31l1.74.81-.61,1.31L20.58,71a.15.15,0,0,0-.2.07.15.15,0,0,0,.07.2l.78.36-.53,1.13L19,72a.24.24,0,0,0-.2.43l2,.91a.44.44,0,0,0,.16.13l1.82.85L21.9,76a.24.24,0,0,0,.43.2l.8-1.73,1.36.63-.36.76a.15.15,0,0,0,.07.2.14.14,0,0,0,.19-.07l.36-.76,1.18.55-.8,1.73a.24.24,0,0,0,.12.31.23.23,0,0,0,.31-.11l.8-1.73,1.2.56-.36.76a.14.14,0,0,0,.07.2.15.15,0,0,0,.2-.07l.36-.77,1.31.61L28.35,79a.23.23,0,0,0,.11.31.24.24,0,0,0,.31-.11l.8-1.73,1.36.63-.36.77a.15.15,0,0,0,.07.2.14.14,0,0,0,.19-.07l.36-.77,1.19.55-.81,1.73a.24.24,0,0,0,.43.2l.8-1.73,1.36.64-.36.76a.15.15,0,0,0,.27.12l.36-.76,1.18.55L34.83,82a.24.24,0,0,0,.43.2l.81-1.73,1.41.66-.36.77a.15.15,0,0,0,.27.12l.36-.77,1.29.6-.8,1.73a.24.24,0,0,0,.12.31.23.23,0,0,0,.31-.11l.81-1.73,1.47.69-.36.76a.14.14,0,0,0,.07.19.15.15,0,0,0,.2-.07l.36-.76,1.4.65-.8,1.73a.24.24,0,0,0,.43.2l.8-1.73,1.63.76-.36.76a.15.15,0,0,0,.27.12l.36-.76,1.34.63L45.46,87a.24.24,0,0,0,.43.2l.8-1.73,1.68.78L48,87a.15.15,0,0,0,.07.19.15.15,0,0,0,.2-.07l.36-.76,1.26.59-.81,1.73a.24.24,0,0,0,.43.2l.8-1.73,1.47.68-.36.76a.15.15,0,0,0,.27.13l.36-.76,1.15.54-.8,1.73a.23.23,0,0,0,.12.31.23.23,0,0,0,.31-.11l.81-1.73,1.12.52a.44.44,0,0,0,.38-.8Z"/><path class="cls-2" d="M19,73a.17.17,0,0,1,.11.13.45.45,0,0,1-.05.27.44.44,0,0,1-.18.22.18.18,0,0,1-.17,0,.19.19,0,0,1-.11-.13.44.44,0,0,1,.06-.27.45.45,0,0,1,.17-.22A.18.18,0,0,1,19,73Zm0,.1h0l-.05,0a1,1,0,0,0-.08.15.75.75,0,0,0-.06.15.11.11,0,0,0,0,.07l0,0h0l0,0a.59.59,0,0,0,.08-.15.68.68,0,0,0,.06-.15.11.11,0,0,0,0-.06Z"/><path class="cls-2" d="M19.24,73.32a.19.19,0,0,1,.09-.11.13.13,0,0,1,.11,0,.15.15,0,0,1,.08.09.19.19,0,0,1,0,.14.2.2,0,0,1-.09.11.14.14,0,0,1-.12,0,.13.13,0,0,1-.08-.08A.2.2,0,0,1,19.24,73.32Zm.09,0a.16.16,0,0,0,0,.09l0,0h0a.27.27,0,0,0,.07-.16,0,0,0,0,0,0,0h0A.17.17,0,0,0,19.33,73.37Zm-.1.54-.08,0,.62-.49.08,0Zm.26-.07a.19.19,0,0,1,.09-.11.14.14,0,0,1,.12,0,.16.16,0,0,1,.08.08.2.2,0,0,1,0,.14.21.21,0,0,1-.09.11.16.16,0,0,1-.12,0,.14.14,0,0,1-.08-.08A.18.18,0,0,1,19.5,73.83Zm.09,0a.26.26,0,0,0,0,.08l0,0h0a.16.16,0,0,0,.05-.07.16.16,0,0,0,0-.09,0,0,0,0,0,0,0h0A.25.25,0,0,0,19.59,73.88Z"/><path class="cls-2" d="M20,70.09,19.84,70l.2-.44a.44.44,0,0,1-.19,0l0-.1H20a.25.25,0,0,0,.12-.06l.1,0Z"/><path class="cls-2" d="M20.62,69.65a.17.17,0,0,1,.11.13.59.59,0,0,1-.23.49.18.18,0,0,1-.17,0,.2.2,0,0,1-.11-.14.45.45,0,0,1,.06-.27.47.47,0,0,1,.17-.22A.2.2,0,0,1,20.62,69.65Zm0,.1h0l0,0a.87.87,0,0,0-.08.15.79.79,0,0,0-.06.15.1.1,0,0,0,0,.06l0,0h0l0,0a.56.56,0,0,0,.08-.14.66.66,0,0,0,.06-.15.19.19,0,0,0,0-.07Z"/><path class="cls-2" d="M20.82,69.93a.18.18,0,0,1,.09-.1.13.13,0,0,1,.11,0,.15.15,0,0,1,.08.09.2.2,0,0,1,0,.14.19.19,0,0,1-.09.11.14.14,0,0,1-.12,0,.13.13,0,0,1-.08-.09A.19.19,0,0,1,20.82,69.93Zm.09,0a.15.15,0,0,0,0,.09,0,0,0,0,0,0,0h0a.27.27,0,0,0,.07-.16,0,0,0,0,0,0,0h0A.16.16,0,0,0,20.91,70Zm-.1.54-.09,0,.63-.49.08,0Zm.26-.07a.19.19,0,0,1,.09-.1.13.13,0,0,1,.11,0,.16.16,0,0,1,.08.08.21.21,0,0,1,0,.14.22.22,0,0,1-.09.11.16.16,0,0,1-.12,0,.14.14,0,0,1-.08-.08A.18.18,0,0,1,21.08,70.44Zm.09,0a.25.25,0,0,0,0,.08,0,0,0,0,0,0,0h0a.15.15,0,0,0,.05-.07s0-.07,0-.08a0,0,0,0,0,0,0h0A.18.18,0,0,0,21.17,70.48Z"/><path class="cls-2" d="M21.63,66.76l-.05.11-.41-.19a.34.34,0,0,1,.1-.1.81.81,0,0,1,.2-.09l.14-.05a.14.14,0,0,0,.06-.06.1.1,0,0,0,0-.07.09.09,0,0,0-.05,0h-.07a.14.14,0,0,0-.06.06l-.12-.07a.23.23,0,0,1,.13-.11.24.24,0,0,1,.16,0,.21.21,0,0,1,.12.11.17.17,0,0,1,0,.15.21.21,0,0,1-.05.07l-.08.05-.11,0-.1,0,0,0Z"/><path class="cls-2" d="M22.13,66.39a.18.18,0,0,1,.11.13.44.44,0,0,1-.06.27A.45.45,0,0,1,22,67a.18.18,0,0,1-.17,0,.21.21,0,0,1-.11-.14.44.44,0,0,1,.06-.27.46.46,0,0,1,.18-.22A.18.18,0,0,1,22.13,66.39Zm0,.1h0l0,0a1.06,1.06,0,0,0-.08.15,1,1,0,0,0-.06.15.1.1,0,0,0,0,.06l0,0h0l0,0a.63.63,0,0,0,.09-.15.66.66,0,0,0,.06-.15.11.11,0,0,0,0-.06Z"/><path class="cls-2" d="M22.34,66.67a.18.18,0,0,1,.09-.1.13.13,0,0,1,.11,0,.14.14,0,0,1,.08.08.19.19,0,0,1,0,.14.21.21,0,0,1-.09.1.13.13,0,0,1-.12,0,.12.12,0,0,1-.08-.08A.19.19,0,0,1,22.34,66.67Zm.09,0a.16.16,0,0,0,0,.08,0,0,0,0,0,0,0h0a.18.18,0,0,0,.05-.07.16.16,0,0,0,0-.09,0,0,0,0,0,0,0h0S22.45,66.68,22.43,66.72Zm-.09.54-.09,0,.62-.49.08,0Zm.26-.07a.18.18,0,0,1,.09-.1.13.13,0,0,1,.12,0,.14.14,0,0,1,.08.09.19.19,0,0,1,0,.14.19.19,0,0,1-.09.11.14.14,0,0,1-.12,0,.13.13,0,0,1-.08-.08A.18.18,0,0,1,22.6,67.19Zm.09,0a.24.24,0,0,0,0,.08.05.05,0,0,0,0,0h0a.15.15,0,0,0,.05-.07s0-.07,0-.09a0,0,0,0,0,0,0h0A.2.2,0,0,0,22.69,67.23Z"/><path class="cls-2" d="M22.93,62.93,23,63a.14.14,0,0,0,0,.08.08.08,0,0,0,0,0,.09.09,0,0,0,.07,0,.12.12,0,0,0,.06-.06.12.12,0,0,0,0-.08.08.08,0,0,0,0-.05l-.06,0,.06-.09a.11.11,0,0,0,.08,0,.08.08,0,0,0,.05,0,.07.07,0,0,0,0-.06.07.07,0,0,0,0,0h-.06a.13.13,0,0,0-.05.05l-.1-.07a.24.24,0,0,1,.07-.07l.09,0,.1,0a.19.19,0,0,1,.11.12.15.15,0,0,1,0,.12.16.16,0,0,1-.15.09.15.15,0,0,1,.06.09.16.16,0,0,1,0,.11.19.19,0,0,1-.12.11.21.21,0,0,1-.17,0,.22.22,0,0,1-.12-.11A.21.21,0,0,1,22.93,62.93Z"/><path class="cls-2" d="M23.81,62.8a.18.18,0,0,1,.11.13.46.46,0,0,1-.05.27.47.47,0,0,1-.18.22.19.19,0,0,1-.17,0,.2.2,0,0,1-.11-.14.44.44,0,0,1,.06-.27.45.45,0,0,1,.17-.22A.18.18,0,0,1,23.81,62.8Zm0,.09h0l-.05,0a1.06,1.06,0,0,0-.08.15.76.76,0,0,0-.06.15.13.13,0,0,0,0,.07l0,0h0l0,0a.53.53,0,0,0,.09-.15A.71.71,0,0,0,23.8,63a.16.16,0,0,0,0-.07Z"/><path class="cls-2" d="M24,63.08a.2.2,0,0,1,.09-.11.13.13,0,0,1,.11,0,.15.15,0,0,1,.08.08.21.21,0,0,1,0,.14.22.22,0,0,1-.09.1.15.15,0,0,1-.12,0,.13.13,0,0,1-.08-.08A.17.17,0,0,1,24,63.08Zm.09,0a.16.16,0,0,0,0,.09,0,0,0,0,0,0,0h0a.18.18,0,0,0,.05-.08.15.15,0,0,0,0-.08,0,0,0,0,0,0,0h0A.16.16,0,0,0,24.11,63.12Zm-.1.54-.08,0,.62-.49.08,0Zm.26-.07a.18.18,0,0,1,.09-.1.14.14,0,0,1,.12,0,.15.15,0,0,1,.08.09.2.2,0,0,1,0,.14.22.22,0,0,1-.09.11.15.15,0,0,1-.12,0,.14.14,0,0,1-.08-.08A.2.2,0,0,1,24.27,63.59Zm.09,0a.23.23,0,0,0,0,.08,0,0,0,0,0,0,0h0a.17.17,0,0,0,.05-.07.15.15,0,0,0,0-.09l0,0h0Z"/><path class="cls-2" d="M24.79,59.54l.06-.12-.25-.12,0-.1.45-.26.1,0-.18.39.08,0,0,.1-.08,0-.06.12Zm.1-.22.1-.21-.24.15Z"/><path class="cls-2" d="M25.52,59.14a.18.18,0,0,1,.11.13.45.45,0,0,1-.06.28.42.42,0,0,1-.17.22.17.17,0,0,1-.17,0,.2.2,0,0,1-.11-.13.46.46,0,0,1,.06-.27.45.45,0,0,1,.17-.22A.18.18,0,0,1,25.52,59.14Zm0,.1h0l0,0a1.25,1.25,0,0,0-.08.15.89.89,0,0,0-.06.15.15.15,0,0,0,0,.07l0,0h0l0,0a.59.59,0,0,0,.09-.15.66.66,0,0,0,.06-.15.15.15,0,0,0,0-.07Z"/><path class="cls-2" d="M25.72,59.42a.19.19,0,0,1,.09-.11.13.13,0,0,1,.11,0,.15.15,0,0,1,.08.09.2.2,0,0,1,0,.14.2.2,0,0,1-.09.11.15.15,0,0,1-.12,0,.13.13,0,0,1-.08-.08A.19.19,0,0,1,25.72,59.42Zm.09,0a.17.17,0,0,0,0,.09,0,0,0,0,0,0,0h0a.17.17,0,0,0,.05-.07.15.15,0,0,0,0-.09,0,0,0,0,0,0,0h0A.15.15,0,0,0,25.81,59.46Zm-.09.54-.09,0,.62-.49.08,0Zm.26-.07a.18.18,0,0,1,.09-.1.13.13,0,0,1,.12,0,.15.15,0,0,1,.08.09.2.2,0,0,1,0,.13.21.21,0,0,1-.09.11.16.16,0,0,1-.12,0,.14.14,0,0,1-.08-.08A.19.19,0,0,1,26,59.93Zm.09,0a.25.25,0,0,0,0,.08,0,0,0,0,0,0,0h0a.14.14,0,0,0,.05-.07.16.16,0,0,0,0-.09,0,0,0,0,0,0,0h0A.21.21,0,0,0,26.07,60Z"/><path class="cls-2" d="M26.31,55.68l.12,0a.21.21,0,0,0,0,.08.09.09,0,0,0,0,0,.08.08,0,0,0,.08,0,.16.16,0,0,0,.07-.08.14.14,0,0,0,0-.1.09.09,0,0,0-.05-.06.13.13,0,0,0-.11,0l-.09-.06.21-.29.31.14,0,.11-.22-.1-.07.1h.09a.2.2,0,0,1,.11.12.21.21,0,0,1,0,.17.25.25,0,0,1-.11.12.22.22,0,0,1-.2,0,.23.23,0,0,1-.12-.11A.21.21,0,0,1,26.31,55.68Z"/><path class="cls-2" d="M27.2,55.54a.18.18,0,0,1,.11.13.43.43,0,0,1-.05.27.47.47,0,0,1-.18.22.19.19,0,0,1-.17,0A.19.19,0,0,1,26.8,56a.42.42,0,0,1,.06-.27.45.45,0,0,1,.17-.21A.19.19,0,0,1,27.2,55.54Zm0,.1h0a.08.08,0,0,0,0,0,1,1,0,0,0-.08.14.75.75,0,0,0-.06.15.11.11,0,0,0,0,.07l0,0h0l0,0a.49.49,0,0,0,.09-.15.6.6,0,0,0,.06-.15.1.1,0,0,0,0-.07Z"/><path class="cls-2" d="M27.4,55.82a.17.17,0,0,1,.09-.1.14.14,0,0,1,.12,0,.15.15,0,0,1,.08.09.18.18,0,0,1,0,.13.2.2,0,0,1-.09.11.15.15,0,0,1-.12,0,.13.13,0,0,1-.08-.09A.19.19,0,0,1,27.4,55.82Zm.09,0a.16.16,0,0,0,0,.09,0,0,0,0,0,0,0h0a.17.17,0,0,0,.05-.08.17.17,0,0,0,0-.08l0,0h0A.17.17,0,0,0,27.49,55.86Zm-.1.55-.09,0,.62-.49.08,0Zm.26-.07a.17.17,0,0,1,.09-.1.15.15,0,0,1,.12,0,.16.16,0,0,1,.08.09.19.19,0,0,1,0,.13.2.2,0,0,1-.09.11.14.14,0,0,1-.12,0,.14.14,0,0,1-.08-.09A.18.18,0,0,1,27.66,56.33Zm.09,0a.21.21,0,0,0,0,.08,0,0,0,0,0,0,0h0a.15.15,0,0,0,.05-.07.16.16,0,0,0,0-.08,0,0,0,0,0,0,0h0A.22.22,0,0,0,27.75,56.37Z"/><path class="cls-2" d="M28.45,52.12l-.12,0a.08.08,0,0,0,0-.06.06.06,0,0,0,0,0,.09.09,0,0,0-.08,0,.3.3,0,0,0-.1.13.14.14,0,0,1,.13,0,.19.19,0,0,1,.1.11.26.26,0,0,1-.14.3.23.23,0,0,1-.29-.15.42.42,0,0,1,0-.27.39.39,0,0,1,.18-.21.21.21,0,0,1,.19,0,.19.19,0,0,1,.1.09A.21.21,0,0,1,28.45,52.12Zm-.38.13a.14.14,0,0,0,0,.1.09.09,0,0,0,0,.06h.06a.18.18,0,0,0,.08-.17.08.08,0,0,0,0-.06.08.08,0,0,0-.07,0A.13.13,0,0,0,28.07,52.26Z"/><path class="cls-2" d="M28.8,52.1a.18.18,0,0,1,.11.13.46.46,0,0,1-.05.28.47.47,0,0,1-.18.22.18.18,0,0,1-.17,0,.2.2,0,0,1-.11-.14.43.43,0,0,1,.06-.27.48.48,0,0,1,.17-.22A.19.19,0,0,1,28.8,52.1Zm0,.1h0l0,0a.88.88,0,0,0-.08.15,1,1,0,0,0-.06.15.13.13,0,0,0,0,.07l0,0h0l0,0a.5.5,0,0,0,.08-.14.69.69,0,0,0,.06-.15.1.1,0,0,0,0-.07A.05.05,0,0,0,28.75,52.2Z"/><path class="cls-2" d="M29,52.39a.19.19,0,0,1,.09-.11.13.13,0,0,1,.11,0,.14.14,0,0,1,.08.08.21.21,0,0,1,0,.14.19.19,0,0,1-.09.1.15.15,0,0,1-.12,0,.14.14,0,0,1-.08-.08A.18.18,0,0,1,29,52.39Zm.09,0a.14.14,0,0,0,0,.08,0,0,0,0,0,0,0h0a.15.15,0,0,0,0-.07.18.18,0,0,0,0-.09,0,0,0,0,0,0,0h0A.17.17,0,0,0,29.09,52.43ZM29,53l-.08,0,.62-.49.08,0Zm.26-.07a.18.18,0,0,1,.09-.11.15.15,0,0,1,.12,0,.17.17,0,0,1,.08.08.21.21,0,0,1,0,.14.2.2,0,0,1-.09.11.17.17,0,0,1-.2-.09A.2.2,0,0,1,29.26,52.9Zm.09,0a.25.25,0,0,0,0,.09l0,0h0a.15.15,0,0,0,.05-.07.17.17,0,0,0,0-.09,0,0,0,0,0,0,0h0A.21.21,0,0,0,29.35,52.94Z"/><path class="cls-2" d="M29.56,48.71l.05-.11.4.19,0,.09a.65.65,0,0,0-.16.09.77.77,0,0,0-.17.16.71.71,0,0,0-.11.17l-.11-.05a.83.83,0,0,1,.17-.23,1,1,0,0,1,.24-.17Z"/><path class="cls-2" d="M30.29,48.9a.18.18,0,0,1,.11.13.6.6,0,0,1-.23.5.18.18,0,0,1-.17,0,.2.2,0,0,1-.11-.13.44.44,0,0,1,.06-.27.46.46,0,0,1,.18-.22A.19.19,0,0,1,30.29,48.9Zm0,.1h0l-.05,0a1,1,0,0,0-.08.15.88.88,0,0,0-.06.15.1.1,0,0,0,0,.07l0,0h0l0,0a.54.54,0,0,0,.09-.14.7.7,0,0,0,.06-.16.17.17,0,0,0,0-.06Z"/><path class="cls-2" d="M30.49,49.19a.18.18,0,0,1,.09-.11.13.13,0,0,1,.12,0,.14.14,0,0,1,.08.09.19.19,0,0,1,0,.14.19.19,0,0,1-.09.1.15.15,0,0,1-.12,0,.13.13,0,0,1-.08-.08A.18.18,0,0,1,30.49,49.19Zm.09,0a.17.17,0,0,0,0,.09,0,0,0,0,0,0,0h0a.21.21,0,0,0,.05-.07.15.15,0,0,0,0-.09s0,0,0,0h0A.17.17,0,0,0,30.58,49.23Zm-.09.54-.09,0,.62-.49.08,0Zm.26-.07a.19.19,0,0,1,.09-.1.14.14,0,0,1,.12,0,.15.15,0,0,1,.08.09.21.21,0,0,1,0,.14.23.23,0,0,1-.09.11.15.15,0,0,1-.12,0,.14.14,0,0,1-.08-.08A.19.19,0,0,1,30.75,49.7Zm.09,0a.25.25,0,0,0,0,.09l0,0h0a.14.14,0,0,0,.05-.07.13.13,0,0,0,0-.09s0,0,0,0h0A.21.21,0,0,0,30.84,49.74Z"/><path class="cls-2" d="M31.11,45.66a.13.13,0,0,1,0-.08.14.14,0,0,1,0-.08.16.16,0,0,1,.1-.09.24.24,0,0,1,.27.12.15.15,0,0,1,0,.13.13.13,0,0,1-.05.06.12.12,0,0,1-.09,0,.21.21,0,0,1,.05.1.2.2,0,0,1-.13.21.22.22,0,0,1-.17,0,.24.24,0,0,1-.12-.11.19.19,0,0,1,0-.17.18.18,0,0,1,.06-.08A.2.2,0,0,1,31.11,45.66Zm-.05.15a.14.14,0,0,0,0,.09.11.11,0,0,0,.05.06.09.09,0,0,0,.07,0,.13.13,0,0,0,.06-.06.1.1,0,0,0,0-.08.08.08,0,0,0-.05-.06.07.07,0,0,0-.07,0A.1.1,0,0,0,31.05,45.82Zm.13-.26a.09.09,0,0,0,0,.06.08.08,0,0,0,0,0h.06a.09.09,0,0,0,0,0,.09.09,0,0,0,0-.06.1.1,0,0,0,0,0h-.06A.08.08,0,0,0,31.19,45.56Z"/><path class="cls-2" d="M31.81,45.65a.17.17,0,0,1,.11.13.45.45,0,0,1-.05.27.46.46,0,0,1-.18.22.18.18,0,0,1-.17,0,.2.2,0,0,1-.11-.14.44.44,0,0,1,.06-.27.47.47,0,0,1,.17-.22A.18.18,0,0,1,31.81,45.65Zm0,.09h0l0,0a1.11,1.11,0,0,0-.08.15.89.89,0,0,0-.06.15.1.1,0,0,0,0,.07l0,0h0l0,0a.57.57,0,0,0,.08-.14.65.65,0,0,0,.06-.15.12.12,0,0,0,0-.07Z"/><path class="cls-2" d="M32,45.93a.19.19,0,0,1,.09-.1.13.13,0,0,1,.11,0,.14.14,0,0,1,.08.09.19.19,0,0,1,0,.14.19.19,0,0,1-.09.1.15.15,0,0,1-.12,0,.14.14,0,0,1-.08-.09A.18.18,0,0,1,32,45.93Zm.09,0a.19.19,0,0,0,0,.09,0,0,0,0,0,0,0h0a.18.18,0,0,0,.05-.07.16.16,0,0,0,0-.09,0,0,0,0,0,0,0h0A.17.17,0,0,0,32.1,46Zm-.1.54-.09,0,.62-.49.08,0Zm.26-.07a.18.18,0,0,1,.09-.1.12.12,0,0,1,.12,0,.14.14,0,0,1,.08.08.2.2,0,0,1,0,.14.21.21,0,0,1-.09.1.15.15,0,0,1-.12,0,.13.13,0,0,1-.08-.09A.18.18,0,0,1,32.27,46.44Zm.09,0a.25.25,0,0,0,0,.08,0,0,0,0,0,0,0h0a.14.14,0,0,0,.05-.07.16.16,0,0,0,0-.09,0,0,0,0,0,0,0h0Z"/><path class="cls-2" d="M32.42,42.6l.12,0a.06.06,0,0,0,0,.06.06.06,0,0,0,0,0,.08.08,0,0,0,.08,0,.39.39,0,0,0,.1-.12.16.16,0,0,1-.13,0,.18.18,0,0,1-.1-.11.22.22,0,0,1,0-.17.22.22,0,0,1,.13-.12.2.2,0,0,1,.16,0,.21.21,0,0,1,.12.14.44.44,0,0,1-.05.26.42.42,0,0,1-.17.21.22.22,0,0,1-.19,0,.21.21,0,0,1-.1-.09A.2.2,0,0,1,32.42,42.6Zm.38-.13a.15.15,0,0,0,0-.1.08.08,0,0,0,0-.06.07.07,0,0,0-.07,0,.14.14,0,0,0-.06.07.16.16,0,0,0,0,.1.09.09,0,0,0,0,.05.08.08,0,0,0,.07,0A.13.13,0,0,0,32.8,42.47Z"/><path class="cls-2" d="M33.3,42.44a.18.18,0,0,1,.11.13.46.46,0,0,1-.06.27.45.45,0,0,1-.18.22.19.19,0,0,1-.16,0,.2.2,0,0,1-.11-.13.62.62,0,0,1,.23-.49A.19.19,0,0,1,33.3,42.44Zm0,.1h0l0,0a1.1,1.1,0,0,0-.08.15.79.79,0,0,0-.06.15.1.1,0,0,0,0,.07l0,0h0l0,0a.57.57,0,0,0,.09-.15.67.67,0,0,0,.06-.15.19.19,0,0,0,0-.07Z"/><path class="cls-2" d="M33.51,42.72a.19.19,0,0,1,.09-.11.13.13,0,0,1,.11,0,.15.15,0,0,1,.08.09.25.25,0,0,1-.11.24.14.14,0,0,1-.12,0,.14.14,0,0,1-.08-.09A.18.18,0,0,1,33.51,42.72Zm.09,0a.16.16,0,0,0,0,.08,0,0,0,0,0,0,0h0a.16.16,0,0,0,0-.07.15.15,0,0,0,0-.09,0,0,0,0,0,0,0h0A.17.17,0,0,0,33.6,42.76Zm-.09.54-.09,0,.62-.49.08,0Zm.26-.07a.19.19,0,0,1,.09-.1.13.13,0,0,1,.12,0,.15.15,0,0,1,.08.08.21.21,0,0,1,0,.14.2.2,0,0,1-.09.11.15.15,0,0,1-.12,0,.14.14,0,0,1-.08-.09A.18.18,0,0,1,33.77,43.23Zm.09,0a.21.21,0,0,0,0,.08,0,0,0,0,0,0,0h0s0,0,.05-.07a.15.15,0,0,0,0-.09,0,0,0,0,0,0,0h0A.22.22,0,0,0,33.86,43.27Z"/><path class="cls-2" d="M33.62,39.57l-.12-.05.2-.44a.43.43,0,0,1-.19,0l0-.1h.13a.25.25,0,0,0,.12-.06l.1,0Z"/><path class="cls-2" d="M34.27,39.13a.19.19,0,0,1,.11.13.6.6,0,0,1-.23.5.18.18,0,0,1-.17,0,.19.19,0,0,1-.11-.13.45.45,0,0,1,.06-.27.44.44,0,0,1,.18-.22A.19.19,0,0,1,34.27,39.13Zm0,.1h0a.09.09,0,0,0,0,0,.9.9,0,0,0-.08.15.78.78,0,0,0-.06.15.14.14,0,0,0,0,.07l0,0h0l0,0a.54.54,0,0,0,.08-.15.61.61,0,0,0,.06-.15.12.12,0,0,0,0-.07Z"/><path class="cls-2" d="M34.74,39.35a.18.18,0,0,1,.11.13.47.47,0,0,1-.06.28.45.45,0,0,1-.18.22.17.17,0,0,1-.17,0,.19.19,0,0,1-.11-.14.44.44,0,0,1,.06-.27.46.46,0,0,1,.17-.22A.19.19,0,0,1,34.74,39.35Zm0,.1h0a.09.09,0,0,0,0,0,1.05,1.05,0,0,0-.08.15.72.72,0,0,0-.06.15.12.12,0,0,0,0,.07l0,0h0l0,0a.61.61,0,0,0,.08-.15.69.69,0,0,0,.06-.15.13.13,0,0,0,0-.06Z"/><path class="cls-2" d="M34.95,39.63a.18.18,0,0,1,.09-.1.13.13,0,0,1,.12,0,.15.15,0,0,1,.08.08.2.2,0,0,1,0,.14.2.2,0,0,1-.09.1.15.15,0,0,1-.12,0,.13.13,0,0,1-.08-.09A.18.18,0,0,1,34.95,39.63Zm.09,0a.17.17,0,0,0,0,.09,0,0,0,0,0,0,0h0a.2.2,0,0,0,.05-.07.16.16,0,0,0,0-.08,0,0,0,0,0,0,0h0A.17.17,0,0,0,35,39.68Zm-.09.54-.09,0,.62-.49.08,0Zm.26-.07a.18.18,0,0,1,.09-.1.14.14,0,0,1,.12,0,.15.15,0,0,1,.08.09.2.2,0,0,1,0,.14.21.21,0,0,1-.09.11.14.14,0,0,1-.12,0,.14.14,0,0,1-.08-.09A.2.2,0,0,1,35.21,40.15Zm.09,0a.22.22,0,0,0,0,.08,0,0,0,0,0,0,0h0a.15.15,0,0,0,.05-.07.15.15,0,0,0,0-.09l0,0h0A.23.23,0,0,0,35.3,40.19Z"/><path class="cls-2" d="M53.71,90.81l.11.05-.19.41a.33.33,0,0,1-.1-.09.9.9,0,0,1-.08-.2l-.05-.14a.15.15,0,0,0-.06-.06h-.07a.1.1,0,0,0,0,0,.09.09,0,0,0,0,.06.12.12,0,0,0,.06.06l-.06.11a.22.22,0,0,1-.11-.13.26.26,0,0,1,0-.16.23.23,0,0,1,.12-.12.18.18,0,0,1,.15,0l.07.05.05.08a.81.81,0,0,1,0,.11l0,.1,0,0Z"/><path class="cls-2" d="M53.34,90.3a.18.18,0,0,1,.13-.11.59.59,0,0,1,.5.23.19.19,0,0,1,0,.17.19.19,0,0,1-.13.11.44.44,0,0,1-.27-.06.41.41,0,0,1-.21-.18A.17.17,0,0,1,53.34,90.3Zm.1,0a.05.05,0,0,0,0,0,.1.1,0,0,0,0,0l.15.08.15.06h.07l0,0a.05.05,0,0,0,0,0l0,0-.15-.08-.15-.06h-.06A.05.05,0,0,0,53.44,90.35Z"/><path class="cls-2" d="M54.22,90l-.05.12-.44-.2a.34.34,0,0,1,0,.19l-.11,0a.31.31,0,0,0,0-.12.24.24,0,0,0-.06-.12l0-.09Z"/><path class="cls-2" d="M54,89.23l0,.12h-.06a.08.08,0,0,0,0,0,.09.09,0,0,0,0,.07.32.32,0,0,0,.12.1.15.15,0,0,1,0-.13.2.2,0,0,1,.11-.1.22.22,0,0,1,.17,0,.23.23,0,0,1,.13.12.23.23,0,0,1-.15.29A.42.42,0,0,1,54,89.7a.43.43,0,0,1-.21-.17.22.22,0,0,1,0-.19.19.19,0,0,1,.09-.1A.2.2,0,0,1,54,89.23Zm.13.39a.14.14,0,0,0,.1,0,.08.08,0,0,0,.06,0,.07.07,0,0,0,0-.06.14.14,0,0,0-.07-.06.16.16,0,0,0-.1,0,.08.08,0,0,0-.05,0,.07.07,0,0,0,0,.07A.12.12,0,0,0,54.15,89.61Z"/><path class="cls-2" d="M50.39,89.26l.11.05-.19.41a.36.36,0,0,1-.1-.09,1.19,1.19,0,0,1-.08-.2,1.36,1.36,0,0,0-.05-.14.15.15,0,0,0-.06-.06h-.07a.09.09,0,0,0,0,.05.08.08,0,0,0,0,.06.12.12,0,0,0,.06.06l-.07.11a.22.22,0,0,1-.11-.13.26.26,0,0,1,0-.16.22.22,0,0,1,.11-.12.18.18,0,0,1,.14,0l.07,0,.06.08,0,.11a.73.73,0,0,0,0,.1l0,0Z"/><path class="cls-2" d="M50,88.75a.18.18,0,0,1,.13-.11.59.59,0,0,1,.49.23.18.18,0,0,1,0,.17.2.2,0,0,1-.13.11.45.45,0,0,1-.27-.06.42.42,0,0,1-.22-.18A.17.17,0,0,1,50,88.75Zm.09,0a.08.08,0,0,0,0,0,.11.11,0,0,0,0,0l.15.08a.56.56,0,0,0,.15.06h.07a0,0,0,0,0,0,0,.06.06,0,0,0,0,0l0,0-.15-.08-.15-.06h-.07Z"/><path class="cls-2" d="M50.89,88.46l-.05.12-.44-.2a.38.38,0,0,1,0,.19l-.1,0a.51.51,0,0,0,0-.13.24.24,0,0,0-.06-.12l0-.09Z"/><path class="cls-2" d="M51.08,88.06,51,88l-.11.24-.1,0-.26-.44,0-.1.38.18,0-.07.1,0,0,.08.13.06Zm-.23-.1-.21-.1.14.23Z"/><path class="cls-2" d="M46.67,87.53l.11.05-.19.41a.37.37,0,0,1-.1-.09.92.92,0,0,1-.08-.2l-.06-.15a.14.14,0,0,0-.06-.06.09.09,0,0,0-.07,0,.08.08,0,0,0-.05,0,.07.07,0,0,0,0,.06s0,0,.06.06l-.07.11a.22.22,0,0,1-.11-.13.27.27,0,0,1,0-.16.21.21,0,0,1,.11-.12.17.17,0,0,1,.14,0l.07,0a.39.39,0,0,1,.06.08l0,.11,0,.1,0,0Z"/><path class="cls-2" d="M46.3,87a.17.17,0,0,1,.13-.11.42.42,0,0,1,.27.05.43.43,0,0,1,.22.18.18.18,0,0,1,0,.17.2.2,0,0,1-.13.11.43.43,0,0,1-.27-.06.43.43,0,0,1-.22-.18A.18.18,0,0,1,46.3,87Zm.1,0a.06.06,0,0,0,0,0l0,0,.15.08.15.06h.06a0,0,0,0,0,0,0,.06.06,0,0,0,0,0,.1.1,0,0,0,0,0l-.15-.08L46.49,87h-.06Z"/><path class="cls-2" d="M47.18,86.73l-.05.12-.44-.2a.43.43,0,0,1,0,.19l-.1,0a.52.52,0,0,0,0-.13.24.24,0,0,0-.06-.12l0-.09Z"/><path class="cls-2" d="M47.33,86.11l.11.05-.19.41a.24.24,0,0,1-.1-.09.9.9,0,0,1-.08-.2.91.91,0,0,0-.06-.14.13.13,0,0,0-.06-.06.08.08,0,0,0-.12,0,.08.08,0,0,0,0,.07.15.15,0,0,0,.06.06l-.07.11a.22.22,0,0,1-.11-.13.28.28,0,0,1,0-.16.2.2,0,0,1,.12-.12A.17.17,0,0,1,47,86l.07,0,.06.09a.69.69,0,0,1,0,.11.53.53,0,0,0,0,.1l0,0Z"/><path class="cls-2" d="M43,85.82l.11.05-.19.41a.33.33,0,0,1-.1-.09,1,1,0,0,1-.09-.2.77.77,0,0,0-.05-.14.13.13,0,0,0-.06-.06h-.07a.08.08,0,0,0,0,0,.08.08,0,0,0,0,.07.11.11,0,0,0,.06.06l-.06.11a.22.22,0,0,1-.11-.13.24.24,0,0,1,0-.16.22.22,0,0,1,.12-.12.17.17,0,0,1,.14,0l.08.05.05.08,0,.11,0,.1,0,0Z"/><path class="cls-2" d="M42.65,85.32a.19.19,0,0,1,.13-.11.43.43,0,0,1,.27.05.45.45,0,0,1,.22.18.17.17,0,0,1,0,.17.2.2,0,0,1-.13.11.44.44,0,0,1-.27-.06.4.4,0,0,1-.22-.18A.18.18,0,0,1,42.65,85.32Zm.1,0a.06.06,0,0,0,0,0l0,0,.15.08a.57.57,0,0,0,.15.06h.06l0,0a.07.07,0,0,0,0,0l0,0L43,85.38l-.15-.06h-.06Z"/><path class="cls-2" d="M43.53,85l-.06.12L43,84.94a.43.43,0,0,1,0,.19l-.11-.05a.33.33,0,0,0,0-.13.23.23,0,0,0-.06-.12l0-.09Z"/><path class="cls-2" d="M43.09,84.37a.19.19,0,0,1,.13-.11.45.45,0,0,1,.27.06.47.47,0,0,1,.22.17.18.18,0,0,1,0,.17.19.19,0,0,1-.13.11.45.45,0,0,1-.27-.06.46.46,0,0,1-.22-.17A.19.19,0,0,1,43.09,84.37Zm.1,0a.09.09,0,0,0,0,0l0,0,.15.08.15.06h.06l0,0a.08.08,0,0,0,0,0,.12.12,0,0,0,0-.05l-.15-.08-.15-.06h-.07Z"/><path class="cls-2" d="M39.48,84.17l.11.05-.19.41a.38.38,0,0,1-.1-.09,1.25,1.25,0,0,1-.08-.2c0-.08,0-.12-.05-.15a.14.14,0,0,0-.06-.06H39a.09.09,0,0,0,0,.05.08.08,0,0,0,0,.06.12.12,0,0,0,.06.06l-.06.11a.21.21,0,0,1-.11-.13.23.23,0,0,1,0-.16A.21.21,0,0,1,39,84a.17.17,0,0,1,.14,0l.07,0,.06.08,0,.11,0,.1,0,0Z"/><path class="cls-2" d="M39.11,83.67a.18.18,0,0,1,.13-.11.43.43,0,0,1,.28.05.44.44,0,0,1,.22.18.18.18,0,0,1,0,.17.19.19,0,0,1-.13.11.43.43,0,0,1-.27-.06.42.42,0,0,1-.22-.18A.17.17,0,0,1,39.11,83.67Zm.1,0a.06.06,0,0,0,0,0,.12.12,0,0,0,0,.05l.14.08.15.06h.07l0,0a.07.07,0,0,0,0,0l0-.05-.15-.08-.15-.06h-.07Z"/><path class="cls-2" d="M39.33,83.19a.18.18,0,0,1,.13-.11.43.43,0,0,1,.27.06.43.43,0,0,1,.22.17.17.17,0,0,1,0,.17.18.18,0,0,1-.13.11.59.59,0,0,1-.49-.23A.19.19,0,0,1,39.33,83.19Zm.1,0a.06.06,0,0,0,0,0l0,.05.14.08.15.05h.07l0,0a.07.07,0,0,0,0,0l0,0-.15-.08-.15-.06h-.07Z"/><path class="cls-2" d="M39.79,82.95a.16.16,0,0,1-.08,0h-.08a.15.15,0,0,1-.09-.1.2.2,0,0,1,0-.15.22.22,0,0,1,.11-.12.17.17,0,0,1,.13,0,.13.13,0,0,1,.06.06.13.13,0,0,1,0,.09A.15.15,0,0,1,40,82.7a.16.16,0,0,1,.1,0,.2.2,0,0,1,.11.11.24.24,0,0,1,0,.17.28.28,0,0,1-.11.12.19.19,0,0,1-.17,0,.19.19,0,0,1-.08-.07A.18.18,0,0,1,39.79,82.95Zm-.11-.08a.06.06,0,0,0,.06,0,.08.08,0,0,0,0,0,.07.07,0,0,0,0-.06.08.08,0,0,0,0,0h-.06a.07.07,0,0,0,0,0,.09.09,0,0,0,0,.06A.07.07,0,0,0,39.68,82.87Zm.25.13A.13.13,0,0,0,40,83a.09.09,0,0,0,.05-.05.07.07,0,0,0,0-.07.11.11,0,0,0-.06-.06.09.09,0,0,0-.08,0,.09.09,0,0,0-.05,0,.08.08,0,0,0,0,.08Z"/><path class="cls-2" d="M36.05,82.57l.11,0L36,83a.37.37,0,0,1-.1-.09,1.3,1.3,0,0,1-.08-.2.79.79,0,0,0-.05-.14.14.14,0,0,0-.06-.06H35.6a.08.08,0,0,0-.05,0,.08.08,0,0,0,0,.07.1.1,0,0,0,.06.06l-.06.11a.2.2,0,0,1-.09-.29.2.2,0,0,1,.12-.12.17.17,0,0,1,.14,0l.07.05a.28.28,0,0,1,.06.08.68.68,0,0,1,0,.11l0,.1,0,0Z"/><path class="cls-2" d="M35.67,82.06A.19.19,0,0,1,35.8,82a.43.43,0,0,1,.28.06.44.44,0,0,1,.22.18.19.19,0,0,1,0,.17.2.2,0,0,1-.13.11.44.44,0,0,1-.27-.06.41.41,0,0,1-.22-.18A.18.18,0,0,1,35.67,82.06Zm.1,0a.05.05,0,0,0,0,0,.11.11,0,0,0,0,0l.15.08.15.06h.07l0,0a.06.06,0,0,0,0,0s0,0,0,0L36,82.13l-.15-.06H35.8Z"/><path class="cls-2" d="M35.89,81.59a.18.18,0,0,1,.13-.11.43.43,0,0,1,.28.06.44.44,0,0,1,.22.17.2.2,0,0,1-.14.28.44.44,0,0,1-.27-.06.43.43,0,0,1-.22-.18A.19.19,0,0,1,35.89,81.59Zm.1,0a0,0,0,0,0,0,0l0,0,.15.09.15.05h.07l0,0a.06.06,0,0,0,0,0s0,0,0,0l-.15-.08-.15-.06H36Z"/><path class="cls-2" d="M36.36,81l0,.12h-.06a.07.07,0,0,0,0,0,.1.1,0,0,0,0,.07.32.32,0,0,0,.12.1.16.16,0,0,1,0-.13.19.19,0,0,1,.11-.1.23.23,0,0,1,.17,0,.21.21,0,0,1,.12.29.22.22,0,0,1-.14.12.44.44,0,0,1-.26-.06.41.41,0,0,1-.21-.17.21.21,0,0,1,0-.19.18.18,0,0,1,.09-.1A.2.2,0,0,1,36.36,81Zm.13.39a.15.15,0,0,0,.1,0,.07.07,0,0,0,.05,0,.06.06,0,0,0,0-.07s0,0-.07-.06a.15.15,0,0,0-.1,0,.11.11,0,0,0-.05,0,.1.1,0,0,0,0,.07A.13.13,0,0,0,36.49,81.38Z"/><path class="cls-2" d="M32.84,81.08l.11,0-.19.41a.35.35,0,0,1-.1-.09,1,1,0,0,1-.08-.2.65.65,0,0,0-.06-.15.12.12,0,0,0-.06-.06H32.4a.09.09,0,0,0,0,.05.08.08,0,0,0,0,.06.12.12,0,0,0,.06.06l-.06.11a.22.22,0,0,1-.11-.13.23.23,0,0,1,0-.16.22.22,0,0,1,.11-.12.17.17,0,0,1,.14,0l.07,0a.33.33,0,0,1,.06.08l0,.11,0,.1,0,0Z"/><path class="cls-2" d="M32.47,80.57a.18.18,0,0,1,.13-.11.43.43,0,0,1,.28.05.44.44,0,0,1,.22.18.18.18,0,0,1,0,.17A.19.19,0,0,1,33,81a.45.45,0,0,1-.27-.06.41.41,0,0,1-.22-.18A.18.18,0,0,1,32.47,80.57Zm.1,0a.06.06,0,0,0,0,0,.11.11,0,0,0,0,0l.15.08a.5.5,0,0,0,.15.06H33l0,0a.08.08,0,0,0,0,0l0,0-.14-.08-.15-.06H32.6Z"/><path class="cls-2" d="M32.69,80.1a.18.18,0,0,1,.13-.11.61.61,0,0,1,.49.23.18.18,0,0,1,0,.17.18.18,0,0,1-.13.11.44.44,0,0,1-.27-.06.43.43,0,0,1-.22-.18A.18.18,0,0,1,32.69,80.1Zm.1,0a.07.07,0,0,0,0,0l0,0,.15.08.15.05h.07l0,0a.09.09,0,0,0,0,0l0,0L33,80.17l-.15-.06h-.07Z"/><path class="cls-2" d="M33.53,79.88l-.12-.06-.11.24-.1,0-.27-.44,0-.1.38.18,0-.08.1,0,0,.07.12.06Zm-.22-.1-.21-.1.14.23Z"/><path class="cls-2" d="M29.57,79.55l.11.05L29.5,80a.33.33,0,0,1-.1-.09,1,1,0,0,1-.08-.2l-.05-.14a.15.15,0,0,0-.06-.06h-.07a.09.09,0,0,0,0,.05.08.08,0,0,0,0,.06.12.12,0,0,0,.06.06l-.06.11a.23.23,0,0,1-.11-.13.26.26,0,0,1,0-.16.23.23,0,0,1,.12-.12.17.17,0,0,1,.14,0l.07,0,.06.09s0,.06,0,.11l0,.1,0,0Z"/><path class="cls-2" d="M29.2,79a.18.18,0,0,1,.13-.11.42.42,0,0,1,.27.05.44.44,0,0,1,.22.18.19.19,0,0,1,0,.17.2.2,0,0,1-.13.11.45.45,0,0,1-.27-.06.4.4,0,0,1-.21-.18A.18.18,0,0,1,29.2,79Zm.1,0a0,0,0,0,0,0,0,.09.09,0,0,0,0,0l.14.08a.57.57,0,0,0,.15.06h.06s0,0,0,0a.06.06,0,0,0,0,0l0-.05-.15-.08-.15-.06h-.06Z"/><path class="cls-2" d="M29.42,78.57a.18.18,0,0,1,.13-.11.43.43,0,0,1,.27.05.45.45,0,0,1,.22.17.2.2,0,0,1-.13.28.44.44,0,0,1-.27-.06.42.42,0,0,1-.21-.18A.18.18,0,0,1,29.42,78.57Zm.1,0a.05.05,0,0,0,0,0,.12.12,0,0,0,0,0l.14.08.15.06h.07s0,0,0,0a.06.06,0,0,0,0,0,.11.11,0,0,0,0,0l-.14-.08-.15-.06h-.06A0,0,0,0,0,29.52,78.62Z"/><path class="cls-2" d="M30.23,78.14l.11.05-.19.41a.26.26,0,0,1-.1-.09,1.06,1.06,0,0,1-.08-.2,1,1,0,0,0-.05-.14.15.15,0,0,0-.06-.06h-.07a.09.09,0,0,0,0,0,.09.09,0,0,0,0,.07.15.15,0,0,0,.06.06l-.06.11a.24.24,0,0,1-.11-.13.26.26,0,0,1,0-.16.22.22,0,0,1,.12-.12.18.18,0,0,1,.14,0L30,78a.36.36,0,0,1,.06.09.62.62,0,0,1,0,.11l0,.1,0,0Z"/><path class="cls-2" d="M26.32,78l.11.05-.19.41a.36.36,0,0,1-.1-.09,1,1,0,0,1-.08-.2,1.19,1.19,0,0,0-.05-.14.15.15,0,0,0-.06-.06h-.07a.09.09,0,0,0,0,.05.08.08,0,0,0,0,.06.12.12,0,0,0,.06.06l-.07.11a.23.23,0,0,1-.11-.13.26.26,0,0,1,0-.16.21.21,0,0,1,.12-.12.17.17,0,0,1,.14,0l.07.05.05.08a.78.78,0,0,1,0,.11l0,.1,0,0Z"/><path class="cls-2" d="M25.94,77.53a.18.18,0,0,1,.13-.11.43.43,0,0,1,.28.05.42.42,0,0,1,.22.18.18.18,0,0,1,0,.17.2.2,0,0,1-.13.11.45.45,0,0,1-.27-.06.42.42,0,0,1-.22-.18A.17.17,0,0,1,25.94,77.53Zm.1,0a.05.05,0,0,0,0,0l0,0,.14.08a.56.56,0,0,0,.15.06h.07a0,0,0,0,0,0,0,.05.05,0,0,0,0,0s0,0,0-.05l-.14-.08-.15-.06h-.07Z"/><path class="cls-2" d="M26.16,77.05a.18.18,0,0,1,.13-.11.45.45,0,0,1,.28.06.44.44,0,0,1,.22.17.2.2,0,0,1-.13.28.44.44,0,0,1-.27-.06.41.41,0,0,1-.21-.18A.18.18,0,0,1,26.16,77.05Zm.1,0a0,0,0,0,0,0,0,.1.1,0,0,0,0,0l.14.08.15.05h.06l0,0a.06.06,0,0,0,0,0,.09.09,0,0,0,0,0l-.15-.08-.15-.06h-.06A.06.06,0,0,0,26.26,77.1Z"/><path class="cls-2" d="M26.38,76.58a.19.19,0,0,1,.13-.11.46.46,0,0,1,.27.06.46.46,0,0,1,.22.17.2.2,0,0,1-.14.28.46.46,0,0,1-.27-.06.47.47,0,0,1-.22-.17A.19.19,0,0,1,26.38,76.58Zm.1,0a.09.09,0,0,0,0,0l0,0,.14.08.15.06h.07l0,0a.06.06,0,0,0,0,0,.1.1,0,0,0,0,0l-.15-.08-.15-.06h-.07Z"/><path class="cls-2" d="M23.16,76.73l-.05.11-.44-.2a.48.48,0,0,1,0,.19l-.11,0a.31.31,0,0,0,0-.13.27.27,0,0,0-.07-.12l0-.09Z"/><path class="cls-2" d="M23.1,76.49l0-.12h.06a.06.06,0,0,0,0,0,.08.08,0,0,0,0-.08.39.39,0,0,0-.12-.1.15.15,0,0,1,0,.14.17.17,0,0,1-.11.1.21.21,0,0,1-.17,0,.23.23,0,0,1-.12-.12.21.21,0,0,1,.15-.28.39.39,0,0,1,.26,0,.42.42,0,0,1,.21.17.22.22,0,0,1,0,.2.2.2,0,0,1-.09.1A.22.22,0,0,1,23.1,76.49ZM23,76.11a.16.16,0,0,0-.1,0,.09.09,0,0,0-.06,0,.08.08,0,0,0,0,.07.14.14,0,0,0,.07.06.14.14,0,0,0,.1,0,.1.1,0,0,0,.06,0,.1.1,0,0,0,0-.07A.13.13,0,0,0,23,76.11Z"/><path class="cls-2" d="M23.32,76l0-.12h.06l0,0a.08.08,0,0,0,0-.07.28.28,0,0,0-.12-.1.14.14,0,0,1,0,.13.18.18,0,0,1-.11.1.22.22,0,0,1-.17,0,.24.24,0,0,1-.12-.12.22.22,0,0,1,.15-.29.41.41,0,0,1,.26.05.43.43,0,0,1,.21.17.22.22,0,0,1,0,.19.18.18,0,0,1-.09.1A.18.18,0,0,1,23.32,76Zm-.13-.38a.15.15,0,0,0-.1,0,.08.08,0,0,0-.06.11.18.18,0,0,0,.07.06.17.17,0,0,0,.1,0,.08.08,0,0,0,.06,0,.08.08,0,0,0,0-.07A.12.12,0,0,0,23.19,75.64Z"/><path class="cls-2" d="M23.4,75.36a.14.14,0,0,1-.08,0h-.08a.17.17,0,0,1-.09-.1.23.23,0,0,1,0-.16.23.23,0,0,1,.11-.11.17.17,0,0,1,.2.06.16.16,0,0,1,0,.09.18.18,0,0,1,.1,0,.16.16,0,0,1,.1,0,.21.21,0,0,1,.11.12.26.26,0,0,1-.12.29.18.18,0,0,1-.17,0,.19.19,0,0,1-.08-.07A.2.2,0,0,1,23.4,75.36Zm-.1-.08h.06a.08.08,0,0,0,0,0,.07.07,0,0,0,0-.06.09.09,0,0,0,0,0H23.3a.07.07,0,0,0,0,0,.08.08,0,0,0,0,.07A.08.08,0,0,0,23.29,75.29Zm.25.13a.12.12,0,0,0,.09,0,.09.09,0,0,0,.06,0,.07.07,0,0,0,0-.07.1.1,0,0,0-.06-.06.11.11,0,0,0-.08,0,.1.1,0,0,0-.05,0,.09.09,0,0,0,0,.08A.11.11,0,0,0,23.55,75.42Z"/><polygon class="cls-6" points="30.44 57.07 29.83 56.79 22.67 72.14 23.28 72.42 30.44 57.07"/><polygon class="cls-7" points="37.67 43.87 37.06 43.58 23.55 72.55 24.16 72.83 37.67 43.87"/><rect class="cls-8" x="17.4" y="61.25" width="25.4" height="0.67" transform="translate(-38.44 62.88) rotate(-65.04)"/><rect class="cls-6" x="19.48" y="63.55" width="21.22" height="0.67" transform="translate(-40.53 64.2) rotate(-65.04)"/><rect class="cls-8" x="21.78" y="66.21" width="16.27" height="0.67" transform="translate(-43.03 65.49) rotate(-64.97)"/><polygon class="cls-6" points="33.55 61.82 32.95 61.54 27.05 74.18 27.66 74.46 33.55 61.82"/><polygon class="cls-8" points="32.75 65.83 32.14 65.55 27.93 74.59 28.54 74.87 32.75 65.83"/><rect class="cls-9" x="21.06" y="62.17" width="27.87" height="0.67" transform="translate(-36.44 67.81) rotate(-65)"/><rect class="cls-8" x="24.94" y="65.34" width="23.6" height="0.67" transform="translate(-38.31 71.17) rotate(-64.97)"/><rect class="cls-9" x="22.68" y="60.83" width="34.47" height="0.67" transform="translate(-32.41 71.34) rotate(-64.89)"/><rect class="cls-6" x="24.1" y="62.09" width="32.57" height="0.67" transform="translate(-33.26 72.69) rotate(-65.04)"/><rect class="cls-7" x="25.51" y="63.34" width="30.71" height="0.67" transform="translate(-34.1 73.91) rotate(-65.07)"/><rect class="cls-6" x="27.74" y="65.87" width="26.03" height="0.67" transform="translate(-36.47 75.21) rotate(-65.04)"/><rect class="cls-9" x="30.75" y="69.64" width="18.62" height="0.67" transform="translate(-40.29 76.72) rotate(-65)"/><rect class="cls-8" x="34.13" y="73.97" width="9.97" height="0.67" transform="translate(-44.75 78.46) rotate(-65.07)"/><rect class="cls-7" x="33.19" y="71.53" width="16.25" height="0.67" transform="translate(-41.28 78.88) rotate(-64.96)"/><rect class="cls-8" x="35.64" y="72.45" width="16.94" height="0.67" transform="translate(-40.49 82.11) rotate(-65.07)"/><rect class="cls-6" x="35.17" y="70.76" width="21.58" height="0.67" transform="translate(-37.89 82.71) rotate(-65)"/><rect class="cls-8" x="34.94" y="69.43" width="25.4" height="0.67" transform="translate(-35.72 83.46) rotate(-65)"/><rect class="cls-9" x="37.02" y="71.73" width="21.22" height="0.67" transform="translate(-37.81 84.79) rotate(-65)"/><rect class="cls-8" x="39.33" y="74.39" width="16.27" height="0.67" transform="translate(-40.33 86.05) rotate(-64.93)"/><rect class="cls-6" x="40.88" y="75.85" width="13.95" height="0.67" transform="translate(-41.41 87.4) rotate(-65.03)"/><rect class="cls-8" x="38.26" y="70.78" width="26.03" height="0.67" transform="translate(-34.86 87.48) rotate(-64.96)"/><rect class="cls-7" x="38.61" y="70.35" width="27.87" height="0.67" transform="translate(-33.74 88.38) rotate(-64.96)"/><rect class="cls-9" x="40.33" y="70.14" width="31.07" height="0.67" transform="translate(-31.62 91.33) rotate(-65)"/><rect class="cls-7" x="40.95" y="70.14" width="31.96" height="0.67" transform="translate(-30.99 92.34) rotate(-65.04)"/><rect class="cls-8" x="43.72" y="73.52" width="25.4" height="0.67" transform="translate(-34.34 93.91) rotate(-65.08)"/><rect class="cls-6" x="43.38" y="72.03" width="29.6" height="0.67" transform="translate(-31.99 94.51) rotate(-65)"/><rect class="cls-8" x="44.85" y="73.38" width="27.52" height="0.67" transform="translate(-32.98 95.63) rotate(-64.96)"/><rect class="cls-9" x="46.34" y="74.75" width="25.4" height="0.67" transform="translate(-33.94 96.93) rotate(-65.04)"/><rect class="cls-6" x="46.7" y="74.35" width="27.18" height="0.67" transform="translate(-32.88 97.76) rotate(-65)"/><rect class="cls-7" x="47.38" y="74.45" width="27.87" height="0.67" transform="translate(-32.39 98.69) rotate(-64.96)"/><path class="cls-2" d="M111.8,87,78.34,71.41,93.69,38.51a.44.44,0,0,0-.08-.5l0,0h0l0,0-.08-.05-.08,0-2.07-1A.24.24,0,0,0,91,37a.24.24,0,0,0,.11.31l1.74.81-.64,1.36-.78-.36a.14.14,0,0,0-.2.07.15.15,0,0,0,.07.2l.78.36L91.56,41l-1.74-.81a.24.24,0,0,0-.2.43l1.74.81-.56,1.2L90,42.24a.15.15,0,1,0-.12.27l.78.36-.61,1.31-1.74-.81a.24.24,0,0,0-.31.12.24.24,0,0,0,.11.31l1.74.81L89.23,46l-.78-.36a.15.15,0,0,0-.2.08.15.15,0,0,0,.07.19l.78.36-.55,1.18-1.74-.81a.24.24,0,0,0-.2.43l1.74.81-.63,1.36-.78-.36a.15.15,0,1,0-.12.27l.78.36L87,50.66l-1.74-.81A.24.24,0,0,0,85,50a.24.24,0,0,0,.11.31l1.74.81-.66,1.41-.78-.36a.15.15,0,0,0-.13.27l.78.36-.6,1.29-1.74-.81a.24.24,0,0,0-.31.12.23.23,0,0,0,.11.31l1.74.81L84.57,56l-.78-.36a.15.15,0,0,0-.2.07.15.15,0,0,0,.07.2l.78.36-.65,1.4-1.74-.81a.24.24,0,0,0-.2.43l1.74.81-.76,1.63-.78-.36a.15.15,0,1,0-.12.27l.78.36-.63,1.34-1.74-.81a.24.24,0,0,0-.31.12.23.23,0,0,0,.11.31l1.74.81L81.1,63.4,80.33,63a.15.15,0,0,0-.2.07.15.15,0,0,0,.07.2l.78.36-.59,1.26-1.74-.81a.24.24,0,0,0-.2.43l1.74.81-.69,1.47-.78-.36a.15.15,0,1,0-.12.27l.78.36-.54,1.15-1.74-.81a.23.23,0,0,0-.2.43l1.74.81L78,70l-.78-.36a.15.15,0,1,0-.12.27l.78.36-.53,1.13-1.74-.81a.24.24,0,0,0-.2.43l2,.91a.47.47,0,0,0,.16.13l1.82.85-.8,1.73a.24.24,0,0,0,.43.2l.81-1.73,1.36.63-.36.77a.15.15,0,0,0,.07.2.15.15,0,0,0,.2-.07l.36-.77,1.18.55-.8,1.73a.24.24,0,0,0,.43.2l.8-1.73,1.2.56-.36.77a.15.15,0,0,0,.27.12l.36-.76,1.31.61L85,77.61a.23.23,0,0,0,.12.31.24.24,0,0,0,.31-.11l.8-1.73,1.36.63-.36.76a.15.15,0,0,0,.27.12l.36-.76,1.18.55-.8,1.73a.24.24,0,0,0,.43.2l.81-1.73,1.36.64-.36.76a.15.15,0,0,0,.07.2.14.14,0,0,0,.19-.07l.36-.77,1.18.55-.8,1.73a.24.24,0,0,0,.43.2l.8-1.73,1.41.66-.36.76a.15.15,0,0,0,.27.13l.36-.77,1.29.6-.81,1.73a.24.24,0,0,0,.12.31.24.24,0,0,0,.31-.11l.8-1.73,1.47.69-.36.76a.14.14,0,0,0,.07.19.15.15,0,0,0,.2-.07l.36-.77,1.4.65-.8,1.73a.24.24,0,0,0,.43.2l.81-1.73,1.63.76-.36.76a.14.14,0,0,0,.07.19.15.15,0,0,0,.2-.07l.36-.76,1.34.63-.8,1.73a.23.23,0,0,0,.43.2l.8-1.73,1.68.78-.36.76a.15.15,0,0,0,.27.13l.36-.76,1.26.59-.8,1.73a.24.24,0,0,0,.43.2l.8-1.73,1.47.68-.36.76a.15.15,0,0,0,.07.2.15.15,0,0,0,.2-.07l.36-.76,1.15.54-.8,1.73a.24.24,0,0,0,.11.31.23.23,0,0,0,.31-.11l.81-1.73,1.11.52a.44.44,0,0,0,.38-.8Z"/><path class="cls-2" d="M75.72,71.63a.17.17,0,0,1,.11.13.42.42,0,0,1-.05.27.43.43,0,0,1-.17.22.18.18,0,0,1-.17,0,.2.2,0,0,1-.11-.13.46.46,0,0,1,.06-.27.44.44,0,0,1,.17-.22A.18.18,0,0,1,75.72,71.63Zm0,.1h0l0,0a.91.91,0,0,0-.08.15.64.64,0,0,0-.06.15.1.1,0,0,0,0,.07l0,0h0l0,0a.56.56,0,0,0,.08-.15.57.57,0,0,0,.06-.15s0-.05,0-.06Z"/><path class="cls-2" d="M75.92,71.91a.19.19,0,0,1,.09-.11.13.13,0,0,1,.11,0,.15.15,0,0,1,.08.09.19.19,0,0,1,0,.14.22.22,0,0,1-.09.11.15.15,0,0,1-.12,0,.13.13,0,0,1-.08-.08A.2.2,0,0,1,75.92,71.91ZM76,72A.21.21,0,0,0,76,72l0,0h0A.19.19,0,0,0,76.1,72a.16.16,0,0,0,0-.09,0,0,0,0,0,0,0h0A.18.18,0,0,0,76,72Zm-.09.54-.08,0,.62-.49.08,0Zm.26-.07a.2.2,0,0,1,.1-.11.16.16,0,0,1,.12,0,.17.17,0,0,1,.08.08.23.23,0,0,1,0,.14.22.22,0,0,1-.09.11.15.15,0,0,1-.12,0,.14.14,0,0,1-.08-.08A.2.2,0,0,1,76.18,72.42Zm.09,0a.22.22,0,0,0,0,.08l0,0h0a.23.23,0,0,0,.07-.16,0,0,0,0,0,0,0h0A.2.2,0,0,0,76.27,72.47Z"/><path class="cls-2" d="M76.64,68.68l-.12-.06.2-.44a.44.44,0,0,1-.19,0l0-.1h.13a.25.25,0,0,0,.12-.06l.1,0Z"/><path class="cls-2" d="M77.3,68.24a.18.18,0,0,1,.11.13.44.44,0,0,1-.06.28.45.45,0,0,1-.17.22.18.18,0,0,1-.17,0,.2.2,0,0,1-.11-.14.63.63,0,0,1,.24-.49A.19.19,0,0,1,77.3,68.24Zm0,.1h0l-.05,0a.87.87,0,0,0-.08.15.79.79,0,0,0-.06.15.09.09,0,0,0,0,.06.06.06,0,0,0,0,0h0l0,0a.55.55,0,0,0,.08-.14.57.57,0,0,0,.06-.15.15.15,0,0,0,0-.07Z"/><path class="cls-2" d="M77.51,68.52a.18.18,0,0,1,.09-.1.14.14,0,0,1,.12,0,.16.16,0,0,1,.08.09.24.24,0,0,1-.11.24.15.15,0,0,1-.12,0,.13.13,0,0,1-.08-.09A.18.18,0,0,1,77.51,68.52Zm.09,0a.19.19,0,0,0,0,.09,0,0,0,0,0,0,0h0a.26.26,0,0,0,.08-.16,0,0,0,0,0,0,0h0A.2.2,0,0,0,77.6,68.56Zm-.1.54-.09,0,.62-.49.08,0Zm.26-.07a.18.18,0,0,1,.09-.1.13.13,0,0,1,.12,0,.15.15,0,0,1,.08.08.2.2,0,0,1,0,.14.22.22,0,0,1-.09.11.15.15,0,0,1-.12,0,.14.14,0,0,1-.08-.08A.2.2,0,0,1,77.76,69Zm.09,0a.23.23,0,0,0,0,.08,0,0,0,0,0,0,0h0a.16.16,0,0,0,.05-.07S78,69,78,69a0,0,0,0,0,0,0h0A.22.22,0,0,0,77.85,69.07Z"/><path class="cls-2" d="M78.31,65.35l-.05.11-.41-.19a.36.36,0,0,1,.1-.1.86.86,0,0,1,.2-.08l.14-.05a.12.12,0,0,0,.06-.06.09.09,0,0,0,0-.07.09.09,0,0,0,0,0h-.07a.15.15,0,0,0-.06.06l-.11-.06a.22.22,0,0,1,.13-.11.23.23,0,0,1,.16,0,.21.21,0,0,1,.12.11.17.17,0,0,1,0,.15.2.2,0,0,1-.05.07l-.08.05-.11,0-.1,0,0,0Z"/><path class="cls-2" d="M78.82,65a.18.18,0,0,1,.11.13.45.45,0,0,1-.05.27.47.47,0,0,1-.18.22.18.18,0,0,1-.17,0,.21.21,0,0,1-.11-.14.48.48,0,0,1,.06-.27.46.46,0,0,1,.17-.22A.18.18,0,0,1,78.82,65Zm0,.1h0l0,0a.9.9,0,0,0-.08.15.84.84,0,0,0-.06.15.13.13,0,0,0,0,.06l0,0h0l0,0a.65.65,0,0,0,.08-.15.79.79,0,0,0,.06-.15s0-.05,0-.06Z"/><path class="cls-2" d="M79,65.26a.18.18,0,0,1,.09-.1.13.13,0,0,1,.11,0,.15.15,0,0,1,.08.09.19.19,0,0,1,0,.14.19.19,0,0,1-.09.11.14.14,0,0,1-.12,0A.12.12,0,0,1,79,65.4.17.17,0,0,1,79,65.26Zm.09,0a.21.21,0,0,0,0,.08s0,0,0,0h0a.17.17,0,0,0,.05-.07.16.16,0,0,0,0-.09,0,0,0,0,0,0,0h0A.16.16,0,0,0,79.11,65.31Zm-.09.54-.08,0,.62-.49.08,0Zm.26-.07a.18.18,0,0,1,.09-.1.13.13,0,0,1,.12,0,.15.15,0,0,1,.08.09.2.2,0,0,1,0,.14.19.19,0,0,1-.09.11.14.14,0,0,1-.12,0,.13.13,0,0,1-.08-.08A.18.18,0,0,1,79.28,65.78Zm.09,0a.21.21,0,0,0,0,.08,0,0,0,0,0,0,0h0a.14.14,0,0,0,.05-.07s0-.07,0-.09a0,0,0,0,0,0,0h0A.18.18,0,0,0,79.37,65.82Z"/><path class="cls-2" d="M79.61,61.52l.12,0a.14.14,0,0,0,0,.08.08.08,0,0,0,0,0,.08.08,0,0,0,.07,0,.12.12,0,0,0,.06-.06.12.12,0,0,0,0-.08.08.08,0,0,0,0-.05l-.06,0,.06-.09a.11.11,0,0,0,.08,0,.08.08,0,0,0,.05,0,.07.07,0,0,0,0-.06.08.08,0,0,0,0,0h-.06a.12.12,0,0,0-.05.05l-.1-.07a.22.22,0,0,1,.07-.07l.09,0,.1,0a.2.2,0,0,1,.11.12.16.16,0,0,1,0,.12.16.16,0,0,1-.15.09.14.14,0,0,1,.06.09.14.14,0,0,1,0,.11.19.19,0,0,1-.12.11.24.24,0,0,1-.29-.12A.2.2,0,0,1,79.61,61.52Z"/><path class="cls-2" d="M80.49,61.39a.17.17,0,0,1,.11.13.59.59,0,0,1-.23.5.19.19,0,0,1-.17,0,.2.2,0,0,1-.11-.14.44.44,0,0,1,.06-.27.48.48,0,0,1,.17-.22A.19.19,0,0,1,80.49,61.39Zm0,.09h0l0,0a1.05,1.05,0,0,0-.08.15.7.7,0,0,0-.06.15.12.12,0,0,0,0,.07l0,0h0l0,0a.52.52,0,0,0,.08-.14.74.74,0,0,0,.06-.15.18.18,0,0,0,0-.07Z"/><path class="cls-2" d="M80.7,61.67a.18.18,0,0,1,.09-.11.13.13,0,0,1,.11,0,.14.14,0,0,1,.08.08.25.25,0,0,1-.11.24.15.15,0,0,1-.12,0,.14.14,0,0,1-.08-.08A.17.17,0,0,1,80.7,61.67Zm.09,0a.21.21,0,0,0,0,.09l0,0h0a.19.19,0,0,0,.05-.07.2.2,0,0,0,0-.09,0,0,0,0,0,0,0h0A.17.17,0,0,0,80.79,61.71Zm-.09.54-.09,0,.62-.49.08,0Zm.26-.07a.18.18,0,0,1,.09-.1.14.14,0,0,1,.12,0,.15.15,0,0,1,.08.09.19.19,0,0,1,0,.14.21.21,0,0,1-.09.11.15.15,0,0,1-.12,0,.14.14,0,0,1-.08-.08A.2.2,0,0,1,81,62.18Zm.09,0a.24.24,0,0,0,0,.08,0,0,0,0,0,0,0h0a.18.18,0,0,0,.05-.08.16.16,0,0,0,0-.09l0,0h0A.23.23,0,0,0,81,62.22Z"/><path class="cls-2" d="M81.47,58.13l.06-.12-.25-.12,0-.1.45-.26.1,0-.18.39.08,0,0,.1-.08,0-.06.12Zm.1-.22.1-.21-.24.15Z"/><path class="cls-2" d="M82.2,57.73a.18.18,0,0,1,.11.13.45.45,0,0,1-.06.28.44.44,0,0,1-.17.22.17.17,0,0,1-.17,0,.19.19,0,0,1-.11-.13.44.44,0,0,1,.06-.27.45.45,0,0,1,.17-.22A.18.18,0,0,1,82.2,57.73Zm0,.1h0l0,0A1,1,0,0,0,82,58a.86.86,0,0,0-.06.15.12.12,0,0,0,0,.07l0,0h0l0,0a.6.6,0,0,0,.08-.15.56.56,0,0,0,.06-.15.11.11,0,0,0,0-.07Z"/><path class="cls-2" d="M82.4,58a.18.18,0,0,1,.09-.11.13.13,0,0,1,.11,0,.15.15,0,0,1,.08.09.2.2,0,0,1,0,.14.21.21,0,0,1-.09.11.15.15,0,0,1-.12,0,.13.13,0,0,1-.08-.08A.19.19,0,0,1,82.4,58Zm.09,0a.18.18,0,0,0,0,.09s0,0,0,0h0a.2.2,0,0,0,.05-.07.18.18,0,0,0,0-.09,0,0,0,0,0,0,0h0S82.51,58,82.49,58.05Zm-.09.54-.08,0,.62-.49.08,0Zm.26-.07a.18.18,0,0,1,.09-.1.13.13,0,0,1,.12,0,.14.14,0,0,1,.08.09.18.18,0,0,1,0,.13.2.2,0,0,1-.09.11.16.16,0,0,1-.12,0,.14.14,0,0,1-.08-.08A.19.19,0,0,1,82.66,58.52Zm.09,0a.18.18,0,0,0,0,.08,0,0,0,0,0,0,0h0a.15.15,0,0,0,.05-.07.16.16,0,0,0,0-.09,0,0,0,0,0,0,0h0A.25.25,0,0,0,82.75,58.57Z"/><path class="cls-2" d="M83,54.27l.12,0a.17.17,0,0,0,0,.08.09.09,0,0,0,0,0,.08.08,0,0,0,.08,0,.16.16,0,0,0,.07-.08.14.14,0,0,0,0-.1.09.09,0,0,0-.05-.06.12.12,0,0,0-.11,0l-.09-.06.21-.29.31.14-.05.11-.22-.1-.07.1a.15.15,0,0,1,.09,0,.21.21,0,0,1,.11.12.21.21,0,0,1,0,.17.24.24,0,0,1-.11.12.24.24,0,0,1-.32-.11A.21.21,0,0,1,83,54.27Z"/><path class="cls-2" d="M83.88,54.13a.18.18,0,0,1,.11.13.45.45,0,0,1-.05.27.48.48,0,0,1-.18.23.19.19,0,0,1-.16,0,.19.19,0,0,1-.11-.14.44.44,0,0,1,.06-.27.44.44,0,0,1,.17-.21A.19.19,0,0,1,83.88,54.13Zm0,.1h0l-.05,0-.08.14a.74.74,0,0,0-.06.16.09.09,0,0,0,0,.07l0,0h0l0,0a.6.6,0,0,0,.09-.15.8.8,0,0,0,.06-.15.13.13,0,0,0,0-.07Z"/><path class="cls-2" d="M84.08,54.41a.19.19,0,0,1,.09-.1.14.14,0,0,1,.12,0,.15.15,0,0,1,.08.09.19.19,0,0,1,0,.13.2.2,0,0,1-.09.11.15.15,0,0,1-.12,0,.14.14,0,0,1-.08-.09A.18.18,0,0,1,84.08,54.41Zm.09,0a.21.21,0,0,0,0,.09l0,0h0a.22.22,0,0,0,.05-.08.21.21,0,0,0,0-.09l0,0h0A.19.19,0,0,0,84.17,54.45Zm-.1.54L84,55l.63-.49.08,0Zm.26-.07a.18.18,0,0,1,.09-.11.15.15,0,0,1,.12,0,.16.16,0,0,1,.08.08.2.2,0,0,1,0,.14.2.2,0,0,1-.09.11.14.14,0,0,1-.12,0,.13.13,0,0,1-.08-.09A.18.18,0,0,1,84.34,54.92Zm.09,0a.27.27,0,0,0,0,.08,0,0,0,0,0,0,0h0a.16.16,0,0,0,.05-.07.12.12,0,0,0,0-.08,0,0,0,0,0,0,0h0A.24.24,0,0,0,84.43,55Z"/><path class="cls-2" d="M85.13,50.71l-.12,0a.09.09,0,0,0,0-.06.07.07,0,0,0,0,0,.08.08,0,0,0-.08,0,.3.3,0,0,0-.1.13.14.14,0,0,1,.13,0,.18.18,0,0,1,.1.11A.22.22,0,0,1,85,51a.22.22,0,0,1-.12.13.21.21,0,0,1-.17,0,.22.22,0,0,1-.12-.14.43.43,0,0,1,.05-.27.39.39,0,0,1,.18-.21.21.21,0,0,1,.19,0,.2.2,0,0,1,.1.09A.2.2,0,0,1,85.13,50.71Zm-.38.13a.13.13,0,0,0,0,.1.09.09,0,0,0,0,.06.07.07,0,0,0,.06,0,.19.19,0,0,0,.08-.17.08.08,0,0,0,0-.06.08.08,0,0,0-.07,0A.12.12,0,0,0,84.75,50.85Z"/><path class="cls-2" d="M85.48,50.69a.18.18,0,0,1,.11.13.45.45,0,0,1-.06.28.46.46,0,0,1-.18.22.18.18,0,0,1-.16,0,.2.2,0,0,1-.11-.14.45.45,0,0,1,.06-.27.45.45,0,0,1,.17-.22A.18.18,0,0,1,85.48,50.69Zm0,.1h0l0,0a.78.78,0,0,0-.08.15.68.68,0,0,0-.06.15.13.13,0,0,0,0,.07l0,0h0l0,0a.52.52,0,0,0,.08-.14.62.62,0,0,0,.06-.15s0-.05,0-.06Z"/><path class="cls-2" d="M85.69,51a.2.2,0,0,1,.09-.11.13.13,0,0,1,.11,0A.15.15,0,0,1,86,51a.21.21,0,0,1,0,.14.21.21,0,0,1-.09.11.16.16,0,0,1-.12,0,.14.14,0,0,1-.08-.09A.19.19,0,0,1,85.69,51Zm.09,0a.18.18,0,0,0,0,.08,0,0,0,0,0,0,0h0a.17.17,0,0,0,.05-.07.2.2,0,0,0,0-.09,0,0,0,0,0,0,0h0A.19.19,0,0,0,85.78,51Zm-.09.54-.08,0,.62-.49.08,0Zm.26-.07a.18.18,0,0,1,.09-.1.14.14,0,0,1,.11,0,.15.15,0,0,1,.08.08.21.21,0,0,1,0,.14.21.21,0,0,1-.09.11.15.15,0,0,1-.12,0,.14.14,0,0,1-.08-.08A.19.19,0,0,1,85.95,51.49Zm.09,0a.26.26,0,0,0,0,.08l0,0h0a.17.17,0,0,0,.05-.07.16.16,0,0,0,0-.09,0,0,0,0,0,0,0h0A.21.21,0,0,0,86,51.53Z"/><path class="cls-2" d="M86.24,47.3l.05-.11.4.19,0,.08a.64.64,0,0,0-.16.09.76.76,0,0,0-.17.16.74.74,0,0,0-.11.17l-.11-.05a.88.88,0,0,1,.17-.24,1,1,0,0,1,.24-.17Z"/><path class="cls-2" d="M87,47.49a.18.18,0,0,1,.11.13.46.46,0,0,1-.06.28.44.44,0,0,1-.18.22.18.18,0,0,1-.16,0,.2.2,0,0,1-.11-.13.44.44,0,0,1,.06-.27.48.48,0,0,1,.17-.22A.2.2,0,0,1,87,47.49Zm0,.1h0l0,0a.85.85,0,0,0-.08.15.71.71,0,0,0-.06.15.1.1,0,0,0,0,.07l0,0h0l0,0a.55.55,0,0,0,.08-.14.73.73,0,0,0,.06-.16.17.17,0,0,0,0-.07Z"/><path class="cls-2" d="M87.18,47.78a.17.17,0,0,1,.09-.11.12.12,0,0,1,.11,0,.15.15,0,0,1,.08.09.19.19,0,0,1,0,.14.19.19,0,0,1-.09.1.14.14,0,0,1-.12,0,.13.13,0,0,1-.08-.08A.18.18,0,0,1,87.18,47.78Zm.09,0a.18.18,0,0,0,0,.09s0,0,0,0h0a.2.2,0,0,0,.05-.07.21.21,0,0,0,0-.09s0,0,0,0h0A.17.17,0,0,0,87.27,47.82Zm-.09.54-.09,0,.62-.49.08,0Zm.26-.07a.19.19,0,0,1,.09-.1.14.14,0,0,1,.12,0,.16.16,0,0,1,.08.08.23.23,0,0,1,0,.14.23.23,0,0,1-.09.11.16.16,0,0,1-.12,0,.15.15,0,0,1-.08-.08A.2.2,0,0,1,87.44,48.29Zm.09,0a.27.27,0,0,0,0,.09l0,0h0a.18.18,0,0,0,.05-.07.17.17,0,0,0,0-.09s0,0,0,0h0A.24.24,0,0,0,87.53,48.33Z"/><path class="cls-2" d="M87.79,44.25a.13.13,0,0,1,0-.08.14.14,0,0,1,0-.08.15.15,0,0,1,.1-.09.24.24,0,0,1,.27.12.15.15,0,0,1,0,.13.13.13,0,0,1-.05.06.12.12,0,0,1-.09,0,.23.23,0,0,1,.05.1.19.19,0,0,1,0,.1.19.19,0,0,1-.12.11.23.23,0,0,1-.17,0,.24.24,0,0,1-.12-.11.18.18,0,0,1,0-.17.17.17,0,0,1,.06-.08A.19.19,0,0,1,87.79,44.25Zm-.05.15a.12.12,0,0,0,0,.08.1.1,0,0,0,.05.06.09.09,0,0,0,.07,0,.13.13,0,0,0,.06-.06.12.12,0,0,0,0-.08.08.08,0,0,0-.05-.06.08.08,0,0,0-.08,0A.12.12,0,0,0,87.73,44.41Zm.13-.26a.08.08,0,0,0,0,.06.08.08,0,0,0,0,0H88a.08.08,0,0,0,0,0,.08.08,0,0,0,0-.06.09.09,0,0,0,0,0h-.06A.09.09,0,0,0,87.87,44.15Z"/><path class="cls-2" d="M88.49,44.24a.18.18,0,0,1,.11.13.46.46,0,0,1-.06.27.44.44,0,0,1-.18.22.18.18,0,0,1-.17,0,.2.2,0,0,1-.11-.14.62.62,0,0,1,.23-.49A.18.18,0,0,1,88.49,44.24Zm0,.09h0l0,0a.92.92,0,0,0-.08.15.74.74,0,0,0-.06.15.1.1,0,0,0,0,.07l0,0h0l0,0a.55.55,0,0,0,.08-.15.63.63,0,0,0,.06-.15.14.14,0,0,0,0-.07Z"/><path class="cls-2" d="M88.7,44.52a.18.18,0,0,1,.09-.11.13.13,0,0,1,.11,0,.14.14,0,0,1,.08.08.19.19,0,0,1,0,.14.19.19,0,0,1-.09.1.14.14,0,0,1-.12,0,.13.13,0,0,1-.08-.09A.17.17,0,0,1,88.7,44.52Zm.09,0a.17.17,0,0,0,0,.09,0,0,0,0,0,0,0h0a.18.18,0,0,0,.05-.07.19.19,0,0,0,0-.09,0,0,0,0,0,0,0h0A.19.19,0,0,0,88.79,44.56Zm-.09.54-.09,0,.62-.49.08,0ZM89,45a.18.18,0,0,1,.09-.1.13.13,0,0,1,.12,0,.13.13,0,0,1,.08.08.18.18,0,0,1,0,.14.19.19,0,0,1-.09.1.16.16,0,0,1-.2-.09A.19.19,0,0,1,89,45Zm.09,0a.24.24,0,0,0,0,.08,0,0,0,0,0,0,0h0s0,0,0-.07a.16.16,0,0,0,0-.09,0,0,0,0,0,0,0h0A.23.23,0,0,0,89,45.08Z"/><path class="cls-2" d="M89.1,41.19l.12,0a.07.07,0,0,0,0,.06.06.06,0,0,0,0,0,.08.08,0,0,0,.08,0,.36.36,0,0,0,.1-.12.16.16,0,0,1-.13,0,.18.18,0,0,1-.1-.11.23.23,0,0,1,0-.17.22.22,0,0,1,.13-.12.19.19,0,0,1,.16,0,.21.21,0,0,1,.12.14.43.43,0,0,1-.05.26.41.41,0,0,1-.17.21.22.22,0,0,1-.19,0,.2.2,0,0,1-.1-.09A.21.21,0,0,1,89.1,41.19Zm.38-.13a.16.16,0,0,0,0-.1.08.08,0,0,0,0-.06.08.08,0,0,0-.07,0,.15.15,0,0,0-.06.07.18.18,0,0,0,0,.1.1.1,0,0,0,0,.05.09.09,0,0,0,.07,0A.12.12,0,0,0,89.48,41.06Z"/><path class="cls-2" d="M90,41a.18.18,0,0,1,.11.13.46.46,0,0,1-.05.28.46.46,0,0,1-.18.22.19.19,0,0,1-.17,0,.2.2,0,0,1-.11-.13.46.46,0,0,1,.06-.27.44.44,0,0,1,.17-.22A.18.18,0,0,1,90,41Zm0,.1h0l-.05,0a1,1,0,0,0-.08.15.64.64,0,0,0-.06.15.09.09,0,0,0,0,.07l0,0h0l0,0a.62.62,0,0,0,.08-.15.59.59,0,0,0,.06-.15.16.16,0,0,0,0-.07Z"/><path class="cls-2" d="M90.19,41.31a.19.19,0,0,1,.09-.11.13.13,0,0,1,.11,0,.15.15,0,0,1,.08.09.2.2,0,0,1,0,.14.2.2,0,0,1-.09.11.15.15,0,0,1-.12,0,.13.13,0,0,1-.08-.09A.18.18,0,0,1,90.19,41.31Zm.09,0a.21.21,0,0,0,0,.08s0,0,0,0h0a.18.18,0,0,0,.05-.07.2.2,0,0,0,0-.09,0,0,0,0,0,0,0h0S90.3,41.31,90.28,41.35Zm-.09.54-.08,0,.62-.49.08,0Zm.26-.07a.19.19,0,0,1,.09-.11.13.13,0,0,1,.12,0,.15.15,0,0,1,.08.08.26.26,0,0,1-.11.24.15.15,0,0,1-.12,0,.14.14,0,0,1-.08-.09A.18.18,0,0,1,90.45,41.82Zm.09,0a.18.18,0,0,0,0,.08,0,0,0,0,0,0,0h0a.16.16,0,0,0,.05-.07.17.17,0,0,0,0-.09,0,0,0,0,0,0,0h0Z"/><path class="cls-2" d="M90.3,38.16l-.12-.05.2-.44a.47.47,0,0,1-.19,0l0-.1h.13a.23.23,0,0,0,.12-.06l.1,0Z"/><path class="cls-2" d="M91,37.72a.18.18,0,0,1,.11.13.61.61,0,0,1-.23.5.18.18,0,0,1-.17,0,.18.18,0,0,1-.11-.13.46.46,0,0,1,.06-.27.45.45,0,0,1,.18-.22A.19.19,0,0,1,91,37.72Zm0,.1h0a.09.09,0,0,0,0,0,.9.9,0,0,0-.08.15.58.58,0,0,0-.06.15.13.13,0,0,0,0,.07l0,0h0l0,0a.6.6,0,0,0,.08-.15.68.68,0,0,0,.06-.15.11.11,0,0,0,0-.06Z"/><path class="cls-2" d="M91.43,37.94a.18.18,0,0,1,.11.12.45.45,0,0,1-.06.28.46.46,0,0,1-.17.22.17.17,0,0,1-.17,0,.19.19,0,0,1-.11-.14.47.47,0,0,1,.06-.27.46.46,0,0,1,.17-.22A.19.19,0,0,1,91.43,37.94Zm0,.1h0l0,0a.87.87,0,0,0-.08.15.8.8,0,0,0-.06.15.14.14,0,0,0,0,.07l0,0h0l0,0a.57.57,0,0,0,.09-.15.67.67,0,0,0,.06-.15.11.11,0,0,0,0-.06Z"/><path class="cls-2" d="M91.63,38.22a.18.18,0,0,1,.09-.1.13.13,0,0,1,.11,0,.15.15,0,0,1,.08.08.25.25,0,0,1-.11.24.14.14,0,0,1-.12,0,.13.13,0,0,1-.08-.09A.18.18,0,0,1,91.63,38.22Zm.09,0a.17.17,0,0,0,0,.09,0,0,0,0,0,0,0h0a.17.17,0,0,0,.05-.07.16.16,0,0,0,0-.08,0,0,0,0,0,0,0h0A.18.18,0,0,0,91.72,38.27Zm-.1.54-.09,0,.62-.49.08,0Zm.26-.07a.18.18,0,0,1,.09-.1.14.14,0,0,1,.12,0,.14.14,0,0,1,.08.08.19.19,0,0,1,0,.14.21.21,0,0,1-.09.11.15.15,0,0,1-.12,0,.14.14,0,0,1-.08-.09A.19.19,0,0,1,91.89,38.74Zm.09,0a.24.24,0,0,0,0,.08,0,0,0,0,0,0,0h0a.15.15,0,0,0,.05-.07.15.15,0,0,0,0-.09,0,0,0,0,0,0,0h0A.22.22,0,0,0,92,38.78Z"/><path class="cls-2" d="M110.4,89.4l.11.05-.19.41a.35.35,0,0,1-.1-.09,1,1,0,0,1-.08-.2l-.05-.14a.15.15,0,0,0-.06-.06h-.07a.12.12,0,0,0-.05.11.13.13,0,0,0,.06.06l-.07.11a.22.22,0,0,1-.11-.13.25.25,0,0,1,0-.16.22.22,0,0,1,.11-.12.18.18,0,0,1,.15,0l.07.05.05.08a.81.81,0,0,1,0,.11l0,.1,0,0Z"/><path class="cls-2" d="M110,88.89a.19.19,0,0,1,.13-.11.44.44,0,0,1,.28.06.43.43,0,0,1,.22.18.17.17,0,0,1,0,.17.18.18,0,0,1-.13.11.43.43,0,0,1-.27-.06.41.41,0,0,1-.22-.18A.18.18,0,0,1,110,88.89Zm.1,0a.05.05,0,0,0,0,0,.09.09,0,0,0,0,0l.15.08.15.06h.06a0,0,0,0,0,0,0,.06.06,0,0,0,0,0l0,0-.15-.08-.15-.06h-.07Z"/><path class="cls-2" d="M110.9,88.6l-.05.12-.44-.2a.35.35,0,0,1,0,.19l-.11,0a.35.35,0,0,0,0-.12.26.26,0,0,0-.06-.12l0-.09Z"/><path class="cls-2" d="M110.71,87.82l0,.12h-.06a.08.08,0,0,0,0,0,.08.08,0,0,0,0,.07.35.35,0,0,0,.12.1.16.16,0,0,1,0-.13.18.18,0,0,1,.11-.1.23.23,0,0,1,.17,0,.23.23,0,0,1,.13.12.22.22,0,0,1,0,.17.21.21,0,0,1-.14.12.41.41,0,0,1-.26-.05.42.42,0,0,1-.21-.17.23.23,0,0,1,0-.19.18.18,0,0,1,.09-.1A.21.21,0,0,1,110.71,87.82Zm.13.38a.13.13,0,0,0,.1,0,.08.08,0,0,0,.06,0,.07.07,0,0,0,0-.06.14.14,0,0,0-.07-.06.15.15,0,0,0-.1,0,.09.09,0,0,0-.05,0,.08.08,0,0,0,0,.07A.12.12,0,0,0,110.83,88.2Z"/><path class="cls-2" d="M107.07,87.85l.11.05-.19.41a.37.37,0,0,1-.1-.09,1.24,1.24,0,0,1-.08-.2l-.05-.14a.15.15,0,0,0-.06-.06h-.07a.09.09,0,0,0,0,.05.08.08,0,0,0,0,.07.12.12,0,0,0,.06.06l-.07.11a.21.21,0,0,1-.1-.13.25.25,0,0,1,0-.16.22.22,0,0,1,.11-.12.18.18,0,0,1,.14,0l.07,0,.06.08,0,.11,0,.1,0,0Z"/><path class="cls-2" d="M106.7,87.34a.19.19,0,0,1,.13-.11.43.43,0,0,1,.27.05.44.44,0,0,1,.22.18.18.18,0,0,1,0,.17.2.2,0,0,1-.13.11.44.44,0,0,1-.27-.06.42.42,0,0,1-.22-.18A.19.19,0,0,1,106.7,87.34Zm.09,0a.08.08,0,0,0,0,0,.1.1,0,0,0,0,0l.14.08a.54.54,0,0,0,.15.06h.07a0,0,0,0,0,0,0,.06.06,0,0,0,0,0l0,0-.15-.08-.15-.06h-.07Z"/><path class="cls-2" d="M107.58,87.05l-.06.12-.44-.2a.38.38,0,0,1,0,.19l-.1,0a.51.51,0,0,0,0-.13.25.25,0,0,0-.06-.12l0-.09Z"/><path class="cls-2" d="M107.76,86.65l-.12-.06-.11.24-.1,0-.26-.44,0-.1.38.18,0-.07.1,0,0,.07.12.06Zm-.22-.1-.21-.1.14.23Z"/><path class="cls-2" d="M103.36,86.12l.11.05-.19.41a.34.34,0,0,1-.1-.09,1,1,0,0,1-.08-.2l-.06-.15a.15.15,0,0,0-.06-.06.09.09,0,0,0-.07,0,.08.08,0,0,0,0,0,.07.07,0,0,0,0,.07.12.12,0,0,0,.06.06l-.07.11a.22.22,0,0,1-.11-.13.25.25,0,0,1,0-.16.21.21,0,0,1,.11-.12.17.17,0,0,1,.14,0l.07,0,.06.09,0,.11,0,.1,0,0Z"/><path class="cls-2" d="M103,85.61a.17.17,0,0,1,.13-.11.43.43,0,0,1,.27.05.44.44,0,0,1,.22.18.18.18,0,0,1,0,.17.19.19,0,0,1-.14.11.59.59,0,0,1-.48-.23A.17.17,0,0,1,103,85.61Zm.09,0a.05.05,0,0,0,0,0,.1.1,0,0,0,0,0l.14.08.15.06h.06l0,0a.06.06,0,0,0,0,0l0,0-.15-.08-.15-.06h-.06Z"/><path class="cls-2" d="M103.86,85.32l-.05.12-.44-.21a.38.38,0,0,1,0,.19l-.1,0a.65.65,0,0,0,0-.13.24.24,0,0,0-.06-.12l0-.09Z"/><path class="cls-2" d="M104,84.7l.11.05-.19.41a.25.25,0,0,1-.1-.09,1,1,0,0,1-.08-.2.91.91,0,0,0-.06-.14.13.13,0,0,0-.06-.06h-.07a.08.08,0,0,0,0,0,.08.08,0,0,0,0,.07.15.15,0,0,0,.06.06l-.07.11a.23.23,0,0,1-.11-.13.26.26,0,0,1,0-.16.21.21,0,0,1,.11-.12.17.17,0,0,1,.14,0l.07,0a.38.38,0,0,1,.06.08l0,.11,0,.1,0,0Z"/><path class="cls-2" d="M99.71,84.41l.11.05-.19.41a.37.37,0,0,1-.1-.09,1.19,1.19,0,0,1-.08-.2,1,1,0,0,0-.05-.14.14.14,0,0,0-.06-.06h-.07a.09.09,0,0,0-.05,0,.1.1,0,0,0,0,.07.12.12,0,0,0,.06.06l-.06.11a.23.23,0,0,1-.11-.13.26.26,0,0,1,0-.16.24.24,0,0,1,.12-.12.17.17,0,0,1,.14,0l.08.05.05.08,0,.11,0,.1,0,0Z"/><path class="cls-2" d="M99.33,83.9a.19.19,0,0,1,.13-.11.44.44,0,0,1,.28.05A.44.44,0,0,1,100,84a.18.18,0,0,1,0,.17.19.19,0,0,1-.13.11.45.45,0,0,1-.27-.06.41.41,0,0,1-.22-.18A.18.18,0,0,1,99.33,83.9Zm.1,0a.06.06,0,0,0,0,0,.1.1,0,0,0,0,0l.15.08.15.06h.06l0,0a.08.08,0,0,0,0,0l0-.05L99.68,84l-.15-.06h-.06Z"/><path class="cls-2" d="M100.21,83.62l-.06.12-.44-.2a.46.46,0,0,1,0,.19l-.11-.05a.33.33,0,0,0,0-.13.24.24,0,0,0-.06-.12l0-.09Z"/><path class="cls-2" d="M99.77,83a.19.19,0,0,1,.13-.11.47.47,0,0,1,.27.06.48.48,0,0,1,.22.17.18.18,0,0,1,0,.17.19.19,0,0,1-.13.11.45.45,0,0,1-.27-.06.48.48,0,0,1-.22-.17A.19.19,0,0,1,99.77,83Zm.1,0a.12.12,0,0,0,0,0,.1.1,0,0,0,0,0l.14.08.16.06h.06l0,0a.08.08,0,0,0,0,0,.11.11,0,0,0,0-.05l-.15-.08L100,83H99.9Z"/><path class="cls-2" d="M96.16,82.76l.11,0-.19.41a.33.33,0,0,1-.1-.09,1.06,1.06,0,0,1-.08-.2c0-.08,0-.12-.05-.14a.14.14,0,0,0-.06-.06h-.07a.09.09,0,0,0,0,0,.08.08,0,0,0,0,.07s0,0,.06.06l-.06.11a.23.23,0,0,1-.11-.13.25.25,0,0,1,0-.16.21.21,0,0,1,.12-.12.18.18,0,0,1,.14,0l.07,0,.05.08,0,.12,0,.1,0,0Z"/><path class="cls-2" d="M95.79,82.25a.18.18,0,0,1,.13-.11.59.59,0,0,1,.49.23.18.18,0,0,1,0,.17.19.19,0,0,1-.13.11A.43.43,0,0,1,96,82.6a.42.42,0,0,1-.22-.18A.18.18,0,0,1,95.79,82.25Zm.1,0a.05.05,0,0,0,0,0,.11.11,0,0,0,0,.05l.14.08a.46.46,0,0,0,.15.06h.07l0,0a.06.06,0,0,0,0,0l0,0-.15-.08L96,82.26h-.07Z"/><path class="cls-2" d="M96,81.78a.18.18,0,0,1,.13-.11.43.43,0,0,1,.28.06.43.43,0,0,1,.22.17.17.17,0,0,1,0,.17.18.18,0,0,1-.13.11.42.42,0,0,1-.27-.06.43.43,0,0,1-.22-.18A.18.18,0,0,1,96,81.78Zm.1,0a.09.09,0,0,0,0,0l0,.05.14.08.15.05h.07l0,0a.08.08,0,0,0,0,0,.1.1,0,0,0,0,0l-.15-.08-.15-.06h-.07Z"/><path class="cls-2" d="M96.47,81.54a.16.16,0,0,1-.08,0H96.3a.15.15,0,0,1-.09-.1.19.19,0,0,1,0-.16.2.2,0,0,1,.11-.11.16.16,0,0,1,.13,0,.13.13,0,0,1,.06.06.13.13,0,0,1,0,.09.15.15,0,0,1,.09-.05.16.16,0,0,1,.1,0,.2.2,0,0,1,.11.11.23.23,0,0,1,0,.17.27.27,0,0,1-.11.12.19.19,0,0,1-.17,0,.18.18,0,0,1-.08-.07A.2.2,0,0,1,96.47,81.54Zm-.11-.08a.06.06,0,0,0,.06,0,.08.08,0,0,0,0,0,.08.08,0,0,0,0-.11h-.06a.08.08,0,0,0,0,0,.07.07,0,0,0,0,.06A.07.07,0,0,0,96.36,81.46Zm.25.13a.13.13,0,0,0,.09,0,.09.09,0,0,0,.05-.05.09.09,0,0,0,0-.07.11.11,0,0,0-.06-.06.09.09,0,0,0-.08,0,.08.08,0,0,0-.05,0,.09.09,0,0,0,0,.08Z"/><path class="cls-2" d="M92.73,81.16l.11,0-.19.41a.35.35,0,0,1-.1-.09,1,1,0,0,1-.08-.2,1.2,1.2,0,0,0-.05-.14.16.16,0,0,0-.06-.06h-.06a.07.07,0,0,0-.05,0,.08.08,0,0,0,0,.07s0,0,.06.06l-.07.11a.2.2,0,0,1-.08-.29.2.2,0,0,1,.12-.12.17.17,0,0,1,.14,0l.07,0a.28.28,0,0,1,.05.08.57.57,0,0,1,0,.11l0,.1,0,0Z"/><path class="cls-2" d="M92.36,80.65a.18.18,0,0,1,.13-.11.43.43,0,0,1,.28.06.46.46,0,0,1,.22.17.19.19,0,0,1,0,.17.19.19,0,0,1-.13.11.43.43,0,0,1-.27-.06.42.42,0,0,1-.22-.18A.18.18,0,0,1,92.36,80.65Zm.1,0a.06.06,0,0,0,0,0,.1.1,0,0,0,0,0l.15.08a.53.53,0,0,0,.15.06h.06l0,0a.06.06,0,0,0,0,0s0,0,0,0l-.14-.08-.15-.06h-.07Z"/><path class="cls-2" d="M92.58,80.18a.18.18,0,0,1,.13-.11.43.43,0,0,1,.28.06.44.44,0,0,1,.22.17.2.2,0,0,1-.14.28.59.59,0,0,1-.49-.23A.18.18,0,0,1,92.58,80.18Zm.1,0a.06.06,0,0,0,0,0l0,0,.15.09.15.05h.07l0,0a.06.06,0,0,0,0,0s0,0,0,0l-.14-.08-.15-.06h-.07Z"/><path class="cls-2" d="M93,79.58l0,.12h-.06l0,0a.1.1,0,0,0,0,.07.33.33,0,0,0,.12.1.16.16,0,0,1,0-.13.18.18,0,0,1,.11-.1.23.23,0,0,1,.17,0,.24.24,0,0,1,.12.12.22.22,0,0,1,0,.17.21.21,0,0,1-.14.12.43.43,0,0,1-.26-.06.41.41,0,0,1-.21-.17.22.22,0,0,1,0-.2.19.19,0,0,1,.09-.1A.2.2,0,0,1,93,79.58Zm.13.39a.14.14,0,0,0,.1,0,.07.07,0,0,0,.06,0,.06.06,0,0,0,0-.06s0,0-.07-.06a.15.15,0,0,0-.1,0,.11.11,0,0,0-.05,0,.09.09,0,0,0,0,.07A.14.14,0,0,0,93.17,80Z"/><path class="cls-2" d="M89.53,79.67l.11,0-.19.41a.32.32,0,0,1-.1-.09,1,1,0,0,1-.08-.2.79.79,0,0,0-.06-.15.13.13,0,0,0-.06-.06h-.07a.08.08,0,0,0,0,0,.08.08,0,0,0,0,.06.11.11,0,0,0,.06.06l-.06.11a.22.22,0,0,1-.11-.13.25.25,0,0,1,0-.16.22.22,0,0,1,.12-.12.17.17,0,0,1,.14,0l.07,0,.06.08,0,.11,0,.1,0,0Z"/><path class="cls-2" d="M89.15,79.16a.18.18,0,0,1,.13-.11.43.43,0,0,1,.28.05.44.44,0,0,1,.22.18.19.19,0,0,1,0,.17.19.19,0,0,1-.13.11.43.43,0,0,1-.27-.06.4.4,0,0,1-.22-.18A.17.17,0,0,1,89.15,79.16Zm.1,0a.08.08,0,0,0,0,0,.11.11,0,0,0,0,0l.15.08a.54.54,0,0,0,.15.06h.06l0,0a.06.06,0,0,0,0,0,.09.09,0,0,0,0,0l-.15-.08-.15-.06h-.07Z"/><path class="cls-2" d="M89.37,78.69a.17.17,0,0,1,.13-.11.42.42,0,0,1,.28.06.44.44,0,0,1,.22.17A.18.18,0,0,1,90,79a.19.19,0,0,1-.14.11.42.42,0,0,1-.27-.06.41.41,0,0,1-.22-.18A.18.18,0,0,1,89.37,78.69Zm.1,0a.07.07,0,0,0,0,0,.1.1,0,0,0,0,0l.15.08.15.05h.07l0,0a.07.07,0,0,0,0,0,.09.09,0,0,0,0,0l-.15-.08-.15-.06H89.5Z"/><path class="cls-2" d="M90.22,78.47l-.12-.06-.12.24-.1,0-.27-.44,0-.1.39.18,0-.08.1,0,0,.07.12.06Zm-.22-.1-.21-.1.14.23Z"/><path class="cls-2" d="M86.26,78.14l.11.05-.19.41a.36.36,0,0,1-.1-.09,1.41,1.41,0,0,1-.08-.2l-.05-.14-.06-.06h-.07a.08.08,0,0,0-.05,0,.09.09,0,0,0,0,.07.11.11,0,0,0,.06.06l-.06.11a.23.23,0,0,1-.11-.13.25.25,0,0,1,0-.16.21.21,0,0,1,.11-.12.17.17,0,0,1,.14,0L86,78l.06.09a1.13,1.13,0,0,1,0,.11l0,.1,0,0Z"/><path class="cls-2" d="M85.89,77.64a.18.18,0,0,1,.13-.11.43.43,0,0,1,.27.05.44.44,0,0,1,.22.18.19.19,0,0,1,0,.17.19.19,0,0,1-.13.11A.43.43,0,0,1,86.1,78a.39.39,0,0,1-.21-.18A.17.17,0,0,1,85.89,77.64Zm.1,0a.05.05,0,0,0,0,0,.09.09,0,0,0,0,0l.14.08.15.06h.06s0,0,0,0a.06.06,0,0,0,0,0l0,0-.15-.08-.15-.06H86Z"/><path class="cls-2" d="M86.11,77.16a.18.18,0,0,1,.13-.11.6.6,0,0,1,.49.23.2.2,0,0,1-.13.28.43.43,0,0,1-.27-.06.42.42,0,0,1-.21-.18A.18.18,0,0,1,86.11,77.16Zm.1,0a.05.05,0,0,0,0,0s0,0,0,0l.14.08.16.06h.06s0,0,0,0a.07.07,0,0,0,0,0,.1.1,0,0,0,0,0l-.15-.08-.15-.06h-.06Z"/><path class="cls-2" d="M86.92,76.73l.11.05-.19.41a.23.23,0,0,1-.1-.09,1.21,1.21,0,0,1-.08-.2.73.73,0,0,0-.05-.14.14.14,0,0,0-.06-.06h-.07a.09.09,0,0,0,0,0,.09.09,0,0,0,0,.07.14.14,0,0,0,.06.06l-.06.11a.24.24,0,0,1-.11-.13.25.25,0,0,1,0-.16.22.22,0,0,1,.12-.12.18.18,0,0,1,.14,0l.07,0,.06.09a.61.61,0,0,1,0,.11l0,.1,0,0Z"/><path class="cls-2" d="M83,76.62l.11.05-.19.41a.36.36,0,0,1-.1-.09,1,1,0,0,1-.08-.2l-.05-.14a.15.15,0,0,0-.06-.06h-.07a.08.08,0,0,0,0,0,.08.08,0,0,0,0,.07.14.14,0,0,0,.06.06l-.07.11a.22.22,0,0,1-.11-.13.25.25,0,0,1,0-.16.21.21,0,0,1,.11-.12.18.18,0,0,1,.14,0l.07.05.05.08a.81.81,0,0,1,0,.11.61.61,0,0,0,0,.1l0,0Z"/><path class="cls-2" d="M82.62,76.11a.19.19,0,0,1,.13-.11.43.43,0,0,1,.28.05.44.44,0,0,1,.22.17.18.18,0,0,1,0,.17.2.2,0,0,1-.13.11.45.45,0,0,1-.27-.06.4.4,0,0,1-.21-.18A.18.18,0,0,1,82.62,76.11Zm.1,0a.05.05,0,0,0,0,0,.1.1,0,0,0,0,0l.15.08a.54.54,0,0,0,.15.06h.06a0,0,0,0,0,0,0,.06.06,0,0,0,0,0,.1.1,0,0,0,0,0L83,76.18l-.15-.06h-.06Z"/><path class="cls-2" d="M82.84,75.64a.18.18,0,0,1,.13-.11.44.44,0,0,1,.27.06.42.42,0,0,1,.22.17.18.18,0,0,1,0,.17.19.19,0,0,1-.13.11.43.43,0,0,1-.27-.06.42.42,0,0,1-.22-.18A.18.18,0,0,1,82.84,75.64Zm.1,0a.06.06,0,0,0,0,0l0,0,.14.08.15.06h.07a0,0,0,0,0,0,0,.06.06,0,0,0,0,0,.08.08,0,0,0,0,0l-.14-.08L83,75.65H83Z"/><path class="cls-2" d="M83.06,75.17a.19.19,0,0,1,.13-.11.46.46,0,0,1,.27.06.45.45,0,0,1,.22.17.18.18,0,0,1,0,.17.19.19,0,0,1-.13.11.45.45,0,0,1-.27-.06.47.47,0,0,1-.22-.17A.19.19,0,0,1,83.06,75.17Zm.1,0a.07.07,0,0,0,0,0,.1.1,0,0,0,0,0l.15.08.15.06h.06l0,0a.06.06,0,0,0,0,0,.09.09,0,0,0,0,0l-.14-.08-.15-.06h-.07Z"/><path class="cls-2" d="M79.84,75.32l-.05.12-.44-.2a.48.48,0,0,1,0,.19l-.11-.05a.35.35,0,0,0,0-.12.25.25,0,0,0-.07-.12l0-.09Z"/><path class="cls-2" d="M79.78,75.08l0-.12h.06a.07.07,0,0,0,0,0,.08.08,0,0,0,0-.08.38.38,0,0,0-.12-.1.17.17,0,0,1,0,.14.19.19,0,0,1-.11.1.22.22,0,0,1-.17,0,.23.23,0,0,1-.12-.12.2.2,0,0,1,0-.16.2.2,0,0,1,.14-.12.39.39,0,0,1,.26,0,.41.41,0,0,1,.21.17.22.22,0,0,1,0,.2.18.18,0,0,1-.09.1A.22.22,0,0,1,79.78,75.08Zm-.13-.38a.17.17,0,0,0-.1,0,.09.09,0,0,0-.06,0,.08.08,0,0,0,0,.07.14.14,0,0,0,.07.06.15.15,0,0,0,.1,0,.09.09,0,0,0,.06,0,.09.09,0,0,0,0-.07A.13.13,0,0,0,79.65,74.7Z"/><path class="cls-2" d="M80,74.61l0-.12h.06l0,0a.08.08,0,0,0,0-.07.28.28,0,0,0-.12-.1.15.15,0,0,1,0,.13.19.19,0,0,1-.11.1.22.22,0,0,1-.17,0,.25.25,0,0,1-.12-.12.21.21,0,0,1,0-.17.2.2,0,0,1,.14-.12.41.41,0,0,1,.26.05.43.43,0,0,1,.21.17.22.22,0,0,1,0,.2.19.19,0,0,1-.09.1A.19.19,0,0,1,80,74.61Zm-.13-.38a.16.16,0,0,0-.1,0,.09.09,0,0,0-.06,0,.09.09,0,0,0,0,.07.17.17,0,0,0,.07.06.17.17,0,0,0,.1,0,.08.08,0,0,0,.06,0,.08.08,0,0,0,0-.07A.14.14,0,0,0,79.88,74.23Z"/><path class="cls-2" d="M80.08,74A.14.14,0,0,1,80,74h-.08a.18.18,0,0,1-.09-.1.27.27,0,0,1,0-.16.25.25,0,0,1,.11-.12.18.18,0,0,1,.14,0l.06.06a.15.15,0,0,1,0,.09.19.19,0,0,1,.1,0,.17.17,0,0,1,.1,0,.2.2,0,0,1,.11.12.21.21,0,0,1,0,.17.22.22,0,0,1-.11.12.18.18,0,0,1-.17,0,.19.19,0,0,1-.08-.07A.19.19,0,0,1,80.08,74Zm-.1-.08H80l0,0a.08.08,0,0,0,0-.06.09.09,0,0,0,0,0H80a.07.07,0,0,0,0,0,.09.09,0,0,0,0,.07A.08.08,0,0,0,80,73.87Zm.25.13a.12.12,0,0,0,.09,0,.09.09,0,0,0,.06-.05.08.08,0,0,0,0-.07.1.1,0,0,0-.06-.06.11.11,0,0,0-.09,0,.1.1,0,0,0-.05,0,.08.08,0,0,0,0,.08A.12.12,0,0,0,80.23,74Z"/><path class="cls-10" d="M120.14,58.92a4.84,4.84,0,0,1-2.68-5.42l-.16-.07a3.61,3.61,0,0,1-6.45-3l-.05,0h0a5.72,5.72,0,1,1-10.37-4.83h0A4.23,4.23,0,0,1,92.77,42l0,0L79.46,70.43,112.78,86,126.05,57.5l0,0A4.84,4.84,0,0,1,120.14,58.92Z"/><path class="cls-9" d="M120,59.19a4.84,4.84,0,0,1-2.68-5.42l-.16-.07a3.61,3.61,0,0,1-6.45-3l-.05,0h0a5.72,5.72,0,1,1-10.37-4.83h0a4.23,4.23,0,0,1-7.65-3.57l0,0L79.33,70.71l33.32,15.54,13.28-28.47,0,0A4.84,4.84,0,0,1,120,59.19Z"/><path class="cls-10" d="M117.26,66.39a4.23,4.23,0,0,1-2-5.63l0,0h0c0,.12-.09.24-.15.36a5.72,5.72,0,1,1-10.37-4.83c.05-.12.12-.23.18-.35h0a3.61,3.61,0,0,1-6.53-3l-.06,0a4.83,4.83,0,0,1-8.67-4h0L79.46,70.43,112.78,86,122.7,64.7A4.23,4.23,0,0,1,117.26,66.39Z"/><path class="cls-7" d="M117.13,66.66a4.24,4.24,0,0,1-2-5.63l0,0h0c0,.12-.09.24-.15.36a5.72,5.72,0,1,1-10.37-4.83c.05-.12.12-.23.18-.35h0a3.61,3.61,0,0,1-6.52-3l-.06,0a4.83,4.83,0,0,1-8.67-4h0L79.33,70.71l33.32,15.54L122.57,65A4.23,4.23,0,0,1,117.13,66.66Z"/><path class="cls-10" d="M113.91,73.57a4.23,4.23,0,0,1-2.14-5.39h0l0,.09a5.72,5.72,0,0,1-10.37-4.83l0-.08,0,0a3.61,3.61,0,0,1-6.47-3l-.13-.06a4.84,4.84,0,0,1-8.59-4l-.07,0L79.46,70.43,112.78,86l6.57-14.09A4.23,4.23,0,0,1,113.91,73.57Z"/><path class="cls-6" d="M113.79,73.84a4.23,4.23,0,0,1-2.14-5.39h0l0,.09a5.72,5.72,0,0,1-10.37-4.83l0-.08,0,0a3.61,3.61,0,0,1-6.47-3l-.13-.06a4.84,4.84,0,0,1-8.59-4l-.07,0L79.33,70.71l33.32,15.54,6.57-14.09A4.23,4.23,0,0,1,113.79,73.84Z"/><path class="cls-10" d="M114.56,79.36a1.21,1.21,0,0,1-.62-1.52h0a2.31,2.31,0,0,1-4.18-2h0a3.09,3.09,0,0,1-5.61-2.61h0A2.71,2.71,0,0,1,99.22,71h0a3.66,3.66,0,0,1-6.63-3.09h0a2.31,2.31,0,0,1-4.18-1.95h0a3.09,3.09,0,0,1-5.6-2.61h0l-3.32,7.12L112.78,86,116,79A1.21,1.21,0,0,1,114.56,79.36Z"/><path class="cls-11" d="M114.43,79.64a1.21,1.21,0,0,1-.62-1.51h0a2.31,2.31,0,0,1-4.18-1.95h0A3.09,3.09,0,0,1,104,73.55h0a2.71,2.71,0,0,1-4.9-2.29h0a3.66,3.66,0,0,1-6.63-3.09h0a2.31,2.31,0,0,1-4.18-1.95h0a3.09,3.09,0,0,1-5.6-2.61h0l-3.32,7.12,33.32,15.54,3.25-7A1.21,1.21,0,0,1,114.43,79.64Z"/><rect class="cls-6" x="57.38" y="6.18" width="8.18" height="42.66" transform="translate(10.56 71.59) rotate(-65)"/><rect class="cls-7" x="84.6" y="67.93" width="8.18" height="42.66" transform="translate(-29.69 131.92) rotate(-65)"/><rect class="cls-12" x="58.41" y="11.63" width="1.02" height="42.66" transform="translate(4.15 72.43) rotate(-65)"/><rect class="cls-12" x="57.34" y="13.92" width="1.02" height="42.66" transform="translate(1.45 72.79) rotate(-65)"/><rect class="cls-12" x="56.28" y="16.21" width="1.02" height="42.66" transform="translate(-1.24 73.14) rotate(-65)"/><rect class="cls-12" x="55.21" y="18.5" width="1.02" height="42.66" transform="translate(-3.93 73.5) rotate(-65)"/><rect class="cls-12" x="54.14" y="20.79" width="1.02" height="42.66" transform="translate(-6.62 73.85) rotate(-65)"/><rect class="cls-12" x="85.64" y="73.39" width="1.02" height="42.66" transform="translate(-36.1 132.77) rotate(-65)"/><rect class="cls-12" x="84.57" y="75.68" width="1.02" height="42.66" transform="translate(-38.79 133.12) rotate(-65)"/><rect class="cls-12" x="83.5" y="77.97" width="1.02" height="42.66" transform="translate(-41.48 133.48) rotate(-65)"/><rect class="cls-12" x="82.44" y="80.26" width="1.02" height="42.66" transform="translate(-44.18 133.83) rotate(-65)"/><rect class="cls-12" x="81.37" y="82.55" width="1.02" height="42.66" transform="translate(-46.87 134.18) rotate(-65)"/></g></g></g></svg>